<?xml version="1.0" encoding="iso-8859-1"?>
<!-- Generator: Adobe Illustrator 19.0.0, SVG Export Plug-In . SVG Version: 6.00 Build 0)  -->
<svg version="1.1" id="Layer_1" xmlns="http://www.w3.org/2000/svg" xmlns:xlink="http://www.w3.org/1999/xlink" x="0px" y="0px"
	 viewBox="0 0 512.002 512.002" style="enable-background:new 0 0 512.002 512.002;" xml:space="preserve">
<g>
	<g>
		<path d="M480.411,329.294H457.05c8.257-12.207,17.684-29.375,23.072-49.937c11.266-42.983,0.199-84.855-32.006-121.091
			c-37.989-42.735-51.609-75.764-56.348-95.946c-4.831-20.591-1.584-32.186-1.294-33.151c1.316-3.403,0.61-7.126-1.765-9.902
			c-2.394-2.796-6.187-3.905-9.773-3.101c-0.804,0.18-19.926,4.555-40.13,16.188c-19.366,11.15-33.233,25.262-41.013,41.523
			c-4.931-6.874-10.473-13.644-16.657-20.285c-31.125-33.426-66.805-51.719-68.308-52.481c-4.418-2.239-9.967-1.021-12.794,3.053
			c-2.814,4.052-2.37,9.409,1.225,12.771c5.246,5.811,15.022,27.021,15.022,66.511c0,30.65-26.243,58.862-46.313,75.954
			c4.197-42.1-24.61-71.553-26.102-73.045c-2.755-2.755-6.869-3.642-10.514-2.273c-3.648,1.37-6.157,4.747-6.416,8.635
			c-1.887,28.309-23.896,49.175-47.197,71.267c-20.996,19.908-42.71,40.492-49.816,67.902
			c-10.172,39.236,7.148,76.644,19.985,97.411H31.591c-5.485,0-9.93,4.446-9.93,9.93v162.847c0,5.484,4.445,9.93,9.93,9.93h448.82
			c5.485,0,9.93-4.446,9.93-9.93V339.224C490.341,333.74,485.897,329.294,480.411,329.294z M49.147,236.868
			c5.679-21.899,24.416-39.665,44.257-58.474c19.287-18.286,39.078-37.047,48.259-61.175c7.666,14.49,14.15,37.141,2.055,63.346
			c-1.839,3.983-0.846,8.7,2.443,11.604c3.286,2.904,8.09,3.309,11.817,0.992c3.191-1.985,78.166-49.285,78.166-109.716
			c0-20.095-2.235-35.67-5.248-47.534c11.045,7.975,24.027,18.602,36.069,31.598c37.224,40.172,48.411,83.215,33.254,127.932
			c-1.761,5.194,1.021,10.832,6.215,12.593c5.197,1.762,10.833-1.021,12.593-6.216c12.229-36.074,9.479-71.986-7.727-105.845
			c5.949-31.97,38.822-48.79,58.03-56.006c-0.299,23.342,8.413,69.025,63.946,131.495c27.978,31.479,37.275,66.087,27.638,102.86
			c-6.767,25.82-21.289,46.008-28.587,54.972H213.667l-45.194-64.354c-2.439-3.473-6.813-5.013-10.89-3.83l-49.595,14.368
			c-5.268,1.527-8.302,7.035-6.775,12.301l12.029,41.513H73.875C64.744,316.898,38.746,276.99,49.147,236.868z M470.481,492.139
			H41.521V349.154h84.936c3.122,0,6.063-1.468,7.939-3.965c1.876-2.497,2.468-5.729,1.599-8.729l-12.942-44.67l33.243-9.632
			l65.761,93.641c1.933,2.753,5.009,4.224,8.136,4.224c1.97,0,3.961-0.585,5.699-1.805c4.488-3.151,5.571-9.345,2.419-13.833
			l-10.697-15.23h242.866V492.139z"/>
	</g>
</g>
<g>
	<g>
		<path d="M269.903,446.463H113.014c-5.485,0-9.93,4.446-9.93,9.93s4.445,9.93,9.93,9.93h156.888c5.485,0,9.93-4.446,9.93-9.93
			S275.388,446.463,269.903,446.463z"/>
	</g>
</g>
<g>
	<g>
		<path d="M387.073,408.73H230.185c-5.484,0-9.93,4.446-9.93,9.93c0,5.484,4.445,9.93,9.93,9.93h156.888
			c5.485,0,9.93-4.446,9.93-9.93C397.003,413.176,392.558,408.73,387.073,408.73z"/>
	</g>
</g>
<g>
	<g>
		<path d="M188.479,408.73h-31.774c-5.485,0-9.93,4.446-9.93,9.93c0,5.484,4.445,9.93,9.93,9.93h31.774
			c5.485,0,9.93-4.446,9.93-9.93C198.409,413.176,193.965,408.73,188.479,408.73z"/>
	</g>
</g>
<g>
	<g>
		<path d="M333.453,369.418h-29.789c-5.485,0-9.93,4.446-9.93,9.93s4.446,9.93,9.93,9.93h29.789c5.485,0,9.93-4.446,9.93-9.93
			S338.938,369.418,333.453,369.418z"/>
	</g>
</g>
<g>
	<g>
		<path d="M134.859,369.418h-29.788c-5.485,0-9.93,4.446-9.93,9.93s4.445,9.93,9.93,9.93h29.788c5.485,0,9.93-4.446,9.93-9.93
			S140.344,369.418,134.859,369.418z"/>
	</g>
</g>
<g>
	<g>
		<path d="M371.165,240.346c-0.224-3.355-2.13-6.37-5.067-8.009c-2.934-1.639-6.501-1.681-9.476-0.111l-24.825,13.103l-0.379,0.199
			c-18.588,9.701-41.709,3.832-53.783-13.645c-9.089-13.158-14.779-23.879-14.834-23.981c-1.797-3.408-5.414-5.459-9.252-5.288
			c-3.849,0.183-7.246,2.575-8.712,6.138c-3.958,9.61-5.86,20.105-5.699,31.365c-4.303-2.991-8.327-6.372-12.046-10.13
			c-5.576-5.631-9.438-11.152-11.482-16.409c-1.393-3.579-4.723-6.035-8.553-6.306c-3.828-0.267-7.474,1.689-9.357,5.037
			c-0.826,1.47-20.113,36.315-8.455,64.294c2.109,5.062,7.927,7.456,12.985,5.345c5.062-2.109,7.457-7.923,5.346-12.986
			c-3.755-9.013-2.193-20.532,0.637-30.186c1.475,1.737,3.064,3.465,4.764,5.182c9.816,9.917,21.355,17.711,34.292,23.169
			c3.403,1.434,7.314,0.866,10.166-1.479c2.849-2.344,4.165-6.073,3.417-9.687c-1.166-5.624-1.783-11.018-1.852-16.16
			c0.74,1.102,1.505,2.226,2.293,3.368c17.759,25.706,51.857,34.291,79.288,19.977l9.641-5.087
			c-3.818,20.626-15.115,39.014-15.266,39.259c-2.898,4.65-1.484,10.77,3.163,13.674c1.636,1.022,3.456,1.511,5.255,1.511
			c3.31,0,6.546-1.655,8.43-4.668C352.683,306.425,373.34,272.962,371.165,240.346z"/>
	</g>
</g>
<g>
	<g>
		<circle cx="432.744" cy="418.655" r="9.93"/>
	</g>
</g>
<g>
</g>
<g>
</g>
<g>
</g>
<g>
</g>
<g>
</g>
<g>
</g>
<g>
</g>
<g>
</g>
<g>
</g>
<g>
</g>
<g>
</g>
<g>
</g>
<g>
</g>
<g>
</g>
<g>
</g>
</svg>
