<?xml version="1.0" encoding="utf-8"?>
<!-- Generator: Adobe Illustrator 19.0.0, SVG Export Plug-In . SVG Version: 6.00 Build 0)  -->
<svg version="1.1" id="Calque_1" xmlns="http://www.w3.org/2000/svg" xmlns:xlink="http://www.w3.org/1999/xlink" x="0px" y="0px"
	 width="800px" height="600px" viewBox="0 0 800 600" style="enable-background:new 0 0 800 600;" xml:space="preserve">
<style type="text/css">
	.st0{fill:#333333;}
	.st1{fill:#CCCCCC;stroke:#CCCCCC;stroke-width:6;stroke-miterlimit:10;}
	.st2{fill:#D3D3D3;}
	.st3{fill:#57AA91;}
	.st4{fill:#808080;stroke:#808080;stroke-width:6;stroke-miterlimit:10;}
	.st5{fill:#FFFFFF;stroke:#000000;stroke-miterlimit:10;}
	.st6{fill:#916741;stroke:#000000;stroke-miterlimit:10;}
	.st7{fill:#352814;}
	.st8{fill:#FFFFFF;}
	.st9{fill:#FFFFFF;stroke:#000000;stroke-width:3;stroke-miterlimit:10;}
</style>
<g id="Calque_3">
	<g id="XMLID_76_">
		<path id="XMLID_181_" class="st0" d="M401,339.3c0,6.7,0,13.4,0,20.1c0,3.8,0.6,7.6,0.7,11.4c0.1,3.9,0,7.7,0,11.6
			c0,8.6-0.5,17-0.7,25.6c-0.2,5.3-0.1,10.6,1.3,15.7c1.2,4.3-2.5,12-1.4,16.3c1.4,5.3,1.7,10.3,2.6,15.7c0.7,4,0.5,8.1,0.5,12.2
			c0,1.5,0,3,0.5,4.4c0.3,0.9,0.8,1.5,0.9,2.4c0.3,2.1,0.4,3.5,1.6,5.4c1.5,2.2,2.1,4,5,4.3c1.2,0.1,8.8,1.1,10,1
			c1.6-0.2,1.7-0.6,2.1-2c1.6-5.8,1-16,1-22.1c0-5.7-0.1-11.5,0-17.2c0-2.8,0.5-5.5,0.6-8.3c0.3-4.2,0.1-8.5,0.1-12.7
			c0-7.7,0.3-15.3-1.3-22.9c-0.7-3.3,0.1-4.8-0.1-9.6c-0.2-4.3,0-9.1-0.4-13.4c-0.3-2.9-1.1-5.8-1.2-8.8c-0.1-2.3,0-4.7,0-7
			c0-3.2,0.7-6.1,0.7-9.2c0-3-4.3-6.8-6.2-9.4c-1.4-1.9-7-3.6-8.7-1.4"/>
	</g>
	<g id="XMLID_86_">
		<path id="XMLID_179_" class="st0" d="M199.3,406.3c6-3.5,11.6-7.7,17.2-11.8c6.9-5.1,14.2-9.4,21.7-13.4
			c6.7-3.6,12.1-8.1,18.1-12.7c14.6-11.4,32.8-18.5,49-27.4c10.5-5.8,21.5-12.1,33.2-15.1c8.7-2.3,17.9,2.3,25.9,5.7
			c12.1,5.1,24.2,11.1,37.1,13.7c4.6,0.9,8.4,2,12.4,4.4c4.6,2.6,12.5,4.8,14,10.5c2,8.1-10.9,20.9-15.7,26.2
			c-8.7,9.5-19,16.2-30,23c-12.3,7.6-24.4,15.4-37,22.7c-6.2,3.6-13.2,7.1-20.1,8.9c-4.7,1.2-9-0.9-13.3-2.6
			c-8.1-3.1-15.6-7.5-23.7-10.6c-10-3.8-18.8-9.7-28.9-13.2c-6.6-2.3-13.5-3.5-20.2-5.6c-3.1-1-7.4-1.6-9.9-3.7"/>
	</g>
	<path id="XMLID_46_" class="st1" d="M370.2,291.8c-5.1,9.9-7.1,21.4-5.7,32.5c5.5-0.5,10-4.5,14.5-7.7c11.2-7.9,25-11.5,38.7-12.4
		s27.4,0.7,41,2.3c1.9,0.2,4,0.5,5.6,1.6c1.4,0.9,2.4,2.3,3.3,3.7c3.7,5.5,7.5,11.2,9.5,17.6c1.6,5.4,1.8,11.1,2.1,16.7
		c0.6,14.8,1.1,29.5,1.7,44.3c11.4,2.2,18.9-15.9,30.4-14.2c5.6,0.8,9.5,6.6,10,12.2c0.4,5.7-1.8,11.2-4.5,16.2
		c-9.1,17.5-22.7,32.2-36.2,46.7c-2.5,2.7-5.1,5.5-8.5,7c-6.7,3-9.9,2.3-14.9,7.7c-1.5,1.7-8.9,2.6-11.1,1.9c-1-0.3-1.6-1.3-2.1-2.2
		c-9.3-16.5-10.8-36.1-11.1-55c-0.3-18.9,0.4-38.2-5-56.3c1.3,3.1-0.5,6.8-3.3,8.8s9.4,2.6,6.1,3.3c-14.1,2.9-26,8.3-37.6,16.8
		c-15.7,11.4-32.4,29.2-49.9,34.3c-20.5,6-45.6-7.5-58.5-10c-5.9-1.2-18.8-4.8-21.8-10c-1.7-2.8-3.6-14.3-4.2-17.5
		c-2.2-12.6,8.7-28,6.5-40.7"/>
	<g id="XMLID_33_">
		<path id="XMLID_145_" class="st2" d="M376,298c3.7,1.8,7.1,4,10.8,5.8c5.5,2.7,11.3,4.2,17.1,6.2c6.8,2.3,13.3,5.4,20.1,7.9
			c6.6,2.4,13.3,4.5,19.9,6.9c14.5,5.4,29.6,9.9,44.8,12.3c15.2,2.5,30.4,3.5,45.2,7.9c9.2,2.7,18.7,4.1,28.1,6.5
			c5.2,1.4,9.1,2.1,14.4,0.6c9.1-2.5,17.6-8.8,25.3-14c9.7-6.6,18.9-13.8,28-21.1c12.9-10.3,25.6-20.3,37.2-32c3-3,6.1-4.8,9.4-7.3
			c1.6-1.2,2.5-2.6,3.9-3.8c1.4-1.2,3.2-2.1,4.7-3.1c1.4-1,2.7-2.1,4-3.1c1.6-1.2,4.5-2.3,5.7-3.9c2.7-3.8-1-6.4-3.6-8.8
			c-5.5-5-13.4-7.5-20.2-10.3c-14.2-5.7-28.9-9.7-42.9-15.7c-12.9-5.5-25.8-11.3-39-16.1c-12.9-4.6-26.1-8.4-39-12.9
			c-25.1-8.7-51.1-15.2-75.9-24.8c-7.4-2.8-15-4.8-22.1-8.3c-3.5-1.7-7.2-3.3-10.9-4.7c-2.9-1.1-5.5-2-8.3-3.3
			c-4.1-1.9-8-3.8-12.1-5.9c-8-4-16.1-8.1-24.4-11.3c-4.3-1.7-8.9-2.8-13.1-4.9c-6.1-3-11.8-6.2-18.1-8.9c-6.9-3-14.2-4.7-21.3-7
			c-2.9-0.9-5.6-1.9-8.6-2c-8.8-0.1-17.5,0.2-26.2,1.2c-5.3,0.6-10.1,2-15.1,3.7c-8.5,3-17.2,5.4-25.8,8.3
			c-13.4,4.4-26.3,10.1-39.6,14.8c-6.1,2.2-12.3,4-18.4,5.9c-6.5,2-12.6,5-19.1,6.9c-7.4,2.2-15.1,3.7-22.4,6.3
			c-4.2,1.5-8,3.7-12.3,5.1c-5.1,1.7-10.3,3.5-15.2,5.8c-7.5,3.4-4.7,11.5,0,16.7c3.5,3.8,7.6,7.3,11.2,11
			c5.3,5.4,11.3,9.4,17.8,13.2c5.4,3.2,10.6,6.6,15.9,9.9c11.3,7,23.1,12.8,35.2,18.2c15.8,7.2,31.1,15.8,47,22.8
			c13.5,5.9,26.6,12.6,39.8,19.1c13.9,6.8,27.9,12.4,42.7,17.1"/>
	</g>
	<path id="XMLID_47_" class="st3" d="M157.5,80.7c-4,13.6,3.8,27.7,5.5,41.8c0.5,4.7,0.4,9.4,1.1,14c0.8,5.5,2.7,10.8,4.2,16.2
		c2.6,9.5,3.8,19.4,3.6,29.3c10.5,1.8,21.1-2.2,31-6.1c10.7-4.2,21.4-8.3,31.8-13.1c5.9-2.7,11.6-5.6,17.7-7.8
		c12.9-4.7,26.8-6.4,39.1-12.3c-1-9.6-2-19.1-3-28.7c-0.6-5.5-1-22.3-2.5-27.6c-2.9-10.4-3-9.3-4.9-19.3c-26.1,2.2-54.8,3.8-80.9,6
		c-7.2,0.6-14.5,1.2-21.5,3c-8,2-15.9,5.5-24.2,5.5"/>
	<g id="XMLID_39_">
		<g id="XMLID_169_">
			<path id="XMLID_178_" d="M250.7,208.8c-3.2-0.3-6.4-2.1-9.5-3.2c-4-1.4-8-2.7-12-4c-7.6-2.6-15.2-5.2-22.9-7.4
				c-7.4-2.1-15-3.8-22.3-6.4c-4.5-1.6-9.1-1.2-9.8-7c-0.5-3.8-0.3-7.7-0.7-11.6c-1.4-15.3-3.9-30.2-7.3-45.2
				c-1.8-7.7-3.7-15.4-5.5-23.1c-0.9-3.7-1.6-7.3-1.8-11.2c-0.1-1.3-0.1-2.7-0.3-4c-0.3-2.6-1-3.9,2-4.5c7.4-1.4,15-2,22.5-3
				c8.1-1.2,16.2-2.6,24.3-3.7c16.2-2,32.6-2.6,48.8-4.2c3.3-0.3,6.7-0.7,10-1.2c1.9-0.3,3.8-0.5,5.7-0.8c1.5-0.2,3.8-1.2,5.3-1
				c3.6,0.3,3.5,6,4,8.9c0.8,4.1,1.5,8.2,2.2,12.3c2.7,15.7,4.9,31.5,7.6,47.3c0.4,2.3,0.1,5.8,1.7,7.8c1.4,1.9,4.6,2.9,6.6,3.7
				c7.5,3.3,15.5,5,23.5,6.5c8.3,1.5,16.6,3,24.8,4.9c3.8,0.9,7.6,1.8,11.2,3.2c3.4,1.3,7.7,2.3,10.7,4.3c-0.2-0.6-0.5-1.1-0.7-1.7
				c-0.6,1.6-3.7,2.8-5.1,3.6c-2.1,1.4-4.1,2.8-6.3,3.9c-5.7,2.8-11.7,5.3-17.7,7.4c-11.5,4-22.8,5.5-34.9,7
				c-5.2,0.7-10.4,1.3-15.5,2.4c-5.2,1.1-9.8,3.5-14.7,5.2c-4.8,1.7-9.3,3.5-13.9,5.7c-2.7,1.3-5.5,2.2-8.3,3.5
				c-2.4,1.1-4.7,2.9-7.4,3.3c-1.9,0.2-1.9,3.2,0,3c4.6-0.6,8.9-3.6,13.1-5.3c5.8-2.4,11.3-5.1,17.2-7.3c5.6-2,10.7-4.5,16.5-5.6
				c7-1.4,14.2-2.2,21.3-3c12.3-1.5,23.5-4.3,34.9-9.1c5.1-2.1,10.2-4.2,14.8-7.2c2.8-1.8,7.3-3.4,8.5-6.8c0.2-0.7-0.2-1.3-0.7-1.7
				c-2.1-1.4-4.6-2-7-2.9c-3.9-1.4-7.6-3-11.6-4c-7.8-2-15.7-3.5-23.6-4.9s-16-2.8-23.6-5.4c-3.9-1.3-9.5-2.6-10.6-7
				c-1-3.7-1.3-7.9-1.9-11.7c-2.8-17.1-5.2-34.3-8.4-51.4c-0.7-3.9-0.3-12.5-5.9-12.3c-2.7,0.1-5.6,1.2-8.2,1.6
				c-5,0.8-10,1.3-15,1.8c-17,1.6-34.1,2.2-51.1,4.5c-8.7,1.2-17.3,2.8-26.1,3.9c-3.9,0.5-7.8,0.9-11.7,1.4
				c-2.9,0.4-7.3,0.4-9.9,1.8c-1.1,0.6-1.8,1.3-2,2.6c-0.2,1.1,0.3,2,0.6,3.1c0.7,2.8,0.6,5.4,0.9,8.2c0.8,7.9,3.4,15.7,5.2,23.3
				c4.1,17.1,7.4,34.2,9.1,51.8c0.4,4.7,0.4,9.4,0.7,14.1c0.2,2.2,0.6,4.3,2.6,5.5c2.9,1.7,7.1,2,10.3,3.1c4.6,1.6,9.3,2.7,14,4
				c9.3,2.5,18.4,5.4,27.5,8.5c4.9,1.7,9.8,3.3,14.7,5c3.4,1.2,6.7,3,10.3,3.3C252.6,212,252.6,209,250.7,208.8L250.7,208.8z"/>
		</g>
	</g>
	<path id="XMLID_9_" class="st4" d="M307.5,350.5c-29.1,4.2-34.7,2-62.5-7.3c-1.9-0.6-3.8-1.3-5.4-2.5c-2.2-1.7-3.6-4.2-4.7-6.7
		c-3.9-8.9-5.3-18.9-3.9-28.5c1.3-9.2,5-17.8,7.1-26.8c2-8.6,2.4-17.5,4-26.2c6.3-35.5,32.4-66.8,66.1-79.4
		c6.2-2.3,12.7-4.1,19.4-4.2c9.2-0.2,37.2,0.4,45.7,3.6c18.5,6.9,17.1,18.1,33.5,29c1.1,0.7,2.2,1.5,3.5,1.5
		c1.4,0.1,2.7-0.7,3.8-1.5c6.2-4.3,11.4-10.2,14.9-16.9c19.6,20.2,38.2,41.3,55.8,63.2c2.9,3.6,5.8,7.2,7.7,11.4
		c3.6,7.8,3.5,17.1-0.1,24.8c-20.7,0.8-41.6,1.7-62.1-1.7c-13.6-2.3-26.8-6.4-40.5-7.3c-1.4-0.1-2.8-0.1-4,0.4
		c-1.3,0.6-2.2,1.8-3.1,2.9c-7,9.1-5.8,27.3-12.8,36.4c-11.3,14.7-17,15.1-33.8,32.1"/>
	<g id="XMLID_11_">
		<g id="XMLID_146_">
			<path id="XMLID_167_" d="M358.9,255.1c12.9,12.8,31,18.8,48,23.8c10.3,3,20.7,5.7,31.3,7.6c9.1,1.7,18.6,4.6,27.9,5.1
				c8.7,0.4,17.8-2.2,25.6-6c2.2-1.1,5.1-2.5,6.2-4.9c1.4-3.2,0.7-8.5,0.5-11.8c-0.3-7.1-4-15.1-8.7-20.2
				c-7.3-7.9-14.6-15.5-20.8-24.2c-6.1-8.5-13.1-16-19.9-23.9c-3.8-4.4-7.4-9-10.9-13.7c-3.3-4.4-7.4-8.6-8.7-14.1
				c-0.4-1.9-3.3-1.1-2.9,0.8c1.6,7,7.4,12.9,11.7,18.5c4.9,6.5,10.3,12.5,15.8,18.5c6.3,6.8,11.4,14.4,17.1,21.7
				c5.3,6.8,11.6,12.8,17.3,19.3c5.4,6.2,8.7,17.2,7.1,25.4c-1.6,8.3-17.7,11.1-24.8,11.6c-9.2,0.7-18.8-2.6-27.8-4.2
				c-9.4-1.7-18.7-3.8-27.9-6.3c-18.8-5.1-39.7-10.9-54-25C359.7,251.6,357.6,253.7,358.9,255.1L358.9,255.1z"/>
		</g>
	</g>
	<g id="XMLID_18_">
		<g id="XMLID_138_">
			<path id="XMLID_142_" d="M413.4,206.6c-0.8-3.2-3.3-5.7-5.6-8c-4.1-4-8.6-7.6-12.9-11.3c-7.7-6.7-14.9-15.5-25.3-17.6
				c-5.1-1-10.3-1-15.4-1.2c-2.5-0.1-4.9-0.4-7.4-0.1c-2.7,0.4-4.8,1.9-7.4,2.6c-11.6,3-24.7-2.4-36.2,2c-4.4,1.7-8.1,4.5-11.8,7.2
				c-4.3,3.2-8.8,6.1-13,9.6c-4.7,3.8-9.5,7.3-14.5,10.8c-2.9,2.1-8.4,4.7-9.9,8.3c-1.7,3.9-1.9,8.6-3.4,12.6
				c-2.4,6.3-6.4,12-9,18.2c-1.9,4.4-3.4,9-4,13.7c-0.3,2.7-0.1,5.4-0.3,8.2c-0.2,3.3-1.1,6.6-1.5,9.9c-0.7,7-1.1,13.9-2.6,20.8
				c-1.4,6.3-0.5,12.8-2.1,19.2c-1.6,6.3-3.6,12.4-4.4,18.9c-0.9,7.2-1.2,14.5-1.2,21.8c1,0,2,0,3,0c-1.3-11.3-2.7-22.7-4-34
				c-0.9,0.3-1.9,0.5-2.8,0.8c2.6,5.2,2.2,11,7.2,14.5c5.2,3.6,11.2,5.7,17,8.2c7.1,3.1,15.3,4.2,22.9,5.6
				c8.1,1.5,16.2,2.3,24.3,3.1c8.2,0.8,16.5,1.4,24.8,1.4c6.8,0,13.3-0.4,19.3-3.9c6.2-3.6,11.7-8.7,17-13.5
				c5.3-4.7,10.4-9.9,14.7-15.5c4.6-6.1,8.5-14,11.3-21.1c1.9-4.8,2.8-9.1,5.9-13.3c2.5-3.3,4-7.1,6.3-10.5c1.1-1.6-1.5-3.1-2.6-1.5
				c-2.5,3.8-4.4,7.7-7.1,11.4c-2.1,2.8-3.1,5.7-4.1,9c-2.5,8-6.9,17-11.8,23.9c-5.3,7.4-12.3,13.6-19.2,19.5
				c-8.1,6.9-15.2,12.3-26.3,12.6c-19.4,0.4-39.4-1.8-58.4-5.7c-4.4-0.9-8.9-1.6-13.2-3.1c-3.6-1.2-6.7-3.4-10.3-4.6
				c-3.4-1.1-9.3-3.1-11.3-6.5c-1.1-1.8-1.1-4.6-1.8-6.6c-0.6-1.6-1.3-3.2-2.1-4.8c-0.6-1.3-3-0.7-2.8,0.8c1.3,11.3,2.7,22.7,4,34
				c0.2,1.9,3,2,3,0c0-11.9,0.9-23.5,4.2-35c1.3-4.5,2.4-8.8,2.7-13.5c0.2-3-0.1-6.2,0.4-9.2c0.4-2.5,1.3-4.8,1.6-7.3
				c1.3-10.6,2.3-21.1,3.1-31.7c0.8-11.6,7.8-20.9,12.4-31.2c1.7-3.8,2.6-8,3.7-12c1.4-5,7.7-8.2,12-11.1
				c8.4-5.7,16.3-12.3,24.6-18.3c3.9-2.8,7.8-6,12.5-7.4c5.5-1.7,11.8-0.8,17.5-0.8c5,0,10.4,0.5,15.4-0.3c2-0.3,3.6-1,5.5-1.7
				c3.5-1.4,6.1-1.2,9.7-1.1c6.2,0.3,12.6,0,18.5,2c6,2,10.5,6.9,15.1,11c4.7,4.3,9.6,8.3,14.3,12.5c3.2,2.8,8,6.2,9.1,10.5
				C411,209.3,413.9,208.5,413.4,206.6L413.4,206.6z"/>
		</g>
	</g>
	<path id="XMLID_1_" class="st5" d="M320,179.6c-1.3-5.5,0.7-11.3,3.4-16.3s6.2-9.6,8.4-14.8c3-7.1,3.6-15,3.4-22.7
		c-0.2-11-1.1-23.4,6.4-31.5c6.8-7.4,18-8.2,27.9-7.9c6.9,0.2,13.8,0.7,20.6,1.5c3.3,0.4,6.8,0.9,9.6,2.8c1.7,1.2,3,2.9,4.3,4.5
		c4.1,5.4,8.4,11,9.7,17.7c0.6,2.9,0.6,6,2.2,8.5c1.5,2.2,4,3.4,6.3,4.5c8.3,3.9,16.7,7.9,25,11.8c-5,3.6-10.6,6.3-16.5,8
		c7,20.1-1.9,44.5-20.2,55.3c-0.7,0.4-1.5,0.9-2.4,0.9c-1.3,0-2.4-1-3.3-2c-11.8-12.6-23.7-27.5-40.8-30.4
		c-15.6-2.6-31.5,5.9-47.1,3.3"/>
	<g id="XMLID_48_">
		<g id="XMLID_129_">
			<path id="XMLID_136_" d="M326.3,167.8c3.2-6.2,5.7-12.7,8.5-19.1c2.5-5.6,3-10.3,2.8-16.4c-0.4-13.6-2.6-32.6,11.6-39.9
				c6.4-3.3,13.6-3.5,20.6-2.8c3.5,0.4,7,0.9,10.5,0.9c3.6,0,7.3-0.5,10.9-0.3c8.8,0.6,14.9,6.2,19.5,13.4c2,3.2,2.4,7.1,2.7,10.7
				c0.3,3.5,1,7.1,1,10.6c0,1.9,3,1.9,3,0c0-0.7,0-1.3,0-2c-0.8,0.4-1.5,0.9-2.3,1.3c5.2,2.9,10.9,4.4,16.2,7.1
				c4.7,2.4,10,4.4,13.4,8.6c-0.1-0.6-0.2-1.2-0.2-1.8c-2.9,4.6-11.4,7.2-16.5,7.3c-1.9,0-1.9,3,0,3c6.4-0.1,15.5-3.2,19.1-8.8
				c0.4-0.6,0.2-1.3-0.2-1.8c-7.1-8.9-20.7-10.9-30.1-16.2c-1-0.5-2.3,0.1-2.3,1.3c0,0.7,0,1.3,0,2c1,0,2,0,3,0
				c-0.1-4.2-0.8-8.4-1.2-12.6c-0.3-2.9-0.8-5.9-2-8.6c-2.8-5.9-8.1-11.8-14.1-14.5c-7-3.1-14.2-1.6-21.6-1.8
				c-8.2-0.2-15.9-2.2-24-0.2c-5.7,1.4-10.9,4.4-14.7,9c-4.5,5.6-4.7,12.7-5.3,19.6c-0.7,8.6,1.6,18.2-0.6,26.5
				c-0.9,3.4-2.8,6.7-4.1,9.9c-2,4.7-3.8,9.4-6.2,13.9C322.8,168,325.4,169.5,326.3,167.8L326.3,167.8z"/>
		</g>
	</g>
	<g id="XMLID_2_">
		<g id="XMLID_121_">
			<path id="XMLID_126_" d="M402.4,209.4c3-0.5,5.8-2.1,8.5-3.3c3.5-1.6,7.2-3.2,10.4-5.4c3.8-2.6,8.1-7.6,9.8-11.9
				c1.2-3,1.1-6.5,1.4-9.6c0.4-3.9,1.1-7.9,1.6-11.8c0.8-6.7,0.9-13.7-2.1-20c-1.7-3.6-15-18.8-17.7-8.6c-1,3.9,0.8,8.8,1.3,12.7
				c0.5,4.1,0.7,10.5,3.4,13.9c0.8,1,2.6,0.2,2.6-1.1c-0.2-3.2-1.7-5.6-3.3-8.3c-2.1-3.6-4-7.4-6.1-11c-1.6-2.7-4.2-7.8-8.2-6.5
				c-4.3,1.4-3.8,8.1-3.4,11.5c0.7,5.8,1.1,12.7,4,17.9c0.7,1.3,2.8,0.7,2.8-0.8c0-3.9-8.6-26.5-14.7-18.8c-2.2,2.8-1.5,8.8-1,12
				c1.1,7.2,5.5,13.2,5.8,20.6c0.1,1.9,3.1,1.9,3,0c-0.3-8.5-5.6-15.6-6-24c-0.1-1.2-0.1-2.3,0-3.5c0.2-3.3,2.6-2.8,4.2-0.6
				c2.5,3.4,5.8,10.1,5.7,14.3c0.9-0.3,1.9-0.5,2.8-0.8c-2-3.7-2.2-8.1-2.9-12.2c-0.5-2.9-2.4-9.9,0.5-11.8c2.1-1.3,3,1,4.1,2.8
				c0.8,1.4,1.6,2.8,2.4,4.2c2.4,4.3,6.9,10,7.3,14.9c0.9-0.4,1.7-0.7,2.6-1.1c-2-2.5-2.2-8.9-2.5-12c-0.4-3-1.2-6.1-1.4-9.1
				c-0.5-6.6,6.5-0.9,8.5,1.2c4.3,4.6,5.9,10.4,5.9,16.6c0,5.2-0.9,10.4-1.6,15.5c-0.8,6.1-0.7,11.3-4.6,16.4
				c-2.8,3.7-5.5,6.3-9.7,8.5c-4.3,2.2-9.4,5.3-14.1,6.1C399.7,206.9,400.5,209.8,402.4,209.4L402.4,209.4z"/>
		</g>
	</g>
	<g id="XMLID_25_">
		<path id="XMLID_100_" class="st0" d="M202,274c0-10.7,0.4-21.3,1.3-32c0.4-4.7,1.2-9.3,1.7-14c0.2-2-0.7-4.9,0.5-6.6
			c3-4,16.5-0.4,20.1,0.2c16.4,2.6,33,3.1,49.5,4.6c7.1,0.6,14.4,1.6,21.3,3.4c5.4,1.4,9.9,3.2,15.5,3.5c3,0.1,6,0.6,8.9,1.2
			c2.1,0.4,5.8,0.1,7.3,1.9c1.3,1.5,0.9,4.1,0.9,5.9c0,3,0.3,6.1-0.1,9.1c-0.7,4.6-2.5,9.2-3.4,13.8c-1.6,8.8-2.4,17.6-3,26.5
			c-0.6,8.8-0.5,17.7-0.4,26.5c0.1,9.1-0.7,18-1.4,27.1c-1.2,14.2-2,28.6-1.7,42.8c0.3,11.2,2.4,22.2,3,33.3
			c0.3,4.1,0.9,8.1,1.6,12.1c0.1,0.7,0.8,2.7,0.5,3.6c-0.9,2.4-4.9,1.7-6.7,1.5c-20.2-1.9-40.5-7.2-60.5-11.1
			c-6.7-1.3-13.1-3.5-19.7-5.2c-5.9-1.5-12.5-1.9-18.2-4.2c-4.6-1.8-9.1-3.9-13.5-6c-1.5-0.7-3.3-0.7-4.5-2
			c-3.1-3.3-1.8-10.8-2.1-14.9c-0.5-8.3,1.4-16.3,0.1-24.5c-1.3-8-1.8-16.2-1-24.2c0.7-7.2-2.4-14.2-1.5-21.4
			c1-7.8,1.3-15.7,2.1-23.6c2-19.7,2,0.1,2-19.7"/>
	</g>
	<g id="XMLID_7_">
		<g id="XMLID_109_">
			<path id="XMLID_114_" d="M326,172.5c-5.6,0-11.2,3.1-16.2,5.4c-5.9,2.8-11.2,6.1-16.5,9.8c-1.6,1.1-0.1,3.7,1.5,2.6
				c4.3-3,8.5-6,13.2-8.3c5.3-2.6,12-6.6,18-6.5C327.9,175.5,327.9,172.5,326,172.5L326,172.5z"/>
		</g>
	</g>
	<g id="XMLID_49_">
		<g id="XMLID_101_">
			<path id="XMLID_105_" d="M550.4,63.6c-19.1-7-40.1-5.5-60.1-6c-10.6-0.3-21.1-2.2-31.8-2.2c-10.7,0-21.5,0-32.2,0
				c-20.8,0-40.4,4.3-60.7,8.7c-10.3,2.3-20.8,3.6-31.2,5.5c-10.3,1.9-21.1,2.9-31,6.6c-10,3.7-19.4,8.9-29.1,13.5
				c-3.9,1.8-7.4,3.3-11.4,4.5c-1.8,0.6-4.8,1.2-5.6,3.1c-0.3,0.7-0.2,1.6,0.5,2.1c4,2.3,7.3,0.5,11.3-0.9c5.2-1.8,9.9-4.6,15.2-6.2
				c12-3.7,23.9-7.3,35.9-11.1c6-1.9,12.1-2.1,18.3-2.8c6.3-0.8,12.1-1.6,18.4-1.6c5.8,0,11.6-1.1,17.5-1.1c6.3,0,12.5,0.2,18.8,0.2
				c12.6-0.1,25.2-1.4,37.8-1.4c13-0.1,25.5,4.7,38.3,6.8c12.3,2,24.6,3.6,36.8,6.4c6,1.4,11,3.6,16.6,6.2
				c5.3,2.4,10.4,3.5,13.8,8.5c6.4,9.2,12.4,18.9,19.7,27.5c3.5,4.1,8.2,6.2,12.2,9.7c3.9,3.5,7.4,7.1,11.9,10.1
				c18.1,12,38.6,17.5,60.2,16c18.6-1.2,36.9-9.1,46-26.2c10.4-19.4,5.4-43.1-6.5-60.6c-5.9-8.6-12.6-17.2-22.6-21.1
				c-12.3-4.8-26.4-5-39.4-6.4c-12.7-1.4-25.6-4.8-38.4-2.8c-6.5,1-12.3,2.4-18.5,4.6c-2.8,1-6,1.9-8.5,3.6
				c-2.1,1.5-3.7,3.6-5.5,5.4c-1.3,1.4,0.8,3.5,2.1,2.1c1.7-1.7,3.2-3.6,5.2-5c2.7-1.9,6.1-2.8,9.2-3.9c5.3-1.9,10.4-2.9,15.9-3.8
				c11.7-1.9,23.1,0.9,34.7,2.3c11.4,1.4,22.9,1.9,34.1,4.4c11.9,2.6,19.4,8.8,26.5,18.5c13.4,18.2,20.4,43.7,7.3,64.1
				c-11.5,17.9-33.1,22.8-53.1,21.9c-22-0.9-42-9.7-58-24.7c-3.2-3-7.3-4.9-10.5-7.9c-4.4-4.1-7.7-9.6-11.2-14.4
				c-3.2-4.3-6.3-8.6-9.2-13c-2.3-3.7-3.9-6.2-7.9-8.1c-8.6-4.1-17.1-7.9-26.4-10c-11.3-2.6-22.6-3.9-34-5.8
				c-5.3-0.9-10.6-1.6-15.8-2.9c-5.3-1.4-10.5-3.1-16-3.8c-11.3-1.5-23.4-0.4-34.7,0.3c-12.7,0.8-25.5-0.2-38.2,0.6
				c-5.7,0.4-11.4,0.5-17,0.8c-6.2,0.3-12.4,1.8-18.6,2.4c-12.2,1.2-23.9,6.2-35.6,9.7c-5.7,1.7-11.6,3.1-17.2,5.1
				c-2.6,1-5,2.5-7.5,3.6c-3,1.3-8.9,4.1-11.9,2.4c0.2,0.7,0.4,1.4,0.5,2.1c0.8-1.7,6.2-2.4,7.8-2.9c3.2-1,6.1-2.7,9.1-4.1
				c9.1-4.3,18.1-9.2,27.5-12.8c9.3-3.5,19.4-4.5,29.2-6.2c9.5-1.7,19-3.3,28.6-5c20.1-3.4,39.1-9.2,59.6-9.5
				c20.4-0.3,40.7-0.1,61,1.8c22.4,2,45.5-1.6,67.1,6.4C551.4,67.1,552.2,64.2,550.4,63.6L550.4,63.6z"/>
		</g>
	</g>
	<g id="XMLID_50_">
		<path id="XMLID_82_" d="M591.7,89.7c0.1-2.2,1.5-2.9,2.7-4.6c1.3-2,2.4-3,4.3-4.3c1.8-1.2,3.5-2.6,5.3-3.8
			c3.6-2.3,7.7-3.5,11.8-4.6c1.6-0.5,4-1.8,5.7-1.9c1.9-0.1,2.2,2,2.2,3.6c0,1.7-0.7,3.3-0.7,5c0,1.8,0.6,3.6-1.8,3.7
			c-3.1,0.1-6.6-1.2-9.7-0.3c-1.8,0.5-3,2.1-4.8,2.5c-1.4,0.3-2.1,0.7-3.3,1.4c-4.4,2.3-9.9,3.3-13.7,6.6"/>
	</g>
	<g id="XMLID_52_">
		<g id="XMLID_88_">
			<path id="XMLID_95_" d="M623.9,71.9c-2.2,2.7-2.7,6.2-4.2,9.3c-2,4.4-4.8,8.5-7.2,12.7c-2.4,4.1-4.6,8.3-6.7,12.6
				c-0.8,1.5-1.7,3.1-2.3,4.7c-0.7,1.9-0.6,3.9-1.9,5.6c-1.1,1.6,1.5,3.1,2.6,1.5c0.9-1.3,1.1-2.2,1.5-3.6c0.7-2.4,1.6-4.5,2.7-6.7
				c1.8-3.7,3.7-7.3,5.7-10.9c2.2-3.9,4.6-7.8,6.8-11.8c1.9-3.4,2.7-8.4,5.1-11.4C627.3,72.6,625.2,70.4,623.9,71.9L623.9,71.9z"/>
		</g>
	</g>
	<g id="XMLID_55_">
		<path id="XMLID_79_" d="M605.7,107c0,3.3,0.1,6.6,0,9.9c0,2.8,1.6,4.5,4.3,5.2c2.4,0.6,5.1,1.6,7.6,0.6c3.5-1.4,6.2-4.3,6.6-8.1
			c0.3-2.6-0.4-7-3.3-7.6c-2.3-0.5-5.8-0.1-8,0.5c-3.5,1-5.8,2.2-7.1,5.9c-0.7,2-1.4,3.5-1.4,5.7"/>
	</g>
	<g id="XMLID_57_">
		<path id="XMLID_74_" class="st2" d="M569,346c-2.5,7.1-1.2,16.7-0.5,24c0.9,10.5,2,20.8,3.6,31.3c1.4,9.2,2.2,18.5,1.3,27.8
			c-0.9,8.5-2.7,17-3.2,25.5c-0.3,4.9-0.1,9.8-0.1,14.7c0,4.2-0.5,8.7-0.1,12.9c0.3,2.7,2.3,6,4.7,7.4c2.4,1.3,8.5,0.6,10.4-1.5
			c1.5-1.7,1.9-4.8,2.4-6.9c1-3.6,1.8-7.3,2.5-10.9c2-9.7,2.5-19.6,3.5-29.5c1.7-16,0.5-32.6,0.5-48.7c0-7.5,0-15,0-22.4
			c0-4.7,0.7-10-0.2-14.6c-0.7-3.2-0.8-6.1-0.8-9.4c0-2.9,1.3-9.3-1-11.6"/>
	</g>
	<g id="XMLID_59_">
		<path id="XMLID_72_" class="st2" d="M681,270c0,7,0,14,0,21c0,9.5,1.1,19,1,28.5c-0.1,18.4,0,36.8,0,55.2c0,5,0,10.1,0,15.1
			c0,2.8,0,5.5,0,8.3c0,1.9-0.5,4.2,0,6c0.9,3.2,4.7,3.1,7.5,4c4.3,1.5,6.7-0.2,8.6-4.4c2.4-5.5,1.2-11.6,0.9-17.3
			c-0.3-7.2,0.1-14.4,0.1-21.6c-0.1-5.9-1-11.8-1.1-17.7c-0.1-4.8,0-9.6,0-14.4c-0.1-10,1.5-19.9,1-30c-0.5-9.5-3.8-19.2-3-28.8
			c0.3-2.9,1.3-5.7,1.8-8.5c0.5-2.4,0.2-4.9,0.2-7.3"/>
	</g>
	<g id="XMLID_63_">
		<path id="XMLID_42_" class="st2" d="M137,180c0,7-0.2,14,0,21c0.2,7.8,2.2,15.3,2,23.2c-0.3,19.2,4.4,37.7,7.2,56.4
			c1.4,9.4,5.5,18.3,5.8,27.9c0.1,5.4,2.6,9.9,8.5,9.5c2.9-0.2,5.7-1,6.8-3.9c1-2.5,0.6-5.5,0.9-8.1c0.4-3.4,1.1-6.7,1.5-10
			c0.8-5.6,1.2-11,1.3-16.7c0.1-6.3-1.7-12.2-2.8-18.4c-2.6-15.6-5.2-31.2-7.5-46.7c-1-7.1-3.5-14.1-4.8-21.2"/>
	</g>
	<path id="XMLID_135_" class="st6" d="M507,177.3c0.2,11.4,0.5,23.4-4.7,33.6c-1.1,2.2-2.5,4.3-4.4,5.8c-3.8,2.9-8.9,2.9-13.7,2.8
		c-3.2-0.1-6.6-0.3-9-2.3c-2.8-2.3-3.4-6.3-3.8-9.8c-0.5-4-0.9-7.9-1.4-11.9c-0.1-0.8-2.5-5-3.1-4.5c-2.1,2.1-7,4.1-7.6,3.8
		c-2.7-1.4-1.3-4-1.8-6.2c-0.5-2.9,0.4-3.3,1.1-5.1c0.7-1.7,2.1-3.2,3.4-4.5c1.8-1.7,4-3.6,6.4-3.2c1.3,0.2,2.3,0.9,3.5,1.5
		c1.6,0.8,3.4,1.2,5.2,1.4c9.9,1.5,20.2,0.2,29.4-3.8c0.6,1,0.8,2.2,0.8,3.4"/>
	<g id="XMLID_110_">
		<g id="XMLID_65_">
			<path id="XMLID_71_" d="M458.5,186c-0.1-1.7,2.3-4.5,3.4-5.7c1-1.1,2.3-1.4,3.6-1.9c1.2-0.5,2.2-1.4,3.5-1.3c1.9,0,1.9-3,0-3
				s-3.3,1.1-5.1,1.7c-1.6,0.6-3,1-4.1,2.3c-1,1.1-1.8,2.5-2.7,3.7c-1,1.3-1.8,2.6-1.7,4.3C455.6,187.9,458.6,187.9,458.5,186
				L458.5,186z"/>
		</g>
	</g>
	<g id="XMLID_118_">
		<path id="XMLID_60_" class="st7" d="M469.5,175.5c0.6-3.4,5.5-4.4,8.4-4.9c1.6-0.2,3.1-0.2,4.6-0.5c1.7-0.3,3.7-0.6,5.4-0.6
			c4.1-0.2,8.4-0.1,12.5,0c2.1,0.1,6.6,1.7,6.1,4.5c-0.3,1.5-2.7,2.5-3.8,3c-1.8,0.8-4.1,0.7-6,1.1c-2,0.4-4,0.2-6,0.5
			c-2.4,0.3-4.7,0.4-7.1,0.4s-4.9,0.1-7.3,0c-1.1-0.1-2.5-0.5-3.4-1.2c-0.7-0.6-2.7-3.1-1.3-3.8"/>
		<g id="XMLID_43_">
			<path id="XMLID_58_" d="M470.9,175.9c1.5-4.6,11.7-4.5,15.6-4.8c2.8-0.2,5.7-0.2,8.5-0.2c2.3,0,6.1-0.5,8.2,0.9
				c5.6,3.9-9.9,5.1-11.9,5.3c-2.9,0.2-5.8,0.4-8.7,0.5c-0.9,0-12,0.2-9.8-2.8c1.1-1.6-1.5-3.1-2.6-1.5c-1.5,2,0.1,4.5,1.8,5.8
				c3.6,2.7,10,1.5,14.1,1.4c4.7-0.2,20.9,0.7,21.8-6.4c1-7.9-14.6-6.2-18.3-6.1c-4.7,0.1-9.7,0.6-14.3,1.7
				c-3.3,0.8-6.2,2.2-7.3,5.5C467.4,176.9,470.3,177.7,470.9,175.9L470.9,175.9z"/>
		</g>
	</g>
	<g id="XMLID_133_">
		<g id="XMLID_34_">
			<path id="XMLID_41_" d="M506,173c0,6.5-0.1,13,0,19.5c0,3.3,0,6.4-0.9,9.6c-0.9,3.1-2.4,5.4-3.8,8.3c-1.1,2.2-1.1,5.1-3,6.5
				c-2.2,1.7-6.1,1.7-8.7,1.6c-2.8,0-5.9,0.5-8.5-0.3c-2.9-0.8-4.5-3.2-6.5-5.3c-1.3-1.4-3.4,0.7-2.1,2.1c1.9,2,3.6,4.4,6.2,5.7
				c2.7,1.3,5.7,0.8,8.7,0.7c4.1,0,11.7,0.7,14.5-3.2c0.6-0.8,0.7-2,1-2.9c0.7-2.3,1.8-4.3,2.9-6.4c1.5-2.8,2.6-5.9,3.1-9
				c0.7-3.7,0.2-7.6,0.2-11.3c0-5.2,0-10.4,0-15.6C509,171.1,506,171.1,506,173L506,173z"/>
		</g>
	</g>
	<path id="XMLID_85_" class="st8" d="M455.8,207.5c-5-3.7-8.6-8.8-12.2-13.9c-1.1-1.5-2.1-3-3.2-4.5c-0.2-0.3-0.4-0.6-0.3-0.9
		c0-0.3,0.3-0.5,0.5-0.7c7.2-6.3,16.3-10.5,25.8-11.8c-4.8,2.1-4.8,2.1-7,3.7c-1.6,1.1-2.6,2.7-3.5,4.4c-1.6,3.1,4.2,6.6,2.1,9.4
		c-0.9,1.2-5,4.1-6.3,4.9s-2.4,2.3-2,3.8"/>
	<path id="XMLID_62_" class="st9" d="M448,195.5c2.4-1.2,4.2-3.5,6.4-5c1-0.7,2-1.4,3.1-1.8c1-0.3,2.1-0.4,3.2-0.5
		c2.2-0.2,4.4-0.7,6.6-0.7c1.9,0,3.2-0.1,5-0.8c1.7-0.7,3.3-1.6,5-2.2c0.8-0.3,1.5-0.7,2.3-1.1c2-1.2,3.8-2,6.2-2.3
		c1.7-0.2,3.3-0.3,4.9-0.3c1.5,0,2.3-0.1,2.6,1.5c0.3,1.4,0.7,2.8,0.9,4.2c0.1,0.9,0.2,1.9-0.5,2.6c-0.7,0.7-1.7,1.1-2.4,1.8
		c-1,0.9-1.9,1.6-3.1,2.2c-2.2,1.2-4.5,2.4-6.9,3.3c-0.9,0.3-1.9,0.8-2.8,1.1c-1,0.3-2,0.5-3.1,0.8c-1.2,0.4-2.5,0.4-3.7,0.6
		c-0.4,0.1-2.2,0.7-1.6,1.3c0.2-0.1,0.5-0.1,0.8-0.1c0.7,1.6,0.5,3.5,0.5,5.2c0,0.8,0.1,1.7,0,2.5c-0.2,1.4-0.5,2.7-0.5,4.1
		c0,0.6,0.2,1,0.4,1.6c0.3,1.1-0.2,1.5-0.8,2.3c-0.5,0.6-0.8,1.2-1.3,1.8c-0.5,0.5-0.9,0.9-1.3,1.5c-0.5,0.9-1.3,1-2,1.7"/>
	<g id="XMLID_64_">
		<g id="XMLID_23_">
			<path id="XMLID_29_" d="M440.4,190.4c2-4.9,8.4-7.6,12.6-10.2c4.7-2.9,10.2-4.6,15.7-4.4c1.9,0.1,1.9-2.9,0-3
				c-6.8-0.2-12.9,2.1-18.5,5.6c-4.9,3.1-10.4,5.5-12.7,11.2C436.8,191.4,439.7,192.2,440.4,190.4L440.4,190.4z"/>
		</g>
	</g>
	<g id="XMLID_40_">
		<path id="XMLID_16_" class="st0" d="M199.7,401.7c-0.1,7,1.9,12.9,3.9,19.6c1.3,4.5,1.7,9.2,2.8,13.7c0.9,3.8,2,7.6,2.8,11.4
			c1.6,8.5,2.2,17.3,2.6,25.9c0.5,11.2,1.3,22.3,1.8,33.4c0.4,9.1,1,18,2,27.1c0.4,3.4-0.3,8.7,2.1,11.4c1.8,2,5.2,2.5,7.7,3.5
			c0.9,0.4,1.7,0.9,2.5,1.4c1.9,0.9,2.2,0.7,3-1.3c1.4-3.4,1.5-7.1,1.5-10.7c0-8.7,0.7-17.3,0.7-26c0-10.4-0.9-20.7-0.7-31.1
			c0.1-5.5,1-10.9,1.3-16.4c0.2-4.5-0.3-9.4-1.2-13.9c-0.7-3.7-2-7.2-2.8-10.9c-0.8-4-1.5-8-2.1-12c-0.8-4.8-1.3-10-3.2-14.6
			c-0.4-0.9-0.7-2-1.1-2.8c-1-2-2.5-1.6-4.7-1.9c-5.6-0.8-11.1-2.9-16.8-3.2"/>
	</g>
	<g id="XMLID_51_">
		<path id="XMLID_14_" class="st0" d="M307,426.3c0,6.7,0,13.4,0,20.1c0,3.8,0.6,7.6,0.7,11.4c0.1,3.9,0,7.7,0,11.6
			c0,8.6-0.5,17-0.7,25.6c-0.2,5.3-0.1,10.6,1.3,15.7c1.2,4.3-2.5,12-1.4,16.3c1.4,5.3,1.7,10.3,2.6,15.7c0.7,4,0.5,8.1,0.5,12.2
			c0,1.5,0,3,0.5,4.4c0.3,0.9,0.8,1.5,0.9,2.4c0.3,2.1,0.4,3.5,1.6,5.4c1.5,2.2,2.1,4,5,4.3c1.2,0.1,8.8,1.1,10,1
			c1.6-0.2,1.7-0.6,2.1-2c1.6-5.8,1-16,1-22.1c0-5.7-0.1-11.5,0-17.2c0-2.8,0.5-5.5,0.6-8.3c0.3-4.2,0.1-8.5,0.1-12.7
			c0-7.7,0.3-15.3-1.3-22.9c-0.7-3.3,0.1-4.8-0.1-9.6c-0.2-4.3,0-9.1-0.4-13.4c-0.3-2.9-1.1-5.8-1.2-8.8c-0.1-2.3,0-4.7,0-7
			c0-3.2,0.7-6.1,0.7-9.2c0-3-4.3-6.8-6.2-9.4c-1.4-1.9-7-3.6-8.7-1.4"/>
	</g>
</g>
</svg>
