<?xml version="1.0" encoding="utf-8"?>
<!-- Generator: Adobe Illustrator 19.0.0, SVG Export Plug-In . SVG Version: 6.00 Build 0)  -->
<svg version="1.1" id="Calque_1" xmlns="http://www.w3.org/2000/svg" xmlns:xlink="http://www.w3.org/1999/xlink" x="0px" y="0px"
	 width="800px" height="600px" viewBox="0 0 800 600" style="enable-background:new 0 0 800 600;" xml:space="preserve">
<style type="text/css">
	.st0{fill:#9FBFA4;}
	.st1{fill:#FFFFFF;}
	.st2{fill:#352814;}
	.st3{fill:#916741;stroke:#000000;stroke-miterlimit:10;}
	.st4{fill:#FFD5B0;}
	.st5{fill:#DBBA2E;}
</style>
<g id="Calque_2">
	<g id="XMLID_239_">
		<path id="XMLID_617_" class="st0" d="M606.5,479.8c-2.1,4.3-6.3,4.5-10.1,6.4c-4.2,2-7.8,4.8-12.3,6.1c-11,3.2-23.8,6.6-35.2,6.9
			c-15.8,0.5-32.5,0.7-47.9,4.2c-19.7,4.5-41.3,6.3-61.4,6.6c-42.2,0.7-84.3-2.8-126.4-4.7c-38.1-1.7-79.1-2.1-112.9-21.5
			c-16.8-9.7-32.8-20.7-50-29.7c-11.9-6.3-25.9-14.7-35.5-24.4c-7.6-7.7-10.6-19-14.9-28.8c-5.6-12.7-9.6-25.2-11.3-39
			c-1.6-12-0.6-24.5-0.6-36.5c0-11.5-0.7-21.3,4.2-32c4.9-10.6,8.3-21.6,14.5-31.6c6.7-10.9,12.3-26.8,22.4-35
			c4.8-3.9,10.4-6.4,15-10.8c6.9-6.7,13.2-13.4,21.2-19c11.1-7.7,22.8-14.7,34.4-21.6c13.8-8.3,26.9-17.6,40.9-25.6
			c20.8-11.8,41.3-24.4,62.2-36c18.5-10.2,38.2-15.5,58.5-20.9c20.5-5.4,42.1-5.5,63.1-6.9c12.2-0.8,24.5,0,36.7-0.9
			c12.2-1,24-1.8,36.2-1.7c16.5,0.1,32.9,0,49.4,0c8.7,0,17.5-0.4,26.2-0.2c9.4,0.2,18.2,3.2,27.3,5.5c24,6.1,48.6,14.5,69.8,27.9
			c7.4,4.7,13.8,11.1,20.1,17.1c6.1,5.8,9.2,14.2,15.2,20.4c28.2,29.6,32.1,74.5,32.1,113.5c0,12.2,0.3,24-2.6,36
			c-3.2,13.6-10.8,26.9-15.6,40c-5.6,15.6-12.4,32.1-21.5,46c-6.9,10.6-11.7,21.8-19.1,32.1c-7.1,9.9-14.9,18.1-24.8,25.5
			c-4.3,3.2-9.6,4.5-13.8,7.8c-4,3.2-7.8,6.9-11.9,10.1c-5.7,4.6-10.5,9.8-17.1,13.4c-5.1,2.9-10.4,5.2-15.2,8.7
			c-6.2,4.5-13.5,8.9-19.2,13.9"/>
		<g id="XMLID_612_">
			<path id="XMLID_3_" d="M605.2,479c-1.9,3.2-4.9,3.8-8.1,5.1c-2.6,1.1-5,2.7-7.5,4c-7.1,3.8-15.5,5.5-23.4,7.1
				c-14.9,3.2-30.1,2.3-45.2,3.6c-14.9,1.3-29.3,5.2-44.1,7.1c-15.1,1.9-30.2,2.5-45.4,2.6c-31.6,0.1-63.2-1.9-94.8-3.6
				c-29-1.6-58.5-1.3-87.2-6.1c-13.6-2.3-27.1-5.9-39.7-11.7c-13.2-6.2-25.4-14.6-37.8-22.2c-22.6-13.9-53.7-24.5-65.1-50.4
				c-5.5-12.6-11.1-25.7-14.5-39.1c-3.9-15.7-3.2-31.2-3-47.1c0.1-6.7-0.3-13.4,0.4-20c0.8-8.3,4.4-15.4,7.5-22.9
				c5.3-12.7,11.8-24.5,18.1-36.7c2.5-4.8,5.1-9.6,8.3-14c4.6-6.2,10.9-9.6,17.1-14.1c5.3-3.8,9.6-8.9,14.4-13.4
				c5.7-5.3,11.8-9.8,18.3-14c12.4-8.1,25.3-15.4,37.8-23.4c12.6-8.1,25.3-16,38.3-23.5c26.9-15.6,53.2-33.7,82.9-43.5
				c13.6-4.5,27.7-8.7,41.8-11.1c15.3-2.6,30.8-3,46.2-3.9c15.4-0.9,30.8-0.5,46.1-1.6C482,85,497.4,85,512.9,85
				c15.6,0,31.1,0,46.7-0.2c8-0.1,15.9-0.3,23.8,1.3c7.7,1.6,15.3,3.8,22.9,5.9c27.8,7.6,56.1,17.9,77.4,38c4.8,4.5,9,9,12.5,14.6
				s7.6,10.2,11.8,15.2c8.2,9.8,14.1,21.4,18.1,33.4c7.9,23.4,9.4,48.5,9.5,73c0,16.1,0,31.9-5.6,47.2
				c-4.9,13.4-10.9,26.4-16.1,39.6c-5.3,13.7-12,26.4-19.7,38.9c-7.6,12.3-13.5,25.4-22.9,36.6c-4.1,4.9-8.7,9.5-13.6,13.6
				c-5.4,4.6-11.6,6.9-17.4,10.7c-11.3,7.6-19.7,18.8-31.8,25.3c-11.6,6.3-23.1,13.3-33.2,22c-1.5,1.3,0.7,3.4,2.1,2.1
				c5.7-4.9,12.1-8.9,18.2-13.2c6.2-4.3,13.3-7.1,19.5-11.4c11.7-8.1,20.7-19.6,33.6-25.9c25.4-12.6,37.2-40.9,51.3-63.5
				c7.7-12.3,13.4-25.7,18.5-39.3c5.3-14.1,12.7-27.8,16.7-42.3c3.9-14.3,3.4-29.4,3.3-44.1c-0.1-12.9-0.8-25.8-2.5-38.6
				c-3.3-24.2-10.8-48.6-27-67.4c-4.7-5.4-8.5-10.9-12.5-16.8c-3.7-5.5-8.6-9.8-13.4-14.3c-10.8-9.9-23.4-16.9-36.8-22.7
				c-13.3-5.8-27.1-10.3-41.1-14.1c-7.3-2-14.7-4.2-22.1-5.6c-7.5-1.5-15.1-1.4-22.7-1.3c-32.6,0.4-65.2-0.8-97.7,1.7
				c-16.2,1.3-32.6,0.8-48.8,1.7c-15.4,0.8-30.9,1.6-46,4.7c-14.5,3-29.1,7.3-43,12.4c-14.4,5.3-27.6,12.7-40.9,20.4
				c-14.3,8.3-28.5,16.8-42.8,25c-13.7,7.9-26.7,16.8-40.2,25.1c-13.1,8-26.7,15.5-39,24.7c-5.8,4.3-10.9,9.4-16.1,14.5
				c-5.2,5.1-11.1,8.5-16.8,12.9c-9.7,7.4-14.7,19.1-20.2,29.7c-3.2,6.1-6.8,11.8-9.6,18.1c-3.2,7.2-6.3,14.6-9.3,21.9
				c-5.3,12.8-3.5,27.2-3.9,40.7c-0.4,15.5,0.1,30.4,4.4,45.5c3.7,13,9,26.2,14.9,38.4c5.8,11.9,16.3,19.9,27.2,26.9
				c12.4,8,25.8,14.5,38.4,22.2c13.1,8,26,17,40.1,23.1c25.6,11.1,54,13.5,81.6,14.8c32,1.5,64.1,3.4,96.1,4.7
				c32.2,1.3,64.8,2.1,96.7-2.9c7.6-1.2,15.1-3.1,22.7-4.4c8.4-1.4,17-1.9,25.5-2.3c7.5-0.3,15.2-0.1,22.7-1.1
				c7.1-0.9,14-2.5,20.9-4.4s12.3-4.6,18.7-7.7c4.4-2.2,8.8-2.8,11.4-7.3C608.8,478.9,606.2,477.4,605.2,479L605.2,479z"/>
		</g>
	</g>
	<g id="XMLID_17_">
		<path id="XMLID_78_" class="st1" d="M339,360.3c-11.8,0.2-23.6-2.6-35-5.5c-3.8-1-8.4-1.9-10-5.9c-0.9-2.1-1.2-4.5-1.6-6.8
			c-0.6-3.2-1.3-6.5-2-9.7c-0.9-4.5-1.6-8.7,0.2-13c0.9-2.2-12.6,0.2-12.5-2.1c0.2-3.3-1.8-2,0-5c1.2-2.1,14.1-7.2,15.1-9.5
			c0.4-0.9,7.8-6.3,8.5-7c1.3-1.2,2.2-1.8,4.3-3.2c2.7-1.9,3.1-2.7,5.1-4.4c1-0.8,1.2-1.3,2.2-1.9c1.9-1.1,3.2-1.3,4-2.2
			c0.7-0.8,1.1-0.7,3.4-2.1c1-0.6,0.5-1.6,1-2.8c-0.5-0.7-5.7-2.2-6.5-2.5l-5.4-3.4c-1.4-1.9-4.6-3.7-5.5-5.8
			c-0.4-0.9,0.3-4-0.1-4.9c-0.3-0.6,1.4-1.4,1.2-2.1c-0.7-2.2,1.6-4.3,2.8-5.9c1.9-2.4,4.1-4.4,5.3-7.3c0.5-1.2,0.9-2,1.6-3
			c0.5-0.8,0.7-1.8,1.3-2.6c1-1.3,2.4-2.4,3.6-3.5c0.9-0.9,1.5-1.8,2.3-2.7c1-1.1,1.9-1,3.1-1.8c0.9-0.6,1.5-1.3,2.5-1.8
			c4.8-2.7,9.8-2.7,15-3.9c3.6-0.9,7.4-1.2,10.9-2.1c1.9-0.5,3.6-1.6,5.3-2.6c6.5-3.7,13.1-7.3,19.9-10.5c9.2-4.3,13.5-4.8,25.1-9.1
			c2.3-0.8,8.9-3.3,11.2-3.9c2.6-0.7,15.7-4,18.2-4.8c4-1.3,2.2,5.8,2.2,17.1l12.3,3.7c2.3,1,16.1,2.6,18.5,2.4
			c10.3-0.7,12.3-0.9,19.3-1.2c3.3-0.1,26-23.7,27-20.5c1.4,4.3,9.4,17,10.2,21.4c0.7,3.6-1.3,12.5-0.6,16.1
			c0.9,5.4-1.4,15.9,0,21.2c1,3.8,2,12.6,2.9,16.4c0.7,3.2,2.1,6.1,3.4,9.1c1.5,3.3,5.2,8.4,5.2,12c0,2.7-0.5,5.3-0.5,8
			c0,3.7,0,7.1-2.1,10.4c-1.2,2-3,3.7-4.7,5.4c-1.5,1.6-3.6,2.5-5.2,4c-1.3,1.2-2.8,2.4-4,3.8c-1,1.1-2,1.6-3.2,2.4
			c-2.1,1.4-4,2.9-6.2,4c-1.9,1-10.5,2.3-12.7,2.5c-4.7,0.4-9.3,2.2-13.9,0.7c-3.1-1-5.5-2.2-8-4.4c-1.9-1.6-1.1,2-2.8,0.2
			c-1.2-1.2-3.3,1.2-4.7,0.1c-1.1-0.8-2.6-1.2-3.9-1.7c-0.7-0.2-2-1.1-2.7-1c-0.8,0.1-1.1,0.8-1.5,1.4c-0.8,1.3-1.6,2.6-2.6,3.7
			c-4.4,4.9-13.5-1.9-19.7-0.7c-3.3,0.6-6.6,0.6-9.8,1c-2.4,0.3-4.4,1.5-6.8,2c-5,0.9-10,1.5-14.9,2.6c-2.3,0.5-5.5,2.2-8,1.9"/>
	</g>
	<g id="XMLID_24_">
		<path id="XMLID_569_" class="st2" d="M617,207.8c-0.3,3.1-1.3,5.2-3.7,7.2c-1.9,1.6-4.5,3.3-5.7,5.4c-1.2,2-1.8,4.4-3.2,6.2
			c-1,1.2-2.3,2-3.2,3.3c-1.1,1.5-1.9,3.1-3,4.6c-1.8,2.4-3.3,5.3-5.5,7.4c-1.9,1.8-4.5,2.3-6.4,4.1c-2.2,2-4.1,4.2-6.6,5.9
			c-3,2.1-6.5,3.8-9.2,6.1c-1.6,1.4-3.1,2.6-4.8,3.8s-3,2.7-4.6,4c-1.2,1-2.7,1.8-4,2.5c-1.2,0.7-3.3,1.4-4.7,1.5
			c-1.9,0.2-3.6-0.9-5.4-1.5c-1.7-0.6-3.5-1.3-5.1-2.2c-3.6-2.1-6.5-4.8-8.4-8.4c-1.9-3.5-2.7-7.5-4-11.2c-1-2.9-2.1-5.9-2.7-8.8
			c-0.8-3.6-0.6-7.6-0.5-11.2c0.2-5.4,2.9-10.7,5.4-15.3c1.4-2.6,2.2-5.5,4-7.8c1.8-2.4,4.2-4.3,6.1-6.7c1.4-1.8,2.6-3.6,4.6-4.9
			c2-1.2,3.3-2.9,5.3-4c2.2-1.2,3.9-2.9,6-4.3c1.5-1,3.1-1.6,4.6-2.5c3-1.6,5.9-3.4,8.8-5.2c3.1-2,7.5-4.9,11.3-5.3
			c4.3-0.5,8.6-0.6,12.9-0.6c4.3,0,8.7,1.4,12.2,4c1.8,1.3,3.8,2.6,5.5,4c2.1,1.8,3.4,4.2,5.2,6.2c1.7,1.9,2.2,4.7,2.2,7.2
			c0,2.7,0.6,5.2,0.7,7.8c0.1,2.1,0,4.4-1.3,6.2c-0.5,0.8-1.5,1.2-2.1,2c-0.8,1.1-0.9,2.4-2,3.3"/>
		<g id="XMLID_564_">
			<path id="XMLID_4_" d="M615.6,207.4c-0.8,5.1-4.1,6.6-7.4,10c-2.7,2.7-3.3,6.6-5.9,9.3c-2.8,3-4.8,6.2-7.1,9.5
				c-1.8,2.5-3,4.4-5.7,6c-1.7,1.1-3.2,1.9-4.8,3.2c-6.5,5.8-13.9,10.2-20.6,15.7c-3.6,2.9-7.4,7.2-12.4,6.8
				c-5.1-0.4-11.1-3.9-14.4-7.7c-3.3-3.8-4.4-8.7-5.9-13.4c-1.7-5.2-3.4-10-3.5-15.6c-0.2-9.2,3.6-18.2,8.4-26
				c2.1-3.5,5.6-6.6,8.3-9.7c2.9-3.2,7-5.7,10.5-8.1c3.6-2.5,7.3-4.6,11.1-6.8c4.2-2.4,8.1-5.5,12.5-7.4c5.1-2.3,12.1-2.3,17.6-1.9
				c6.1,0.4,12.1,3.8,16.4,8.1c1.5,1.5,4.2,4.6,5.2,6.6c1.4,2.7,1,6.1,1.4,9.1c0.4,3.7,0.6,6.6-1.5,10c-0.9,1.5-2.2,3.2-3.2,4.6
				c-1.2,1.5,1.4,3,2.6,1.5c2.8-3.8,5.5-6.5,5.6-11.5c0-4,0-10.1-1.5-13.9c-3.3-8.3-13.8-16-22.5-17.3c-5.3-0.8-12-0.5-17.3,0.6
				c-5.1,1.1-9.5,4.5-13.8,7.1c-8.8,5.4-19.3,10.1-26,18.2c-3.1,3.7-6.8,6.8-8.9,11.2c-2.2,4.6-4.8,9.1-6.4,14
				c-3.6,11,0.2,21.6,3.5,32.1c3.2,10,10,16.6,20.3,19.2c8.5,2.2,16.8-8.4,22.7-12.8c2.5-1.9,5.3-3.3,7.8-5.1s4.5-4.2,6.9-6.1
				c2.5-2,5.2-2.8,7.4-5.2c1.8-1.9,3.2-4.4,4.7-6.6c1.9-2.8,4.2-5.1,6.2-7.8c1.9-2.5,2.4-5.6,4.6-7.9c3.8-4,7.3-5.4,8.2-11.3
				C618.7,206.3,615.8,205.5,615.6,207.4L615.6,207.4z"/>
		</g>
	</g>
	<path id="XMLID_98_" class="st3" d="M547.5,271.3c-2,0.1-3.9,1-6,1c-2.2,0.1-4.2,0.5-6.4,0.5c-5.6-0.1-11-0.7-16.5-1.4
		c-3.2-0.4-5.8-1.4-8.6-2.7c-4.9-2.3-9.8-5-14.3-8c-11.2-7.5-21.8-16.1-33.9-22.1c-3.5-1.8-6.8-3.9-10.3-5.6
		c-5.7-2.8-11.5-5.3-17.3-8c-7.5-3.6-15.9-6.8-22.4-12.1c-1.6-1.3-3.2-2.9-4.9-4c-0.8-0.6-1.7-0.9-2.5-1.6c-0.7-0.5-1.1-1-1.9-1.4
		c-3.2-1.8-6.6-3-9.9-4.6c-1.4-0.7-2.7-1.4-4.2-1.9c-1.3-0.4-2.2-1.1-3.3-1.9c-2-1.3-4.2-4.1-3.8-6.7c0.2-1.6,1.3-3,1.9-4.5
		c0.9-2.2,1.3-4.6,2.2-6.9c1.7-4.1,4-8.2,7-11.6c1.2-1.4,2.1-3,3.2-4.5c1.6-2,3.4-3.9,5.2-5.7c2.1-2.1,4.8-3.6,7.1-5.4
		c3.3-2.6,7.2-4.8,10.9-6.8c6.2-3.3,12-7.6,17-12.6c5.3-5.4,12.8-4.5,19.9-4.5c4.6,0,8.4,0.8,12.7,2.5c3.9,1.5,7.5,3.8,11.4,5.3
		c4.9,1.9,9.6,4.2,14.5,6.2c2.5,1,5.3,1.5,7.9,2.1c3.8,0.8,7.8,1.5,11.7,1.9c6.7,0.8,13.4,1.5,20.1,2.5c6.5,0.9,13.1,1.2,19.6,2
		c2.9,0.3,6,1,8.9,1.1c1.9,0.1,3.6,0,5.4,0.3c2.7,0.5,5.6,0.6,8.2,1.7c2.6,1.1,5.1,2.5,7.8,3.5c1.7,0.6,3.2,1,4.7,2
		c1.3,0.9,2.6,1.7,3.8,2.9c0.9,0.9,2.2,1.6,3,2.6c1,1.2,1.6,2.7,2.6,3.9c0.6,0.7,2.1,1.8,1.5,2.9c-0.7,1.2-3.5,0.7-4.6,0.7
		c-3.8,0-7.6,0-11.5,0c-2.1,0-4.3,0-6.4,0c-1.4,0-2.2-0.1-3.4,0.7c-3.1,2-6.2,3.9-8.9,6.4c-2.4,2.2-4.6,4.8-7.4,6.6
		c-3.5,2.3-7.2,4.6-10.1,7.6c-2.4,2.5-5.8,4-8.1,6.6c-2.2,2.5-3.8,5.1-5,8.1c-1.7,4.1-1,8.7-1.8,12.9c-1,5.4-1,10.9-1.6,16.3
		c-0.4,3.2-0.2,6.6-0.1,9.8c0.1,2.7,0.5,6.2,1.5,8.8c0.7,1.9,3,3.8,4.4,5.2c1.3,1.3,2.7,2.5,4,3.8c1,0.9,2.2,2,3,3.1
		c0.9,1.2,1,3,2.1,4"/>
	<g id="XMLID_176_">
		<path id="XMLID_200_" class="st1" d="M523,285.3c-3.5-1.5-7.3-1.4-11-1.6c-5.4-0.4-11.2-0.6-16.4-2.3c-2.9-1-5.9-2.2-8.7-3.7
			c-5.1-2.7-10.2-5.2-15.3-7.8c-8.4-4.3-16.6-9.1-25-13.4c-3.1-1.6-6.4-2.8-9.7-4.1c-4.1-1.6-8-3.7-12-5.5c-4.5-2-9.1-3.8-13.3-6.4
			c-3.8-2.3-7.7-5.3-11.1-8.2c-2.1-1.8-4.6-3.4-6.5-5.4c-2.1-2.2-3.3-5.5-4.1-8.4c-0.4-1.3-0.6-1.9,0.2-3.1c0.7-1,1.6-2.1,2.4-3
			c2.6-2.9,5.8-5.2,9.6-6.1c2-0.5,4-1.2,6-1.9c1.5-0.5,2.6-1.3,4-2c1.9-1,3.7-1.9,5.8-2.5c1.4-0.4,2.9-1.3,4.3-1.5
			c0.9-0.2,1.6-0.1,2.5-0.3c1-0.3,1.7-0.4,2.6-0.9c1.7-0.8,3.6-0.7,5.3-1.4c1.8-0.7,4-1.6,6-1.4c2.4,0.2,1.5,3.2,0.5,4.6
			c-1.5,2.1-2.2,4.6-3.3,7c-1.1,2.6-0.9,4.1,1.7,5.5c1.3,0.7,2.6,1.2,4,1.6c0.7,0.2,1.4,0.6,2.1,0.8c1.1,0.2,2.3,0.2,3.4,0.3
			c2.6,0.4,4.8,0.8,7.5,0.8c1.6,0,3,0.5,4.5,0.5c1.8,0.1,3.7,0,5.5,0c4.5,0,9.6-0.6,14.1,0.2c1.2,0.2,3.2,0.6,4.5,0.3
			c2-0.4,4-1.8,5.8-2.7s3.6-1,5.2-2.3c0.9-0.7,1.8-1.3,2.7-2.1c0.9-0.9,1.7-1.8,2.7-2.6c2.1-1.7,3.8-1.8,6.3-1.8
			c2.3,0,4.4-0.1,6.6,0.8c3.6,1.5,9.1,5,9.3,9.4c0.1,2.4-0.2,4.9,0.2,7.3c0.3,1.3,0.3,2.7,0.8,4c0.3,0.9,0.7,1.7,0.9,2.7
			c0.6,2.6,0.8,5.3,0.8,7.9c0,3.6-0.2,7.2-0.2,10.9c0,2.6,0,5.3,0,7.9c0,1.5,0.3,3,0.3,4.6c0,1.7-0.3,3.3-0.4,5.1
			c-0.2,4.8,0.1,9.6,0.1,14.4"/>
	</g>
	<g id="XMLID_84_">
		<path id="XMLID_194_" class="st4" d="M395.3,262.1c0-4.3-0.5-7,1.6-10.9c1.3-2.6,0.5-6,1.9-8.5c1.5-2.8,1.8-8,4.5-9.8
			c2.4-1.7,13.2-1.8,16.1-2.5c2.2-0.5,5-0.6,7.2-0.3c1.3,0.1,2.4,0.6,3.7,0.7c1.5,0.1,2.8,0.3,4.2,0.7c2.9,0.9,5.8,2.1,8.4,3.6
			c1.3,0.8,2.6,1.6,4,2.4c1.5,0.9,3.1,1.1,4.7,1.8c2.3,1.1,4.3,2.8,6.6,3.9c3.5,1.7,5.5,4.1,7.4,7.5c1.6,2.8-1.4,5.4-3,7.7
			c-2,2.7-3.7,5.7-5.8,8.4c-1.4,1.8-2.7,3.3-4,5.2c-1.1,1.5-2.9,3.2-4.5,4.1c-2.6,1.6-4.5,3.9-6.7,6c-1.1,1.1-2,1.3-3.3,2
			c-1.5,0.7-2.1,1.7-3.3,2.7c-3.5,3.1-8.1,0.2-10.4-2c-1.5-1.4-3.1-2.8-4.6-4.3c-1.1-1.2-1.9-2.5-3-3.7c-0.9-1-1.9-2.2-3-3
			c-1.4-1-3.2-1.3-4.7-2.3c-2.3-1.6-3.4-5.9-6.1-6.6c-2.2-0.6-4.7-1.8-6.9-2.1"/>
	</g>
	<g id="XMLID_216_">
		<path id="XMLID_362_" class="st1" d="M123,233.8c9.5,0,18.6,1.1,28.1,1.7c13.3,0.9,26.5,1.2,39.8,1.2c2.7,0,5.2,0.4,7.8-0.6
			c5.3-2.1,9.2-7.5,12.8-11.5c11.4-12.7,19.6-27.8,30.7-40.8c7.2-8.4,13.7-17.3,20.2-26.4c2.3-3.2,4.3-6.6,6.8-9.6
			c1.9-2.3,5.6-5,5.9-8.2c0.4-3.3-2.8-2.9-5.3-3.5c-4.3-1-8.2-1.9-12.6-2.6c-4.7-0.7-9.4-1.9-14.1-2.6c-6-0.8-11.9-1-17.9-1.4
			c-19-1.5-38-1.8-57.1-1.8c-5,0-9.2-0.9-13.3,2.1c-7.5,5.4-14.5,11.2-20.6,18.1c-7.4,8.3-13.5,17.8-20.3,26.7
			c-2.3,3-5.3,5.2-7.6,8.1c-2.3,3-4.3,6.8-6.2,10.1c-1.9,3.3-4.8,5.9-6.9,9.2c-2.5,3.7-3.7,7.7-6,11.5c-1.6,2.6-4.8,5.8-4.1,9.2
			c1.1,5.3,10.1,8.3,14.3,10c6.7,2.7,13,4,20.2,4c6.2,0,12.3,0,18.5,0"/>
		<g id="XMLID_315_">
			<path id="XMLID_245_" d="M123,235.3c19.5,0.2,38.9,2.7,58.4,2.9c7.3,0.1,15.6,1.7,21.9-2.9c5.8-4.3,10.7-10.9,15.1-16.6
				c5.6-7.2,10.6-14.8,15.9-22.2c5.4-7.6,11.6-14.5,17.3-21.9s10.9-15,16.3-22.6c2.4-3.4,10.5-9.2,8.4-14.3c-0.8-2-2.6-2.3-4.5-2.7
				c-4.4-0.9-8.8-2-13.3-2.8c-8.8-1.5-17.3-3.2-26.2-3.8c-20.1-1.3-40.1-2.2-60.3-2.2c-3.9,0-8-0.5-11.9,0c-3.8,0.5-6.6,2.6-9.6,4.8
				c-6.7,5.1-13.1,10.7-18.6,17.1c-5.7,6.6-10.6,13.7-15.7,20.7c-5.1,7.1-11.4,12.6-15.8,20.3c-2.5,4.4-5.8,7.9-8.6,12.1
				c-2.5,3.8-3.9,8.3-6.4,12.1c-3.5,5.4-6,10.3-0.2,15c5.2,4.3,13.5,7,20,8.5c10,2.4,20.7,1.4,30.9,1.4c1.9,0,1.9-3,0-3
				c-8.3,0-17,0.7-25.3-0.4c-6.7-0.9-13.4-3.2-19.4-6.2c-3.3-1.6-7.7-4-6.7-8.4c0.7-3.4,4.5-7.2,6-10.4c3.1-6.6,7.9-11.6,11.5-17.8
				c2.1-3.5,3.9-7.1,6.7-10.2c2.3-2.5,4.7-4.7,6.8-7.3c4.8-6.2,9.2-12.8,14-19c5-6.4,10.5-12.2,16.6-17.3c2.9-2.5,6-5.1,9.2-7.1
				c4-2.5,8.1-2,12.6-1.9c17.4,0.2,34.8,0.2,52.2,1.4c8.6,0.6,17.4,0.8,25.9,2.3c7.8,1.4,15.4,3.1,23.1,4.6c2,0.4,3-0.1,3.5,2.1
				c0.4,2.2-1.2,3.4-2.6,4.9c-2.2,2.3-4,4.7-5.8,7.3c-4.4,6.4-8.9,12.8-13.7,19c-5,6.5-10.4,12.6-15.3,19.1
				c-4.6,6.1-8.8,12.4-13.3,18.7c-5,7.1-10.5,14-16.4,20.4c-3.5,3.7-7,6.4-12.4,6.3c-4.6-0.1-9.2-0.1-13.8-0.2
				c-18.9-0.3-37.7-2.7-56.5-2.9C121.1,232.3,121.1,235.3,123,235.3L123,235.3z"/>
		</g>
	</g>
	<g id="XMLID_217_">
		<path id="XMLID_303_" class="st1" d="M189,236.8c-1.9,5.7-0.9,11,0.1,16.8c1.6,9.1,3.1,18.3,4.9,27.4c2.4,11.8,5.2,23.9,6.8,35.8
			c0.3,2.6,0.2,5.1,0.2,7.7c0,1.6-0.6,4.5-0.1,6.1c0.8,2.5,2.8,2,5.2,0.9c1.6-0.7,2-1.3,2.6-2.9c1.2-3,1.5-6.9,2.4-9.9
			c2.2-7.6,4.7-14.4,4.8-22.5c0.2-11.8,1-23.6,1-35.4c0-5.4,0-10.7,0-16.1c0-3.7,0.5-7.6-0.1-11.2c-0.5-2.9-2-5.7-2.7-8.6
			c-0.5-2-0.5-4.6-2.2-6.1"/>
		<g id="XMLID_291_">
			<path id="XMLID_243_" d="M187.6,236.4c-2,7.1-0.5,14.1,0.8,21.3c1.5,8.6,2.9,17.1,4.6,25.6c1.8,8.8,3.8,17.6,5.3,26.4
				c0.8,4.6,1.4,9.2,1.3,13.9c-0.1,2.4-0.9,5.3,0,7.6c1.4,3.7,5.8,3.1,8.5,1c4.1-3.1,4-11.1,5.4-15.7c2.3-7.8,4-15.1,4.2-23.2
				c0.2-9.2,0.8-18.4,0.9-27.5c0.2-9.2,0.2-18.3,0.2-27.5c0-4-1-7.4-2.3-11.2c-1.1-3.3-1.1-6.6-3.4-9.4c-1.2-1.5-3.3,0.6-2.1,2.1
				c1.5,1.9,1.6,4.9,2.3,7.2c0.5,1.7,1.3,3.4,1.8,5.2c1.1,4.2,0.6,8.4,0.5,12.6c-0.1,8.7,0.1,17.3-0.2,26
				c-0.3,9.1-0.3,18.3-0.9,27.4c-0.6,8.4-3.9,16.3-5.6,24.5c-0.3,1.5-0.5,2.9-1,4.4c-1.3,4-5,4.7-5.4,0c-0.3-3.5,0.3-7-0.1-10.5
				c-1-8.9-3-17.7-4.8-26.5c-1.8-8.6-3.5-17.2-4.9-25.8c-1.5-8.7-4.5-18.3-2-27C191,235.3,188.1,234.5,187.6,236.4L187.6,236.4z"/>
		</g>
	</g>
	<g id="XMLID_218_">
		<path id="XMLID_289_" class="st1" d="M252,155.8c0,16.5,1.1,32.8,2,49.3c0.4,8.3,3.9,16,6.5,23.8c0.9,2.7,2.7,10.8,5.7,12.3
			c4.2,2.1,10.7-17.6,11.7-20.5c5-13.6,6.7-28.1,3-42.3c-2.4-8.8-4.7-17.6-6.9-26.4c-1.1-4.4-1.8-10.2-4-14.3"/>
		<g id="XMLID_283_">
			<path id="XMLID_242_" d="M250.5,155.8c0,9.5,0.4,19.1,0.9,28.6c0.4,8.4,0.3,17.1,1.6,25.4c1.3,7.5,4.5,14.5,6.7,21.8
				c1,3.2,2.2,9.3,5.7,10.9c6,2.6,10.2-11.3,11.6-15c4.6-12.1,8.1-24.5,7.2-37.6c-0.6-9.5-3.8-18.7-6.2-27.9c-2.1-8.1-3-17.4-6.7-25
				c-0.9-1.7-3.4-0.2-2.6,1.5c3.7,7.5,4.6,17.1,6.7,25.2c2.5,9.5,5.7,19,5.9,28.9c0.3,13.4-3.8,26.7-9.2,38.9
				c-0.9,2.1-1.9,4.4-3.3,6.3c-1,1.3-1.1,1.8-2.4,1.3s-2-3.1-2.4-4.1c-2.5-6.5-4.7-13.4-6.6-20c-2.7-9.5-2.4-19.9-2.9-29.7
				s-0.9-19.7-0.9-29.6C253.5,153.9,250.5,153.9,250.5,155.8L250.5,155.8z"/>
		</g>
	</g>
	<g id="XMLID_219_">
		<path id="XMLID_281_" class="st1" d="M90,224.8c-0.9,9-2,17.8-1.1,27c1.1,11.1,3.6,22.1,4.9,33.2c0.7,6.3,1.2,12.5,1.2,18.9
			c0,2.4-1.1,9.6,0.3,11.9c3.8,0.7,10.1,0.5,11.5-3.8c1.2-3.4,1.6-6.8,3.2-10.1c2.8-5.6,4.9-10.7,6.1-17c1.1-5.7,1.6-11.4,2.2-17.1
			c0.6-6.3,1.8-13.5,0.6-19.8c-0.7-4-3.1-7.4-3.8-11.3c-0.4-2.2-0.8-4.6-1.1-6.8"/>
		<g id="XMLID_275_">
			<path id="XMLID_241_" d="M88.5,224.8c-1,10.3-2,20.4-0.7,30.7c1.2,9.9,3.3,19.6,4.5,29.5c1,8.1,1.3,16.1,0.9,24.2
				c-0.1,1.9-0.6,5.7,0.8,7.3c1.2,1.3,4,1.1,5.7,1c7-0.4,8.3-4.3,10.1-10.2c2.5-8.2,6.7-15.3,8.2-23.9c1.6-9.2,2.9-19,3-28.3
				c0.1-4.4-0.5-8.3-2.1-12.4c-1.7-4.4-2.6-8.6-3.3-13.2c-0.3-1.9-3.2-1.1-2.9,0.8c0.6,4,1.2,7.9,2.7,11.7c1.5,3.9,2.6,7.1,2.7,11.4
				c0.2,7.6-1.1,15.5-2,23.1c-1,8.3-2.9,15.6-6.4,23.2c-1.4,3.2-2.3,6.2-3.4,9.5c-0.9,2.9-1.6,4.4-4.6,5.2c-0.9,0.2-3.3,0.7-4.2,0.2
				c-2.3-1.2-1.2-5.8-1-7.8c0.2-3.2,0.2-6.3,0-9.5c-0.4-7.3-1.3-14.6-2.4-21.9c-1.4-8.5-3.1-16.9-3.7-25.5c-0.6-8.4,0.4-16.7,1.3-25
				C91.7,222.9,88.7,222.9,88.5,224.8L88.5,224.8z"/>
		</g>
	</g>
	<g id="XMLID_220_">
		<g id="XMLID_351_">
			<path id="XMLID_357_" d="M142.5,176.8c-0.4-6.1,8-10.6,12.1-13.9c4.1-3.3,8.1-6.9,11.1-11.3c1.3-1.9,2-4.3,3.3-6.2
				c2.3-3.3,5.8-2.3,9.1-1.8c5.7,0.9,11.5,0.9,17.2,0.8c3.6,0,14.7-2.3,15.3,2.6c0.4,3.4-2.6,7.7-4.3,10.5
				c-4.4,7.4-7.7,15-15.8,18.9c-5.4,2.6-13.4,8-19.5,6c-2.4-0.8-4.5-2.2-6.8-3c-2.9-1-5.9-1.1-8.8-2.2c-4.8-2-14.7-8.2-16.1,0.6
				c-0.4,2.8-0.4,6.9,0.9,9.5c1.5,3,4.6,3.5,7.5,4.6c9.2,3.5,20.7,11.5,30.8,7.4c4.3-1.7,8.6-4.9,12-7.9c2.4-2.1,5.2-2.7,7.7-4.5
				c1.9-1.4,3.5-3.4,4.8-5.4c3.5-5.1,4.2-10.5,6.3-16c1.1-2.9,2.3-5.7,3.3-8.5c1-2.9,1.3-6.5,3.4-8.9c1.2-1.5-0.9-3.6-2.1-2.1
				c-2.8,3.3-3.2,7.8-4.7,11.7c-1.9,5.1-3.3,10.4-5.2,15.5c-1.1,3.1-3.1,6.7-5.4,9.1c-2.2,2.4-4.9,3-7.5,4.6
				c-4.4,2.7-7.8,6.7-12.5,9.1c-6.7,3.4-15.5-0.4-21.9-3.2c-2.4-1-4.7-2.3-7.1-3.3c-3.3-1.4-6.6-1.6-7.3-5.9c-0.2-1.3-0.7-4.9,0-6
				c1.8-3,6.6-0.3,8.8,0.8c5.2,2.6,10.8,3.3,16.1,5.7c4.3,1.9,7.5,2.6,12.1,0.8c5.5-2.2,11.9-4.7,16.9-8.1
				c5.7-3.9,8.6-11.1,12.1-16.9c2.4-3.9,7.5-11.4,4.3-16.1c-1.3-1.9-3.5-2.3-5.6-2.4c-7.1-0.5-14.4,0.3-21.5,0
				c-4.6-0.2-10.4-2.3-15-1c-4.4,1.3-5.2,6.3-7.5,9.7c-4,5.8-9.9,10-15.4,14.4c-4.2,3.3-8.6,6.6-8.2,12.3
				C139.6,178.7,142.6,178.7,142.5,176.8L142.5,176.8z"/>
		</g>
	</g>
	<g id="XMLID_221_">
		<g id="XMLID_344_">
			<path id="XMLID_349_" d="M158.5,171.8c0.2-2.3,2.6-4,4-5.6c1.2-1.3,2.1-2.8,3.2-4.2c3.1-4.3,6.9-8.1,10.4-12.1
				c1.3-1.4-0.8-3.6-2.1-2.1c-4,4.6-8.1,9-11.7,14c-2.4,3.3-6.4,5.8-6.7,10.1C155.3,173.7,158.3,173.7,158.5,171.8L158.5,171.8z"/>
		</g>
	</g>
	<g id="XMLID_222_">
		<g id="XMLID_337_">
			<path id="XMLID_342_" d="M168.1,176.9c1.7-1.9,2.9-4,4.4-6c1.9-2.5,4.2-4.5,6.4-6.6c3.8-3.7,6.9-7.3,10.2-11.4
				c1.2-1.5-0.9-3.6-2.1-2.1c-3.2,4.1-6.4,7.8-10.2,11.4c-1.9,1.8-4,3.6-5.7,5.6c-1.9,2.2-3.2,4.8-5.2,7
				C164.7,176.2,166.8,178.3,168.1,176.9L168.1,176.9z"/>
		</g>
	</g>
	<g id="XMLID_224_">
		<g id="XMLID_330_">
			<path id="XMLID_335_" d="M184.3,172.6c2.1-3.3,4.8-5.9,7.5-8.8c2.3-2.5,3.8-5.7,6.3-7.9c1.4-1.3-0.7-3.4-2.1-2.1
				c-2.8,2.5-4.5,6-7.1,8.8c-2.6,2.7-5.1,5.4-7.1,8.5C180.7,172.7,183.3,174.2,184.3,172.6L184.3,172.6z"/>
		</g>
	</g>
	<g id="XMLID_226_">
		<g id="XMLID_323_">
			<path id="XMLID_328_" d="M202.5,80.8c-0.2,3.3,0.9,6.6,2.5,9.4c1.6,2.8,3.1,6,5.2,8.4c0.6,0.7,1.9,0.5,2.4-0.3
				c1.2-2.2,1.1-4.2,0.9-6.6c0-0.5-0.5-3.8,0.1-4c0.3-0.2,1.6,2.5,1.8,2.8c0.9,1.9,2.5,8.1,5.6,7.3c2.7-0.7,2.7-5.2,2.8-7.3
				c0.2-3.9-0.2-7.8-0.2-11.6c0-1.9-3-1.9-3,0c0,2,1.4,15.8-0.7,16.1c0.5,0.1,1,0.3,1.5,0.4c-3.1-2.5-2.7-9-6.9-10.5
				c-5.8-2.1-3.2,9.9-4.4,12.1c0.8-0.1,1.6-0.2,2.4-0.3c-1.7-2-2.7-4.7-4.1-6.9c-1.7-2.7-2.9-5.6-2.7-8.8
				C205.6,78.9,202.6,78.9,202.5,80.8L202.5,80.8z"/>
		</g>
	</g>
	<g id="XMLID_233_">
		<g id="XMLID_316_">
			<path id="XMLID_321_" d="M227.5,76.8c-0.1,3.5,0.4,6.3,0.9,9.7c0.6,4,0.1,8.2,0.1,12.3c0,1.9,3,1.9,3,0c0-3.7,0.4-7.5,0.1-11.2
				c-0.3-3.7-1.1-7.1-1.1-10.8C230.5,74.9,227.5,74.9,227.5,76.8L227.5,76.8z"/>
		</g>
	</g>
	<g id="XMLID_240_">
		<g id="XMLID_309_">
			<path id="XMLID_314_" d="M237.5,97.8c0.4-2.9,1.1-4.8,1-7.7c-0.1-3.2,0-6.4,0-9.6c0-7.6,8.2-5,13.3-7.4c1.7-0.8,0.2-3.4-1.5-2.6
				c-4.6,2.2-13-0.1-14.6,6.6c-0.7,3-0.1,6.6-0.1,9.6c0,1.9,0.3,4,0.1,5.9c-0.1,1.8-0.9,3.4-1.1,5.2
				C234.3,99.7,237.3,99.7,237.5,97.8L237.5,97.8z"/>
		</g>
	</g>
	<g id="XMLID_247_">
		<g id="XMLID_302_">
			<path id="XMLID_307_" d="M235,88.3c4.4-0.1,8.4-1.5,12.4-3.1c1.8-0.7,1-3.6-0.8-2.9c-3.8,1.4-7.5,2.9-11.6,2.9
				C233.1,85.3,233.1,88.3,235,88.3L235,88.3z"/>
		</g>
	</g>
	<g id="XMLID_254_">
		<g id="XMLID_295_">
			<path id="XMLID_300_" d="M256.9,74.7c-1.9,2.1-1.8,5-1.8,7.6c0,4.2-1.1,8.3-1.6,12.4c-0.2,1.9,2.8,1.9,3,0
				c0.4-3.3,1.4-6.6,1.6-10c0.2-2.3-0.7-6.1,1-8C260.4,75.4,258.2,73.3,256.9,74.7L256.9,74.7z"/>
		</g>
	</g>
	<g id="XMLID_324_">
		<g id="XMLID_386_">
			<path id="XMLID_392_" d="M435.7,193.4c-11.2,4.2-22.6,6.2-33.4,11.5c-5.2,2.5-11,3.3-16.3,5.6c-5.6,2.4-11,5.2-16.7,7.4
				c-11.5,4.2-24.4,4.7-35.4,10.1c-2.6,1.3-5,2.9-7.7,4.1c-2,0.9-4,1.6-5.7,2.9c-3.8,2.8-6.9,7.2-9.6,11
				c-4.1,5.9-10.3,15.3-7.3,22.9c2.3,5.7,8.5,9.1,13.9,11.3c6.3,2.6,13.1,4.3,19.8,4.8c11.6,0.9,21-1.6,30.7-7.8
				c5.7-3.6,11.1-6.7,17.5-8.9c2.8-1,5.7-1.9,8.6-2.8c3.6-1.1,5.3-0.3,8.2,1.9c4.6,3.6,9.8,6.7,13.3,11.5c2.3,3.2,4.3,6.4,8.1,8
				c6,2.6,11.1-1.3,10.7-7.7c-0.5-9.2-10.6-14.5-16.3-20.4c-1.3-1.4-3.4-3.2-3.8-5.1c-0.6-3.4,3.2-4.8,5.6-4.8
				c4.1,0.1,5.4,3.5,7.4,6.5c1.6,2.3,3.5,4.4,4.9,6.8c1.3,2.1,2.1,4.4,3.7,6.3c3.4,4.3,12.6,8.4,15,1.1c1.1-3.2,0.6-8.6-0.2-11.8
				c-1-4-3.5-7.3-6.7-9.8c-1.7-1.3-3.5-2.4-5.4-3.2c-0.4-0.2-2-0.5-2.3-0.8c-0.2-1.2-0.4-2.5-0.6-3.7c0.6,0,1.2,0.1,1.8,0.3
				c3,0,7.9,3.4,10.4,5c3.2,2.1,5.9,4.9,8.6,7.7c1.2,1.2,2.5,3.4,4.2,4c3.2,1.2,5.1-1.3,5.6-4.2c0.5-3.4-0.6-5.7-3.1-7.8
				c-4.3-3.7-8.2-8.4-13-11.4c-4-2.5-8.9-5.2-13.6-6c-6-1-12.8-0.4-18.9,0c-6.3,0.4-11.8,2.7-17.8,4.5c-6.6,2-14.3,3.2-21.1,4.4
				c-1.9,0.3-1.1,3.2,0.8,2.9c5.5-1,10.8-2.3,16.3-3.2c5.4-0.9,10.3-3.5,15.7-4.7c5.1-1.2,10.4-0.9,15.6-1.1
				c6.2-0.3,11.1,0.5,16.8,3.3c4.6,2.3,7.9,5.2,11.6,8.8c1.6,1.5,3.2,2.9,5,4.3c1.3,1,2.2,1.4,2.7,3.1c0.4,1.3,0.5,4.6-1.9,4
				c-1.2-0.3-3-3.3-4-4.2c-2-2-4-4-6.3-5.7c-2.5-1.9-5.4-3.4-8.2-4.7c-3.1-1.4-10.9-4.5-12.1,1c-0.4,2,0.9,4.3,2.4,5.4
				c1.5,1.1,3.7,1.3,5.3,2.1c2.4,1.2,4.6,2.8,6.3,4.8c3.2,3.7,3.7,9,3.5,13.8c-0.3,5.8-6.5,3.6-9.2,1c-1.8-1.7-2.7-4.3-3.9-6.4
				c-2.4-4-5.4-8.2-8.2-11.8c-1.9-2.5-4.4-4-7.6-3.7c-5.7,0.5-10.2,5.4-7,10.8c4.6,7.9,16.1,11.7,18.6,20.9c0.6,2.2,0.7,5.7-1.7,7
				c-2.8,1.5-6.4-1.1-8.1-3c-3.2-3.4-5.1-7.2-8.8-10.2c-5.3-4.2-11.1-11-18.4-8.9c-10.6,3-19.7,7.4-29,13.2
				c-9.5,6-19.5,7.7-30.6,6.2c-6.6-0.9-13.4-2.8-19.3-5.9c-7.4-3.9-11-9-7.8-17.2c2.5-6.3,6.5-12.1,10.9-17.1
				c1.9-2.2,3.9-4.2,6.5-5.5c2.2-1.1,4.7-1.8,6.9-3c11.5-6.5,24.5-7.4,36.9-11.6c5.6-1.9,10.9-4.3,16.2-6.9
				c5.4-2.6,11.2-3.6,16.7-5.8c5.7-2.3,10.8-5.2,16.8-6.9c6.2-1.8,12.4-3.1,18.5-5.4C438.3,195.6,437.5,192.7,435.7,193.4
				L435.7,193.4z"/>
		</g>
	</g>
	<g id="XMLID_331_">
		<g id="XMLID_393_">
			<path id="XMLID_399_" d="M421.8,284.7c9.5,5.8,16.6,14.4,23.3,23c2.9,3.7,6.5,6.7,9.7,10.1c3.9,4.1,7.2,8.7,11.2,12.7
				c5.8,5.9,12.2,12.5,21.2,11.3c4.3-0.5,8-2.6,12-4.1c4.3-1.6,8.2-2.4,11.8-5.3c3.6-2.9,7.7-5,11.1-8.1c3.3-3,6-6.6,8.3-10.4
				c4.3-7,6.2-15.4,5-23.6c-0.7-4.3-2.6-7.2-5.1-10.7c-3.7-5.1-5-10.8-5.5-17.1c-0.8-11.2-0.5-22.8,0-34.1
				c0.2-5.3,0.6-10.9-1.4-15.9c-1.7-4.5-5-8.1-8.3-11.5c-5-5.1-10.7-14.7-18.9-13.8c-1.9,0.2-1.9,3.2,0,3c7-0.8,13,9,17.4,13.5
				c3.5,3.7,6.8,7.6,7.9,12.7c1.2,5.1,0.3,10.5,0.2,15.6c-0.2,9.5-0.4,19.3,0.1,28.8c0.4,8,2.1,14.9,6.9,21.4
				c5.9,7.9,5.2,18.9,0.8,27.5c-4.2,8.2-10.2,13-17.6,18.2c-1.8,1.3-3.3,3-5.2,4c-1.8,1-4,1.4-5.9,2c-4.1,1.3-8,3.6-12.3,4.5
				c-10.3,2.2-18.3-8-24.4-14.9c-6.6-7.4-13.5-14.5-19.7-22.2c-6-7.4-12.6-14.5-20.8-19.5C421.7,281.1,420.2,283.7,421.8,284.7
				L421.8,284.7z"/>
		</g>
	</g>
	<g id="XMLID_338_">
		<g id="XMLID_400_">
			<path id="XMLID_406_" d="M318.3,280.6c-8.8,4.2-15.4,11.2-23.1,17c-4,3-8.2,6-12.4,8.8c-3.2,2.1-6.8,3.2-9,6.4
				c-0.4,0.5-0.2,1.4,0.2,1.8c2.1,1.7,4,2.1,6.6,1.3c4.4-1.2,8.7-2.6,13.3-3.6c5.5-1.2,10.9-2.7,16.5-3.2c5.2-0.4,10.5-0.3,15.8-0.3
				c12.9,0,26.4-0.1,38.7,4.3c6.3,2.2,12.2,5.8,16,11.4c5.2,7.8,5,17.8,5.7,26.7c0.3,4.1,0.5,8.5,1.1,12.5c0.3,2.5,1.5,3.6,4,3.4
				c3.5-0.2,6.3-2.2,9.3-3.7c4.8-2.5,9.8-4.7,14.6-7.1c4.9-2.6,9.9-5.2,14.7-8.1c4.1-2.4,6.9-6,10.3-9.2c4.5-4.4,9.3-7,14.7-10
				c4.7-2.6,7-6.1,10.4-10.2c1.2-1.5-0.9-3.6-2.1-2.1c-3.1,3.7-5.4,7.3-9.8,9.8c-3.6,2-7.3,3.6-10.5,6.2c-3.8,3.1-6.9,6.8-10.5,10.1
				c-3.5,3.2-8.2,5.2-12.3,7.6c-4.2,2.4-8.5,4.6-12.8,6.7c-1.9,0.9-3.8,1.8-5.7,2.7c-2.3,1.1-5.2,3.5-7.7,3.9c-5,0.9-4.1-7-4.4-10.5
				c-0.5-5.1-0.7-10.3-1.4-15.4c-1.6-12.2-7.9-21.3-19.3-26.3c-10.9-4.7-23.2-5.5-34.9-5.7c-8.7-0.1-17.7-0.5-26.4,0.5
				c-5.3,0.6-10.4,2.1-15.6,3.2c-2.7,0.6-5.5,1.1-8.2,1.9c-2.3,0.7-5.5,2.9-7.8,0.9c0.1,0.6,0.2,1.2,0.2,1.8c2.3-3.3,8-5.3,11.3-7.7
				c3.4-2.5,6.9-4.7,10.2-7.3c7.2-5.6,13.6-12.2,22-16.2C321.6,282.3,320.1,279.7,318.3,280.6L318.3,280.6z"/>
		</g>
	</g>
	<g id="XMLID_359_">
		<g id="XMLID_420_">
			<path id="XMLID_426_" d="M525,272.4c2,1.9,4,2.2,6.7,2.2c4.1-0.1,8.4,0,12.5-0.4c8.2-0.7,15.4-4.7,21.9-9.4
				c6.8-5,13.3-10.5,19.6-16.1c6.5-5.8,11.2-12.6,17-18.9c4.6-4.9,10.2-8.7,14.3-14c4.3-5.7,5.9-12.5,4.9-19.6
				c-1.1-7.8-5.2-13.8-10.8-19.1c-2.9-2.8-6.2-5.4-8.4-8.8c-1.6-2.6-3-4.3-5.2-6.4c-5.7-5.5-11.5-10.3-19.7-11.5
				c-3.4-0.5-6.8-0.1-10.2,0.3c-5.6,0.7-11.3,0.7-16.9,1.3c-10.2,1.1-19.8,0.9-29.9-0.8c-4.2-0.7-8.4-1.8-12.4-3.2
				c-4.8-1.8-9.1-4.6-13.8-6.7c-8-3.4-16.7-6.6-24.3-10.8c-2.9-1.6-5.6-3.7-8.8-5c-4.2-1.6-8.5-1.3-12.9-1.1
				c-7.4,0.3-13.4,0.7-19.5,5.3c-6.5,4.8-10.7,12.3-16.6,17.8c-6.7,6.2-15.4,10.2-20.6,17.8c-2.4,3.4-4.2,7.2-6.3,10.7
				c-2.1,3.6-4.7,6.8-6.3,10.7c-2.5,5.9-2.7,11,2.2,15.4c4.2,3.7,10.1,7.4,15.8,7.9c1.9,0.2,1.9-2.8,0-3c-5-0.4-11-4.3-14.5-7.8
				c-5.6-5.6,0.2-13.6,3.7-18.9c3.4-5.2,5.8-11.2,9.8-16c4.6-5.4,11.7-8.8,17-13.5c5.5-5,9.5-11.1,14.7-16.2
				c6.1-6.1,12.5-6.9,20.7-7.2c4.4-0.2,8.9-0.5,13,1.4c3.2,1.5,6.1,3.8,9.3,5.4c6,3,12.4,5.5,18.6,8.2c6.9,3,13.3,7,20.5,9.3
				c6.9,2.2,14.3,3.2,21.5,3.9c8.4,0.8,16.4-0.7,24.8-1.1c8-0.3,17.3-2.9,25-0.1c6.6,2.4,12.7,6.9,17.1,12.5
				c1.4,1.7,2.2,3.8,3.6,5.6c2.5,3,5.6,5.4,8.3,8.1c6,5.9,9.6,13.6,8.9,22.1c-0.6,7.4-5.1,12.7-10.3,17.5
				c-5.1,4.7-9.6,9.2-13.8,14.6c-5.3,6.8-12,12.4-18.6,17.9s-13.2,11.5-21.1,15.3c-4.7,2.3-9.5,3.4-14.7,3.5
				c-3.3,0.1-10.9,1.4-13.6-1.1C525.7,269,523.6,271.1,525,272.4L525,272.4z"/>
		</g>
	</g>
	<g id="XMLID_366_">
		<g id="XMLID_427_">
			<path id="XMLID_436_" d="M549.6,270.3c-6.4-6.3-11.6-13.9-16.2-21.6c-5.3-8.9-5.1-16.9-2.3-26.7c1.1-3.9,2.4-7.7,3.2-11.6
				c0.6-2.9,0.7-5.7,2.8-8c6.3-6.7,14.6-11.8,22-17.1c2.8-2,5.2-4.2,7.7-6.5c3.9-3.6,8-5.7,13.1-7.1c4.4-1.3,8.7-2.1,13.1-0.4
				c3.1,1.2,6,2.6,9.1,3.8c2.5,1,5.1,1.9,6.5,4.4c1.1,1.8,1.3,4.1,1.7,6.1c0.8,3.4,2.4,6.5,3.2,9.9c1.7,6.9-0.9,18.9-6.2,23.8
				c-1.4,1.3,0.7,3.4,2.1,2.1c4.8-4.4,6-11.3,7.2-17.4c1.3-7.1-1.8-12.5-3.4-19.2c-1.5-6.2-3-9.5-9-12c-5.8-2.4-12.1-6.3-18.6-5.4
				c-7.1,0.9-14.5,3.5-19.9,8.3c-6.3,5.6-13.2,10.3-19.8,15.5c-4.4,3.5-11.9,7.5-13.6,13.3c-1,3.3-1.3,6.7-2.3,10
				c-1.3,4.4-2.8,8.8-3.6,13.3c-1.5,8.2,0,15.2,4.3,22.3c4.8,7.9,10.1,15.7,16.7,22.2C548.9,273.8,551,271.7,549.6,270.3
				L549.6,270.3z"/>
		</g>
	</g>
	<g id="XMLID_394_">
		<path id="XMLID_448_" class="st1" d="M322,440.8c0,0,0,40.2,0,60.6c0,5.7-0.2,11.4-0.2,17.1c0,3.4-1.4,9.3,1.2,12.1
			c4.4,4.7,12,1.4,17.3,1.3c7.8,0,6.9-5.6,6.8-12.1c0-7.5,0.4-15-0.3-22.4c-0.6-6-2.1-11.9-2.6-17.9c-0.6-6.9-0.1-14.1-0.1-21.1
			c0-5.3,1.1-9.5,1.7-14.7"/>
		<g id="XMLID_443_">
			<path id="XMLID_447_" d="M320.1,440.4c0,17.1,0,34.1,0,51.2c0,8.3,0.1,16.7,0,25c0,4.6-1.7,10.8,1.5,14.7c2.8,3.4,7.4,3.5,11.4,3
				c3.8-0.5,10.3,0,13.3-2.9c2.9-2.7,2.3-7.5,2.3-11.1c-0.1-8,0.5-16-0.4-23.9c-1-8.9-2.8-17.5-2.8-26.6c0.1-8.9,0.6-17.6,1.7-26.5
				c0.2-1.9-2.8-1.9-3,0c-2.1,16.6-2,32.5,0.5,49c1.3,8.5,1,17,1,25.5c0,2.8,0.6,6.4-0.2,9.1c-1.2,3.9-4.7,3.2-7.9,3.6
				c-3.5,0.4-7.5,1.8-10.9,0.5c-4.9-1.8-3.7-7-3.5-11c0.4-8.2,0.1-16.5,0.1-24.7c0-18.4,0-36.7,0-55.1
				C323.1,438.4,320.1,438.4,320.1,440.4L320.1,440.4z"/>
		</g>
	</g>
	<g id="XMLID_401_">
		<g id="XMLID_467_">
			<path id="XMLID_471_" d="M720.6,448.3c0.1,16.6-1.5,33.2-1.5,49.9c0,7.8,0,15.5-0.2,23.3c-0.1,4.4,0.7,8.6,4.9,10.8
				c5.7,3.1,18.5,4.4,23.1-1.2c5.8-6.9,1.5-20.8,0.6-28.7c-2-19.1-1.5-38.3-1.5-57.5c0-1.9-3-1.9-3,0c0,17.9-0.7,35.9,1.1,53.7
				c0.6,6.5,1.7,13,2.2,19.6c0.5,6.4-0.2,12.4-7.5,13.2c-5.1,0.6-14.8,0.7-16.6-5.4c-1.1-3.5-0.2-7.9-0.1-11.5c0-4.5,0-9,0-13.5
				c0-8.9-0.1-17.8,0.3-26.6c0.5-8.7,1.2-17.4,1.2-26.1C723.6,446.3,720.6,446.3,720.6,448.3L720.6,448.3z"/>
		</g>
	</g>
	<g id="XMLID_231_">
		<path id="XMLID_350_" d="M509.6,203.9c-5.3,0.9-11.5-4.8-13.7-9.3c-3.1-6.5,2.1-11.3,7.3-14.8c2.2-1.4,4.5-2.6,6.4-4.4
			c1.9-1.7,2.9-3.6,5.2-4.4c6.2-2.2,10.8-0.3,13.9-7.2c6-13.7-8.8-12.4-17.6-14.2c-2.5-0.5-4.9-2-7.6-2.4c-2.4-0.4-4.7,0-7-0.5
			c-2.6-0.7-4.6-3-7.5-3c-3.6,0.1-6,3.6-9.7,3.1c-2-2.1,1.2-5.2,2.6-6.8c3.2-3.6,6-6.4,10.9-6.7c4.6-0.3,10.8-0.8,15.3,0
			c2.5,0.5,4.5,2.2,6.9,2.9c3,0.8,5.3,1.4,8.1,2.8c6,3.1,13.5,4.1,18.7,8.6c5.9,5,8.1,13.7,0.7,18.1c-3.4,2-6.3,3-7.8,7
			c-1.6,4.2-1.1,8.9-1,13.3c0.1,9.8-3.6,13.7-12.2,17.4c-4.4,1.9-6.7,3.8-11.9,3.7c-5.4-0.1-6.1-2.3-4.4-7.6"/>
	</g>
	<g id="XMLID_235_">
		<path id="XMLID_559_" d="M478.9,149.1c-1.3-1.9-4-3.5-5.8-3.5c-3,0-5.4,4.7-7.2,6.6c-1.1,1.2-1.4,2-2,3.5
			c-0.4,1.1-1.1,1.8-1.7,2.8c-0.7,1.2-3.4,4.6-1.9,5.6c1.5,1.1,4.1-0.6,5.5-1.1c2.6-0.9,3.9-2.9,6.1-4.5c2.3-1.6,5.9-2.5,7.8-4.6
			c1.9-2.2,1.8-5.6,1.8-8.4"/>
	</g>
	<g id="XMLID_232_">
		<g id="XMLID_588_">
			<path id="XMLID_265_" d="M481.4,147.9c-0.1-0.7-0.5-1.3-0.8-1.9c-0.5-0.7-1.3-1-2.1-0.5c-0.7,0.4-1,1.4-0.5,2.1
				c0.2,0.2,0.3,0.4,0.4,0.7c0.1,0.2,0-0.1,0,0.1c0,0.1,0.1,0.3,0.1,0.4c0.2,0.8,1.1,1.3,1.8,1C481.2,149.5,481.6,148.7,481.4,147.9
				L481.4,147.9z"/>
		</g>
	</g>
	<g id="XMLID_236_">
		<g id="XMLID_578_">
			<path id="XMLID_257_" d="M509.6,199.4c0,2.7,0.1,5.5-0.8,8c-0.8,2.2-2.5,3.9-3.3,6.2c-1.7,4.9-0.4,10.6,0.9,15.4
				c3.3,12.2,6.9,24.2,6.5,36.9c-0.2,6.1-0.2,12.2-0.2,18.3c0,5.3-0.3,10.7,0.9,15.9c1.2,5.3,5.2,10.6,5.2,16c0,2.5,0,4.4,0.7,6.8
				c1.1,3.5-0.1,5.8-0.7,9.2c-0.7,3.8,5,5.4,5.8,1.6c0.5-2.5,1.5-5,1.6-7.5c0.1-2.4-0.9-4.2-1.3-6.5c-0.5-2.8,0.2-5.5-0.6-8.2
				c-0.8-2.5-2.2-4.8-3.1-7.3c-2.2-5.7-2.4-11.1-2.4-17.1c0-6.4-0.1-12.8,0.1-19.3c0.4-12.3-2.1-23.6-5.3-35.5
				c-1.6-6.1-4.5-12.8-1.1-18.8c2.6-4.6,3.3-8.8,3.3-14.1C515.5,195.5,509.5,195.5,509.6,199.4L509.6,199.4z"/>
		</g>
	</g>
	<g id="XMLID_238_">
		<g id="XMLID_258_">
			<path id="XMLID_253_" d="M209.7,112c-2.9,3.9-3.9,10.1-5.1,14.7c-1.6,6.5-0.9,13-1.2,19.6c-0.1,1.7,2.7,2.1,2.9,0.4
				c1-5.5,1.7-11,4.1-16c1.7-3.5,3.8-9.1,7.4-11.1c4.8-2.8,12.6-1,17.9-1.4c6.3-0.5,12.4-2.2,18.7-2.9c8.9-1,18.1-3.2,23.4-11.1
				c4.5-6.8,6.2-16.1,5-24.1c-3.1-20.4-22.6-27.4-40.8-28.7c-10.8-0.7-20,3.3-29.9,6.9c-4.6,1.6-9.2,3.3-13.4,5.7
				c-4.5,2.5-8,6-11.8,9.5c-5.5,5.2-11.7,13.6-5.1,20.4c4,4.1,9.6,7.3,14.7,9.5c3.5,1.5,6.9,2.5,9.1,5.9c1.2,1.8,1.8,3.9,3.2,5.6
				c1.2,1.5,3.3-0.6,2.1-2.1c-2.2-2.7-2.8-6-5.5-8.3c-3.4-2.8-8.2-3.7-12-5.9c-3.7-2.2-11.5-6-11.6-10.9c-0.1-5.4,4.3-9.3,7.8-12.6
				c3.5-3.4,6.9-6.6,11.3-8.9c4.6-2.4,9.5-4.1,14.3-5.8c9.6-3.5,18.1-6.8,28.5-5.8c9.6,0.9,20,2.8,27.3,9.4c6.6,6,9.8,14.8,9.1,23.6
				c-0.8,10.4-5.7,19-15.6,22.8c-4.8,1.9-10,1.8-15,2.6c-5.5,0.9-10.9,2.2-16.5,2.3c-8.3,0.2-16.1-1.1-21.1,6.6
				c-4.9,7.5-6.9,15.3-8.4,24.1c1,0.1,2,0.3,2.9,0.4c0.3-6.3-0.5-12.6,1.1-18.8c1.1-4.3,2.1-10.4,4.8-14
				C213.4,112,210.8,110.5,209.7,112L209.7,112z"/>
		</g>
	</g>
	<g id="XMLID_246_">
		<g id="XMLID_413_">
			<path id="XMLID_252_" d="M461.5,255.8c-0.7,6.5,2.3,13.7,5.4,19.2c3.9,6.9,12,8.2,17,13.8c1.3,1.4,3.4-0.7,2.1-2.1
				c-4.6-5.1-12.3-6.5-16-12.4c-3.2-5-6.2-12.5-5.5-18.6C464.7,253.9,461.7,253.9,461.5,255.8L461.5,255.8z"/>
		</g>
	</g>
	<g id="XMLID_481_">
		<path id="XMLID_83_" class="st1" d="M289.8,316c-2.8,2.3-6.2-0.4-14.7-1.5c-2.7-0.3-6.9,4.4-8.3,6.8c-5.3,8.5-14.6,13.2-21.1,20.5
			c-6,6.7-10.4,14.7-16.6,21.2c-7.9,8.3-18.2,15.5-28,21.1c-12,6.9-24.7,12.7-37.1,19.1c-4.1,2.1-7.4,5.1-11.4,7.4
			c-3.1,1.8-6.8,3.1-9.6,5.4c-2.9,2.3-5.4,5.4-9.1,6.7c-4.3,1.5-6.3-1.7-7.9-5.6c-1.5-3.7-1.4-7.7-3.3-11.3c-2.1-4.1-3.1-8-4.2-12.5
			c-1.7-6.8-4.8-13.9-4.9-20.9c0-3,1.2-8.3-0.1-11.1c-1.8-4-6-4.2-9.4-2c-4.1,2.8-4.3,8.2-5.1,12.6c-1,5.4-2.7,10.8-3.3,16.2
			c-1.1,9.5-0.7,20,1.8,29.2c1.4,5.1,3.6,17.2-1.2,20.9c-2.7,2.1-5.4,2.5-7.5,5.4s-3.7,9.3-3.5,12.9c0.7,13.6,21.1,2.7,27.8-0.2
			c5.4-2.3,10.8-4.4,16.4-5.9c11.4-3,22.3-7.3,33.7-10.6c5.9-1.7,12-2.3,17.9-4.4c5.6-2,10.4-5.8,15.4-8.9
			c10.5-6.3,22.6-9.3,32.5-16.7c4.9-3.7,9.8-7.5,15.4-10.1c10.4-4.9,21-8.2,31.1-14c6.2-3.5,13.8-4.4,19.8-8.1c3.3-2,5-4,8.5-5.6
			c3.8-1.7,6.5-4.2,9.4-7.2"/>
	</g>
	<g id="XMLID_475_">
		<path id="XMLID_546_" class="st1" d="M347.6,331.4c-6.8,0.6-12.8,5.7-17.9,10c-8.7,7.2-16.7,14.4-23.9,23.2
			c-7,8.5-14.4,18.8-23.3,25.4c-12.1,8.9-24.1,17.8-35.5,27.7c-8.3,7.3-16.3,14.8-23.7,23c-3.2,3.6-6,7.7-9.6,10.9
			c-3.1,2.7-6.1,5-8.8,8.2c-5.3,6.2-9.6,12.9-13.1,20.3c-1.6,3.5-3.3,7-4.9,10.5c-0.8,1.8-1,4.7-3,5.6c-3-1.8-1.5-8.9-1.5-11.7
			c0-4.7,0.9-8.8,1.5-13.4c0.6-4.4,1.3-8.9,1.9-13.3c0.6-4.6,0.6-6.2-5-8c-8.9-2.8-13.9,4.8-15.4,12.4c-2.5,12.6-2.5,25.7-2.6,38.5
			c0,5.9,2.8,18-2.9,21.4c-3.4,2-7.4,0.4-10.4,3c-3.8,3.2-2.9,8.8-3.7,13.2c-0.7,4-1,6.3,4.1,7.5c3.2,0.8,6.5-0.2,9.8,0.1
			c3.7,0.4,6.3,2.1,10.3,1.3c2.4-0.5,5-1.7,7.2-2.7s4.6-2.1,6.6-3.4c2.2-1.5,3.7-1.8,6-2.9c1.1-0.8,2.1-1.7,2.9-2.8
			c1.3-1.1,2.8-1.7,4.5-1.8c3.3-1.2,7.1-2.2,10.1-3.9c1.7-1.5,3.4-3,5-4.6c3.2-2.3,6.6-4.3,10.1-6.1c5.5-3.2,10.3-7.1,15.3-10.9
			c11.3-8.5,22.8-16.7,34.4-24.6c16.9-11.6,34.9-23.6,49.3-38.3c6.2-6.3,11.4-12.6,18.6-18c6.8-5.2,13.3-10.7,19.5-16.5
			c10.2-9.5,20.3-18,27.8-30c5.4-8.6,11.2-16.4,12.4-26.7"/>
	</g>
	<g id="XMLID_345_">
		<g id="XMLID_388_">
			<path id="XMLID_410_" d="M274.5,306.3c-1.3,1.3-2,2.5-2.6,4.3c-1,3.1-1.8,5.1-3.9,7.6c-3.5,4.3-6.5,8.7-10.8,12.4
				c-3.9,3.4-8.2,6.4-11.8,10.2c-3.6,3.7-6.5,7.9-9.5,12.1c-15.4,21.3-38.1,32.8-61.1,44.3c-5.5,2.7-11.1,5.2-16.2,8.6
				c-5,3.3-10.4,5.9-15.4,9.2c-3.7,2.5-10,11-14.5,5.8c-1.8-2.1-2.3-5.2-2.9-7.8c-0.7-3-1.6-5.5-2.8-8.3c-2.4-5.6-3.5-11.6-5.3-17.4
				c-1.9-6.3-2.9-12-2.5-18.5c0.4-6.4-2.9-13.7-10.6-10.2S97.1,374,95.5,381c-2.4,10.8-2.8,22.2-0.8,33.1c0.8,4.4,2.2,8.6,2.6,13.1
				c0.6,5.9,0.1,10-5.3,13.1c-6.2,3.6-9.6,11.9-8.3,19c2.4,13.5,21.7,3.3,28.7,0.2c10.7-4.8,22.1-7.4,33.3-11.2
				c5.9-2,11.7-4.1,17.7-5.7c6.4-1.8,13.2-2.4,19.4-5c5.2-2.1,9.5-5.6,14.3-8.5c5.7-3.4,11.9-5.9,18-8.6
				c11.9-5.4,21.2-14.4,33.1-19.7c6-2.6,12.1-4.9,18.1-7.6c6.5-2.9,12.5-6.4,19.3-8.7c5.6-1.9,10-4.3,14.9-7.6
				c4.8-3.3,9.4-5.4,13.5-9.6c1.4-1.4-0.8-3.5-2.1-2.1c-3.8,3.8-8,5.9-12.3,8.8c-4.9,3.3-9.1,5.8-14.7,7.7
				c-10.8,3.6-20.7,9.3-31.2,13.7c-4.5,1.8-9,3.6-13.3,6c-4.9,2.7-9.1,6.4-13.7,9.5c-8.9,6.2-19.5,9.2-28.9,14.5
				c-4.5,2.5-8.6,5.7-13.2,8.1c-5.8,3-12.1,3.9-18.4,5.3c-11.4,2.7-22.4,7.4-33.7,10.6c-8.5,2.4-16.5,5.3-24.6,8.9
				c-4.4,2-15.6,7.9-20,3.4c-2.7-2.9-1-8.8,0.1-12c1.1-3.1,2.6-4.9,5.6-6.7c1.8-1.1,3.6-1.9,4.8-3.6c3.6-4.9,2.2-12.8,1-18.3
				C97,410,95.6,399.4,97.2,388c0.8-5.6,2.4-11.1,3.4-16.7c0.4-2,0.6-4.1,1.6-6c2.4-5,10-6.6,10.2,0.9c0.1,3.9-0.7,7.6-0.2,11.5
				c0.9,6,3.1,11.6,4.6,17.4c1.3,5,3.1,9.4,4.8,14.2c1.6,4.5,1.7,9.6,4.6,13.5c5,6.8,11.8,0.2,16.3-3.5c4-3.3,9-5,13.2-7.9
				c5-3.3,9.9-6.3,15.3-9c22.4-11.2,47.2-21.9,63-42.1c3.8-4.9,7.1-10.1,11.1-14.8c3.8-4.4,8.3-7.8,12.7-11.5s7.5-7.8,11-12.3
				c1.2-1.5,2.7-2.9,3.7-4.6c1.6-2.7,1.4-5.9,3.6-8.3C278,307,275.9,304.9,274.5,306.3L274.5,306.3z"/>
		</g>
	</g>
	<g id="XMLID_352_">
		<g id="XMLID_364_">
			<path id="XMLID_370_" d="M347.2,329.9c-6.6,0.9-11.7,4.8-16.7,8.9c-6,4.9-11.9,10-17.4,15.5c-10.9,11-18.9,24.7-31.3,34.2
				c-13,10-26.3,19.5-38.5,30.3c-6.2,5.5-12.2,11.1-17.8,17.2c-5.2,5.5-9.6,11.5-15.4,16.5c-6.4,5.6-11.6,12.3-15.9,19.7
				c-2.3,3.9-4.2,8.1-6.1,12.2c-1.1,2.4-2.7,8.8-4.8,10.3c0.6,0.1,1.2,0.2,1.8,0.2c-2.5-2.2-1.2-7-1.1-9.8c0.2-5,0.9-9.8,1.6-14.8
				c0.6-4.4,1.4-8.9,1.9-13.3c0.2-2,0.4-4.1-0.9-5.8c-3-4-10.5-4.6-14.6-2.3c-5.9,3.3-7.7,10.5-8.7,16.6c-1.6,9.7-1.9,19.5-1.9,29.3
				c0,6.9,2,15.4,0.2,22.1c-1.3,4.8-5.3,4.2-9.3,5.2c-2.9,0.7-5,2.5-6.2,5.2c-1.2,2.6-1.1,5.6-1.4,8.4c-0.2,2.4-1.3,5.5-0.3,7.9
				c2.6,6.2,13.1,3.3,17.9,4.3c3.4,0.7,6.1,1.3,9.5,0.4c3.7-1,7.5-2.9,10.8-4.8c2.9-1.6,6.2-3,8.9-4.8c2-1.3,3.6-2.8,6-3.6
				c2.5-0.9,5-1.6,7.4-2.6c3.9-1.6,6.2-4.6,9.5-7.1c3.7-2.7,7.9-4.5,11.7-6.9c8.3-5.4,16-11.9,24-17.7c8.5-6.2,17.1-12.1,25.7-18.1
				c15.8-10.8,31.8-21.7,45.5-35.3c7.5-7.4,14.4-14.9,22.7-21.4c8.9-7,17.2-14.7,25.4-22.4c7.2-6.7,13.8-13.8,19.2-22.1
				c5.5-8.5,11.1-16.9,12.5-27.1c0.3-1.9-2.6-2.7-2.9-0.8c-1.2,8.5-5.4,15.7-10,22.8c-4.7,7.4-9.9,14.1-16.1,20.3
				c-5.9,5.9-12.2,11.6-18.4,17.2c-6.5,5.8-13.7,10.8-20.1,16.7c-6.2,5.6-11.6,12.1-17.7,17.8c-6.7,6.3-13.8,12-21.2,17.4
				c-14.4,10.6-29.4,20.3-43.9,30.8c-7.2,5.2-14.3,10.7-21.4,16c-6.2,4.6-13.7,7.5-19.5,12.7c-3.6,3.3-7.2,5.1-11.8,6.5
				c-3.7,1.2-5.4,2.1-8.3,4.5c-2.3,1.8-5.5,2.9-8.1,4.4c-3.8,2.2-9,5.1-13.4,5.3c-3.5,0.2-6.8-1.5-10.3-1.6c-4.4,0-11,1.6-11-4.5
				c0-2.7,0.4-6.2,1-8.8c0.6-3,2.4-5.1,5.4-5.9c1.8-0.5,3.7-0.3,5.6-0.9c9.5-3.4,5.2-18.9,5.3-26.3c0-11.1,0.1-22.3,2.1-33.3
				c0.7-4,1.8-8.5,4.9-11.4c3.1-3,11.8-3.9,13.1,1.5c0.5,1.9-0.5,4.7-0.8,6.6c-0.4,2.5-0.8,5.1-1.1,7.6c-0.6,4.4-1.5,8.7-1.8,13.1
				c-0.3,4.5-2.1,12,1.9,15.3c0.5,0.4,1.2,0.6,1.8,0.2c1.5-1,2.1-2.2,2.8-3.9c1.5-3.7,3.1-7.4,4.8-11c3.5-7.6,7.7-14.7,13.1-21.1
				c4.7-5.6,10.7-9.7,15.3-15.4c5.1-6.2,10.6-12,16.4-17.5c12.3-11.7,25.6-22.2,39.3-32.3c5.7-4.2,11.2-8.3,16.1-13.5
				c5.1-5.4,9.5-11.4,14.3-17.1c5.4-6.5,11.4-12.4,17.8-18c6.7-5.9,14.1-13.5,23.3-14.7C349.9,332.6,349.1,329.7,347.2,329.9
				L347.2,329.9z"/>
		</g>
	</g>
	<g id="XMLID_492_">
		<g id="XMLID_572_">
			<path id="XMLID_5_" class="st1" d="M395,344.3c1.9,0,1.9-3,0-3S393.1,344.3,395,344.3L395,344.3z"/>
		</g>
	</g>
	<g id="XMLID_373_">
		<path id="XMLID_554_" class="st1" d="M328.8,435.7c0.9-14.9,15.2-31.4,21.2-44.4c3.6-7.9,7.4-14.5,12-22c4.4-7.1,4.8-12.2,6.5-20
			c3.3-15.1,10.7-22.1,26.4-21.7c12.5,0.3,25,0,37.5,0c31.7,0,62.8,6.3,94.5,6c42.9-0.3,85.8-0.4,128.6,0c10.1,0.1,24.8-6.6,32,1.5
			c4.2,4.8,6.6,11.8,10.2,17.2c5.5,8.1,11.4,16.4,18.3,23.5c14.5,14.8,21,38.5,30.7,57c2.9,5.5,5.1,6.1,0.3,10.5
			c-6.2,5.6-17.3,4.5-24.9,4.4c-19.6-0.3-39.2-0.1-58.9-0.1c-52.9,0-105.7,0.1-158.6,0c-19.3,0-37.8,3-57,3
			c-17.8,0-33.6-1.1-51.1-4.6c-13.5-2.7-27.2,0.2-40.7-1.6c-6.2-0.8-11.5-2.6-17.8-2.8c-6.1-0.1-12.7,1.1-18.7-0.2
			c-4.8-10.1,19.2-22.1,18.7-32.8"/>
		<g id="XMLID_437_">
			<path id="XMLID_453_" d="M330.3,435.7c1.3-15.2,12.6-27.6,19.5-40.6c3.8-7.3,7.3-14.7,11.6-21.8c3.7-6.1,6.1-11.8,7.6-18.8
				c1.3-6.5,2.6-13.4,7-18.5c3.9-4.6,9.6-6.4,15.5-6.7c9-0.5,18.1,0.1,27.1,0.1c9.1-0.1,18.3-0.2,27.4,0.3
				c18.7,0.9,37.2,3.4,55.8,4.7c18.6,1.4,37.2,0.8,55.8,0.8c18.8-0.1,37.6-0.1,56.4-0.1c9.2,0,18.5,0.1,27.7,0.1
				c7.6,0,15,0.4,22.5-0.8c6.3-1,14.9-3.5,20.6,0.5c6,4.3,8.5,13.7,12.6,19.8c4.3,6.4,8.9,12.7,14,18.5c5.3,6,10.4,11.7,14.4,18.8
				c7.4,13,12.1,27.2,18.9,40.5c1.9,3.7,4.8,6.4,1.2,10c-2.9,2.9-7.7,3.7-11.6,4c-7.6,0.6-15.4,0-23.1-0.1
				c-37.5-0.2-75,0.1-112.5,0.1c-18.8,0-37.7,0-56.5,0c-18.6,0-37.3-0.6-55.8,0.7c-18,1.2-35.7,2.8-53.7,2
				c-9.2-0.4-18.4-1.2-27.6-2.7c-8.8-1.4-17.2-2.9-26.2-2.8c-9.5,0.1-18.9,0.5-28.3-1.3c-8-1.6-15-1.7-23.1-1.5
				c-1.6,0-4.7,0.5-6.2-0.1s-1,0.2-1.3-1.4c-0.1-0.5,0-1.2,0.1-1.7c0.5-2.6,2.4-4.9,4.1-6.9c3.4-4.1,7.5-7.7,10.8-11.9
				c2.3-2.9,4.3-6.1,4.3-9.9c0-1.9-3-1.9-3,0c0,5.6-5.4,10.2-8.9,13.9c-3.4,3.6-7.5,7.3-9.5,12c-1,2.3-1.8,6.8,0.8,8.3
				c2.9,1.6,8.4,0.7,11.5,0.5c5.2-0.3,10.2-0.3,15.4,0.7c9.3,1.7,18.1,2.6,27.6,2.4c4.9-0.1,9.7-0.3,14.6,0
				c5.6,0.3,11.1,1.6,16.6,2.5c18,2.9,36.5,3.8,54.7,2.8c19.9-1,39.5-2.7,59.4-2.7c20.2,0,40.3,0,60.5,0c40.5,0,81-0.2,121.5-0.1
				c9.2,0,18.3,0.1,27.5,0.3c6.3,0.1,13.4-0.1,18.7-3.9c3.7-2.7,5.6-5.6,3.4-9.8c-3.7-6.9-7-13.9-10.1-21.1
				c-6.1-14.1-12.2-28.4-22.8-39.8c-6.5-7-12.2-14.5-17.6-22.4c-4.1-6.1-6.3-14.1-11.8-19.1c-4.1-3.7-9.9-3.9-15.1-3.3
				c-7.5,0.8-14.5,2.3-22.1,2.2c-20.4-0.1-40.9-0.2-61.3-0.2c-20.1,0-40.2,0.1-60.4,0.3c-20,0.1-39.9-2.1-59.8-3.9
				c-19.8-1.9-39.5-2-59.4-2c-12.1,0-27.4-2.7-36.1,7.9c-3.7,4.4-5.4,10.1-6.6,15.6c-0.8,3.6-1.4,7.2-2.5,10.8
				c-1.5,4.6-4.1,8.6-6.5,12.7c-4.4,7.4-7.8,15.3-12,22.8c-4,7-8.6,13.7-12.3,20.9c-3.1,5.9-5.6,12.1-6.2,18.8
				C327.1,437.6,330.1,437.6,330.3,435.7L330.3,435.7z"/>
		</g>
	</g>
	<g id="XMLID_380_">
		<g id="XMLID_460_">
			<path id="XMLID_466_" d="M596.7,411.9c-15.1,4.9-31,2.9-46.6,3c-16.4,0.1-34.8,2.2-50.3-4.4c-7-3-13.3-7.2-19.9-10.8
				c-6.9-3.8-14.1-7.1-20.8-11.2c-6.6-4-13.2-8.1-19.7-12.2c-2.2-1.4-4.4-2.8-6.7-4.1c-2.1-1.2-6.1-2.7-6.8-5.2
				c-0.2,0.6-0.5,1.1-0.7,1.7c6.2-2.9,12.1-5.9,18.9-7.2c6-1.2,12-2,18.1-3c12.4-2.1,25-2.8,37.5-4.5c12.6-1.7,25.7-3.5,38.3-3.4
				c6,0,12.4-0.5,18.3,0.8c6.1,1.3,11.3,5,16.8,7.6c10.9,5.2,22.2,9.5,32.9,15.3c10.5,5.7,19.5,13.2,28.9,20.4
				c1.8,1.4,4.3,2.6,6,4.2c3.5,3.1-1.7,4.2-4.4,4.8c-4.6,1-9.5,0.7-14.3,1c-12.9,0.6-25.6,1.4-38.5,1.4c-14.6,0-29.2,0-43.8,0
				c-7.2,0-14.5-0.1-21.7,0c-3.7,0.1-7.2,0.1-10.9-0.6c-2.6-0.5-5.1-1.1-7.8-0.9c-1.9,0.1-1.9,3.1,0,3c3.5-0.3,6.6,1,9.9,1.4
				c2.6,0.3,5.2,0.2,7.7,0.2c7.6-0.1,15.1-0.1,22.7-0.1c14.6,0,29.2,0,43.8,0c14.3,0,28.5-1.2,42.8-1.5c4.1-0.1,19.4,0,19.4-6.8
				c0-3.1-4.3-5-6.4-6.4c-6-4.1-11.5-9.2-17.4-13.5c-11-8-23.1-13.6-35.5-19.1c-6-2.6-11.9-5.3-17.7-8.3c-4.9-2.6-9.5-4.9-15-5.5
				c-13.4-1.6-26.9,0.4-40.3,1.4c-7.7,0.6-15.3,2-23,2.7c-7.8,0.8-15.7,1.5-23.5,2.6c-7.4,1.1-14.7,2.3-22,3.6
				c-7.7,1.3-14.3,4.5-21.3,7.8c-0.6,0.3-0.8,1.1-0.7,1.7c1,4.1,6.6,6,9.9,8c6.4,3.8,12.9,7.7,19.2,11.8c7.8,5.1,15.9,9.2,24.1,13.6
				c7.1,3.9,13.9,8.4,21.4,11.7c15.3,6.8,33.2,5.3,49.5,5.1c16.7-0.2,34,2.2,50.2-3.1C599.3,414.2,598.5,411.3,596.7,411.9
				L596.7,411.9z"/>
		</g>
	</g>
	<g id="XMLID_387_">
		<path id="XMLID_529_" class="st1" d="M496.6,405.9c3.9-3.2,5.5-6.5,6.9-11.3c3-11,7-21.6,10.8-32.4c5-14.4,10.4-28.6,15.3-43
			c3-8.8,7-17.3,10.5-25.9c3-7.4,14.2-2.9,20.6-2.9c32,0,46.5-3.2,71.2-2.3c7.1,0.3,14.7,0.3,21.8,0.3c6.6,0,13.3-0.2,20-0.1
			c7.8,0.2,5.5,7.8,4.1,13c-3.1,11.6-13.3,33.5-17.8,44.6c-6,14.9-10.7,31.8-10.4,47.9c0.1,5.2-0.4,11-3.2,15.5
			c-2.9,4.6-6.6,4.2-11.8,4.1c-9.4-0.2-18.7-0.1-28.1-0.1c-14.3,0-29.4-1.5-43.6,0.3c-13.1,1.7-26.2,1.3-39.3,2.7"/>
		<g id="XMLID_507_">
			<path id="XMLID_472_" d="M497.6,406.9c5.4-4.8,6.8-10.7,8.8-17.4c2.8-9.1,6.1-18,9.2-26.9c6.2-17.5,11.9-35.4,19-52.6
				c1.6-4,3.4-8,5.1-12.1c2.1-5,3.6-7.6,9.3-7.4c6.4,0.2,12.6,1.3,19.1,1.2c14.4-0.2,28.7-1.5,43.1-2.1c15.9-0.7,31.9,0.4,47.8,0.2
				c4.2,0,8.5-0.3,12.7-0.1c2.6,0.1,4.9,0,5.7,2.9c0.4,1.5-0.1,3.3-0.4,4.8c-1.2,5.7-3.3,11.2-5.4,16.6c-5,12.8-11.1,25.2-15.8,38.1
				c-3.1,8.7-5.6,17.6-6.9,26.7c-1.2,8.3,0.3,17.6-2.2,25.6c-1.8,5.7-5.3,7.5-10.9,7.4c-5.1-0.1-10.3-0.1-15.4-0.1
				c-10.4,0-20.7-0.1-31.1-0.4c-11-0.3-21.5,0.4-32.4,1.4c-11.1,1-22.3,0.9-33.4,2c-1.9,0.2-1.9,3.2,0,3c10.8-1.1,21.6-1.1,32.4-2
				c10.6-0.9,20.9-1.8,31.5-1.5c10.1,0.3,20.1,0.4,30.2,0.4c5,0,10,0,15,0.1c3.3,0.1,6.9,0.5,10-0.6c6.1-2.2,7.8-10,8.2-15.7
				c0.8-10.1,0.8-19.7,3.2-29.7c3.9-16.3,11.2-31.3,17.6-46.7c2.7-6.4,5.3-12.8,7.3-19.5c1.1-3.9,3.2-9.8,0.4-13.5
				c-1.1-1.4-2.7-2-4.4-2.3c-5.1-0.8-10.7-0.1-15.8-0.1c-9.6,0.1-19.2-0.1-28.7-0.3c-14.8-0.4-29.6,0.9-44.4,1.6
				c-8.7,0.5-17.6,1.1-26.2,0.6c-5.4-0.3-11.7-2.7-16.9-0.4c-2.4,1.1-3.5,2.9-4.6,5.3c-2.2,5.1-4.4,10.3-6.5,15.5
				c-4.4,10.8-7.9,22-11.9,32.9c-3.9,10.7-7.7,21.5-11.5,32.2c-2,5.7-3.9,11.3-5.6,17.1c-1.5,5.3-3,9.6-7.2,13.4
				C494.1,406.1,496.2,408.2,497.6,406.9L497.6,406.9z"/>
		</g>
	</g>
	<g id="XMLID_223_">
		<g id="XMLID_476_">
			<path id="XMLID_469_" d="M499.7,400.7c-3-0.6-5.7-3.1-8.4-4.5c-2.4-1.2-4.7-2.5-7-3.7c-4.6-2.4-8.7-5.8-13.3-8.4
				c-4.8-2.7-9.5-6.2-14.2-9.2c-4.6-3-9-6.8-14-9.1c-1.7-0.8-3.3,1.8-1.5,2.6c5,2.3,9.4,6.1,14,9.1c5.1,3.3,10.1,6.9,15.4,9.8
				c4.8,2.6,8.9,6.1,13.7,8.7c2.4,1.3,4.8,2.5,7.2,3.8c2.4,1.3,4.6,3.2,7.3,3.8C500.8,404,501.6,401.1,499.7,400.7L499.7,400.7z"/>
		</g>
	</g>
	<g id="XMLID_225_">
		<g id="XMLID_482_">
			<path id="XMLID_462_" d="M452.3,365.5c8,6.4,17.5,10.6,26.1,16.2c3.8,2.5,7.7,5,11.5,7.6c4.1,2.8,7.7,7.1,12.8,7.9
				c1.9,0.3,2.7-2.6,0.8-2.9c-4.4-0.7-8.9-5.4-12.6-8c-3.6-2.5-7.3-4.8-11-7.2c-8.3-5.5-17.7-9.5-25.5-15.7
				C452.9,362.2,450.8,364.3,452.3,365.5L452.3,365.5z"/>
		</g>
	</g>
	<g id="XMLID_227_">
		<g id="XMLID_488_">
			<path id="XMLID_454_" d="M462.9,363.9c7.6,1.8,15.9,7.2,22.5,11.2c6.2,3.8,11.7,8.8,17.8,12.7c1.6,1,3.1-1.6,1.5-2.6
				c-6.5-4.1-12.3-9.6-19.1-13.4c-6.8-3.8-14.3-8.9-21.9-10.8C461.9,360.6,461.1,363.5,462.9,363.9L462.9,363.9z"/>
		</g>
	</g>
	<g id="XMLID_228_">
		<g id="XMLID_494_">
			<path id="XMLID_449_" d="M477.3,362.2c5.5,1,11.6,6.5,16,9.6c4.2,3,9.2,5.1,13.6,7.9c1.6,1,3.2-1.6,1.5-2.6
				c-5-3.1-10.3-5.5-15.1-8.9c-4.3-3.1-10-7.9-15.3-8.9C476.2,359,475.4,361.9,477.3,362.2L477.3,362.2z"/>
		</g>
	</g>
	<g id="XMLID_229_">
		<g id="XMLID_499_">
			<path id="XMLID_419_" d="M489.9,360.6c1.7,0.4,3.4,2.2,4.8,3.3c1.7,1.3,3.5,2.6,5.3,3.9c1.4,1,2.8,2.1,4.4,2.9
				c1.6,0.9,3.5,1.3,4.8,2.6c1.4,1.3,3.5-0.8,2.1-2.1c-1.2-1.1-2.5-1.7-4-2.4c-2.1-1-3.9-2.2-5.8-3.6c-2-1.4-4-2.8-5.9-4.3
				c-1.6-1.2-3-2.7-4.9-3.1C488.9,357.3,488,360.2,489.9,360.6L489.9,360.6z"/>
		</g>
	</g>
	<g id="XMLID_230_">
		<g id="XMLID_505_">
			<path id="XMLID_412_" d="M501.3,358.5c1.4,1.5,3.2,2.6,4.9,3.8c1.7,1.2,3.2,2.5,5.1,3.4c1.7,0.8,3.3-1.8,1.5-2.6
				c-1.7-0.8-3-2-4.5-3.1c-1.6-1.2-3.4-2.3-4.8-3.7C502,355,499.9,357.1,501.3,358.5L501.3,358.5z"/>
		</g>
	</g>
	<g id="XMLID_415_">
		<g id="XMLID_511_">
			<path id="XMLID_411_" d="M509.6,356.2c0.7,0.9,1.6,1.7,2.5,2.5c0.4,0.3,0.8,0.6,1.2,0.8s0.9,0.3,1.2,0.7c1.3,1.4,3.5-0.7,2.1-2.1
				c-0.7-0.7-1.7-0.9-2.5-1.5c-1-0.7-1.8-1.6-2.5-2.5c-0.5-0.6-1.6-0.5-2.1,0C509,354.7,509.1,355.6,509.6,356.2L509.6,356.2z"/>
		</g>
	</g>
	<g id="XMLID_434_">
		<g id="XMLID_517_">
			<path id="XMLID_272_" d="M451.8,373.1c5.4-2.6,12.8-2.3,18.7-2.4c5-0.1,10.4-1,15.3-2.1c5.2-1.2,10.3-2.7,15.5-3.8
				c4.9-1,10.1-1.7,14.8-3.5c1.8-0.7,1-3.6-0.8-2.9c-4.7,1.8-9.9,2.5-14.8,3.5c-5.8,1.2-11.4,3.1-17.2,4.2c-5.9,1.1-12,1.4-18,1.8
				c-5.1,0.4-10.4,0.4-15.1,2.6C448.5,371.4,450,373.9,451.8,373.1L451.8,373.1z"/>
		</g>
	</g>
	<g id="XMLID_461_">
		<g id="XMLID_524_">
			<path id="XMLID_271_" d="M464.1,382.6c9-1.4,17.5-4.3,26.6-5.4c6-0.7,14.4,0.6,19.8-2.8c1.6-1,0.1-3.6-1.5-2.6
				c-3.1,2-8.1,1.7-11.7,1.9c-3.9,0.2-7.8,0.6-11.7,1.1c-7.6,1-14.8,3.6-22.3,4.8C461.4,380,462.2,382.9,464.1,382.6L464.1,382.6z"
				/>
		</g>
	</g>
	<g id="XMLID_468_">
		<g id="XMLID_531_">
			<path id="XMLID_267_" d="M478.7,392.3c4.9,0,8.9-1,13.6-2.1c4.9-1.1,9.4-3,14.2-4.3c1.9-0.5,1.1-3.4-0.8-2.9
				c-4.3,1.2-8.3,3.1-12.7,4c-4.9,1-9.3,2.2-14.3,2.3C476.7,389.3,476.7,392.3,478.7,392.3L478.7,392.3z"/>
		</g>
	</g>
	<g id="XMLID_234_">
		<g id="XMLID_573_">
			<path id="XMLID_263_" d="M495.8,453.6c6,1.4,11.1,7.1,15,11.7c4.8,5.7,8.8,11.5,7.8,19.2c-1.2,9-9.7,18.8-17.4,23.5
				c-7.9,4.9-18.6,6-27.6,7.4c-9.6,1.5-18.8-0.7-25.7-8c-3.6-3.9-1.5-4.6,2.8-5.9c9.2-2.8,19.2-3,28.7-3.5c5.1-0.3,12-2.6,16.3,0.9
				c3.8,3.1,4.5,9.2,2.2,13.4c-2.5,4.4-8.1,6.6-12.4,8.6c-18.2,8.2-38.7,9.1-58.3,11c-13.7,1.3-35.5,7.3-43.9-7.9
				c-2.5-4.5-3.7-9.7-5.5-14.5c-1.8-4.7-4.9-8.4-4.9-13.6c0-10,0.3-20.1,0.3-30.1c0-5.2-0.7-10.3-0.7-15.4c0-5.3,1-8.3,5.8-10.7
				c3.4-1.7,7.2-2.5,10.9-3.6c4-1.2,7.8-3,11.7-4.7c10.8-4.6,21.1-9.7,31.3-15.4c5.2-3,10.6-6.2,16.3-8.1c4.5-1.5,9-2.3,13.1-4.7
				c3.3-2,0.3-7.2-3-5.2c-4.6,2.7-10.2,3.3-15.1,5.4c-6.1,2.6-11.8,6-17.5,9.2c-11.3,6.4-23.3,12.2-35.6,16.8
				c-6.9,2.6-15.8,3.4-20.9,9.4c-6.1,7.1-2.4,20.5-2.4,29c0,6.5,0,13,0,19.6c0,5.3-1.1,11,0.9,16.1c1,2.4,2.6,4.5,3.6,7
				c1.1,2.7,1.9,5.5,2.9,8.3c1.8,5.2,3.8,10.4,7.9,14.2c6.1,5.8,14.6,7.3,22.7,7.2c11.3-0.1,22.7-2.1,33.9-3.2
				c11.5-1.1,23.1-2.3,34.3-5.3c9.5-2.6,23.2-6.5,29-15.1c4.6-6.8,3.5-17.4-3.3-22.5c-5.8-4.3-13.3-2.2-19.9-1.9
				c-11,0.6-24.8,0.1-34.7,5.6c-15.5,8.5,10.3,23.1,18.5,24.2c6.3,0.8,12.7-0.6,18.9-1.8c6.2-1.2,12.4-2.1,18.2-4.6
				c9.8-4.2,19.9-14.8,23.3-25c3.3-9.8,0.4-18.1-5.5-25.8c-5-6.5-12-14.8-20.4-16.7C493.6,447,492,452.7,495.8,453.6L495.8,453.6z"
				/>
		</g>
	</g>
	<g id="XMLID_237_">
		<g id="XMLID_586_">
			<path id="XMLID_255_" class="st5" d="M455.5,405.7c4.7-1.8,9.4-5,14.3-5.8c3.8-0.6,2.2-6.4-1.6-5.8c-5,0.8-9.8,4-14.3,5.8
				C450.3,401.3,451.9,407.1,455.5,405.7L455.5,405.7z"/>
		</g>
	</g>
	<g id="XMLID_177_">
		<path id="XMLID_199_" class="st4" d="M503.5,202.8c-0.3,0.5-0.7,1-1,1.5c-0.3,0.6-0.7,1.2-1.1,1.8c-0.8,1-1.5,2.1-2.4,3
			c-0.5,0.4-0.9,0.6-1.5,1c-0.5,0.3-0.8,0.7-1.3,1c-1.1,0.6-2,1.5-3,2.1c-1.1,0.7-2.2,1.4-3.4,2c-0.5,0.2-1,0.3-1.5,0.6
			c-0.3,0.2-0.6,0.5-0.9,0.7c-0.5,0.3-1.1,0.4-1.7,0.5c-1.8,0.3-3.7,0-5.5,0.2c-2.8,0.4-5.7,0.1-8.5,0.4c-3,0.4-6,1-9.1,1
			c-3.7,0-7.4,0.2-11.1,0.2c-1.7,0-3.3,0-5,0c-0.8,0-1.7-0.2-2.5-0.3c-0.7-0.1-1.2-0.5-1.8-0.9c-0.9-0.7-1.8-1.5-2.7-2.2
			c-1.3-1.1-3.7-5.4-4-6.9l-0.2-1.4c-0.3-1.7,1.4-4.8,2.4-6.3c0.7-0.9,1.4-1.8,2-2.8c0.6-1.1,1.1-2.2,1.5-3.3c0.4-0.9,0.8-1.9,1-2.8
			c0.1-0.4,0.2-1.1,0.5-1.5c0.5-0.7,1.3-0.7,1.2-1.7c0-0.6-0.3-1.1-0.8-1.5c-0.2-0.1-0.5-0.1-0.7-0.3c-0.4-0.2-0.6-0.5-1-0.7
			c-0.7-0.4-1.6-0.7-2.2-1.4c-0.4-0.6-0.4-1.8-0.5-2.5c-0.2-1.3-0.5-2.3-1-3.5c-0.1-0.4-0.4-0.8-0.5-1.2c-0.1-0.7,0.3-1.6,0.7-2
			c1.2-1.2,3.5-1.8,5.1-2.1c3.1-0.5,6.2-0.2,9.3-0.3c1.9-0.1,4-0.8,5.5-2c0.6-0.5,0.9-1,1.4-1.6c0.6-0.6,1.3-1.1,2-1.6
			c2.2-1.6,4.4-2.8,6.8-4c2.1-1,4.1-2.7,5.9-4.1c3-2.2,5.4-5.1,8.6-7c1.5-1,3.2-1.5,5-1.8c2.8-0.6,5.6-1.3,8.5-1.4c1.7,0,3.3,0,5,0
			c1.9,0,3.6,0.3,5.4,0.6c3.3,0.7,6.3,2.1,9.4,3.3c1.6,0.6,2.9,1.7,4.3,2.6c0.5,0.4,1,0.6,1.2,1.2c0.4,1,0.3,2.2,0.4,3.2
			c0.4,2.7,0.9,5.4,0.6,8.2c-0.2,1.7-0.9,3.4-1.6,5c-1.1,2.4-1.7,5-3.2,7.2c-2.5,3.5-5.5,6.6-8.5,9.8c-0.7,0.7-1.3,1.5-1.6,2.5
			c-0.2,0.8-0.4,1.7-0.4,2.5"/>
	</g>
	<g id="XMLID_317_">
		<g id="XMLID_107_">
			<path id="XMLID_6_" d="M442.1,187.4c-0.7,5.3-3.5,9.4-6.5,13.8c-1.8,2.7-3.4,5.5-2.3,8.8c1.5,4.8,6.9,7,11.3,8.3
				c5.4,1.6,11.3,2.1,17,1.9c5.5-0.3,10.9-0.8,16.4-1c4.3-0.2,8.3,0,12.2-2.1c7.2-4.1,13.3-10.7,17.9-17.5
				c5.2-7.7,10.6-16.2,14.1-24.9c2.4-5.9,4.6-13.6,0.8-19.4c-4.1-6.3-13.1-6.8-19.8-6.9c-4.9-0.1-10-0.4-14.8-0.2
				c-4,0.2-6.5,2-9.2,4.7c-7.1,7.2-17.8,9.2-24.5,17c-1.3,1.5,0.9,3.6,2.1,2.1c4.8-5.6,11.7-7.9,17.9-11.6c2.5-1.5,4.5-3.3,6.6-5.4
				c3.6-3.7,7.2-3.8,12-3.7c7.3,0.3,15.2-1,22.2,1.8c8.5,3.5,6.9,12.4,4.2,19.5c-2.8,7.3-7.4,13.8-11.3,20.5
				c-4,6.9-8.8,12.8-15,17.7c-3.7,2.9-6.6,4.8-11.5,5c-4.8,0.3-9.6,0.4-14.4,0.7c-5.5,0.4-10.7,0.7-16.1-0.1
				c-4.7-0.7-13-2.1-14.9-7.2c-1.5-4,3.7-9,5.5-12.2c1.8-3.1,2.8-6.2,3.3-9.8C445.3,185.5,442.3,185.5,442.1,187.4L442.1,187.4z"/>
		</g>
	</g>
	<g id="XMLID_310_">
		<g id="XMLID_372_">
			<path id="XMLID_378_" d="M481.1,169.4c-9.3,0-19-0.9-28.3,0.1c-6,0.7-15.8,0-18.5,7c-2.2,5.6,3.4,9.8,8.1,11.5
				c3.3,1.2,7,1.2,10.5,1.2c4.6-0.1,7.7-2.3,12.1-3.3c1.9-0.4,1.1-3.3-0.8-2.9c-2.5,0.6-4.6,2-7.1,2.7c-2.8,0.8-6.1,0.6-9,0.4
				c-3-0.2-5.9-1-8.4-2.8c-2.9-2-3.3-6.7,0-8.7c1.7-1,3.9-1,5.8-1.2c11.9-1.1,23.6-1,35.6-1C483,172.4,483,169.4,481.1,169.4
				L481.1,169.4z"/>
		</g>
	</g>
</g>
</svg>
