<?xml version="1.0" encoding="utf-8"?>
<!-- Generator: Adobe Illustrator 19.0.0, SVG Export Plug-In . SVG Version: 6.00 Build 0)  -->
<svg version="1.1" id="Calque_1" xmlns="http://www.w3.org/2000/svg" xmlns:xlink="http://www.w3.org/1999/xlink" x="0px" y="0px"
	 width="699px" height="238px" viewBox="-50 182 699 238" style="enable-background:new -50 182 699 238;" xml:space="preserve">
<g id="XMLID_1_">
	<g id="XMLID_26_">
		<path id="XMLID_30_" d="M73.7,403.7c-1.5,1.1,0,3.7,1.4,2.7c2.6-1.8,7.7-0.7,10.6-0.7c3.1,0.1,6.2,0,9.3-0.2
			c6.4-0.3,12.9-1.1,19.3-0.7c7.2,0.4,14.3,1.2,21.5,1.1c6.3,0,12.7-0.2,19.1-0.2c13.4,0.1,27,0.8,40.3-1.1
			c14.4-2,28.3-4.4,42.9-4.4c14.2,0,28.4,0.7,42.6,0.7c28.5,0,56.9,0,85.4,0.6c28.7,0.6,57.5-0.8,86.1-2.8c13.1-1,25.7-3,38.4-6.5
			c13.2-3.7,27.1-5.5,40.5-8.3c13.9-2.9,27.8-5.8,41.6-9.1c10-2.4,20.3-2.9,27-11.5c4.1-5.2,7.1-11.1,11-16.4
			c3.7-5,7.9-9.7,11.7-14.6c7.2-9.4,11.8-19.4,13.6-31.1c1.6-10.8,2.2-22.1-2.1-32.4c-4.5-10.6-11-21.8-18.5-30.4
			c-7.5-9.1-14.9-18.7-24.5-25.8c-4.5-3.4-9.2-7.6-14.5-9.7c-4.5-1.8-9.4-1.3-14.1-1.2c-14.2,0.4-28.2,2.1-42.3,2.9
			c-14.5,0.8-29.2,1.2-43.8,1.3c-28.2,0.1-55.9-5-84.1-5.1c-28-0.2-55.8-0.4-83.8-1.9c-28.7-1.6-57.4-3.5-86.1-5.6
			c-14-1-28-3.3-42-3.5c-7.2-0.1-14.3,0.7-21.5,0.9c-6.9,0.2-13.8,0.1-20.7,0.4c-27.3,1.2-54.8,5.3-81.8,8.9
			c-11.2,1.5-22.6,3.8-32.2,10c-9.1,5.9-16.5,14.3-22.4,23.4C-5.8,245-12.6,257-19.6,268.9c-6,10.2-12.3,20.8-13.8,32.8
			c-1.6,12,3,24.7,5.4,36.4c1.4,6.9,2.1,13.8,3,20.8c0.5,3.7,1.6,7.2,3.5,10.5c4.2,7.2,11.3,12.3,18.5,16.3
			c7.9,4.4,16.5,8.6,25,11.8c12,4.6,25,5.4,37.7,5.9c6.6,0.2,13.1,0.5,19.5,1.9c5.5,1.2,10.5,3.1,16.2,3.3c1.9,0.1,1.9-2.9,0-3
			c-6.2-0.2-11.8-2.5-17.8-3.6c-5-0.9-10-1.3-15.1-1.5c-12.8-0.5-25.7-1-37.9-5.2c-8.8-3.1-17.8-7.6-26-12.2
			c-7.9-4.4-16-10.3-19.3-19.1c-1.8-4.9-1.6-10.4-2.4-15.6c-0.9-6.2-2.2-12.4-3.5-18.5c-1.4-6.8-3.5-13.6-4-20.5
			c-0.5-6.4,0.8-12.6,3-18.5c4.4-11.8,11.8-22.6,18.2-33.4c12.2-20.8,24.2-44.3,49.1-51.4c12.5-3.5,25.6-4.2,38.4-5.8
			c13.6-1.6,27.1-3.6,40.7-4.9c13.3-1.3,26.6-1.4,40-1.8c13.4-0.4,26.3-1,39.7,0.3c53.7,5.2,107.9,9.2,161.9,9.7
			c13.2,0.2,26.4-0.1,39.6,0.1c13.4,0.3,26.6,1.6,39.9,3.1c26.9,3,54.3,2.1,81.3,0.5c13.2-0.8,26.2-2.5,39.4-2.8
			c6.8-0.2,13-0.7,19,3.2c4.8,3.1,9.7,6.7,14,10.4c4.7,4,8.6,8.9,12.6,13.6c4.1,4.9,8.4,9.7,11.9,15.1c6.3,9.8,13.9,20.9,15.6,32.5
			c1.7,11.4-0.2,24.9-4.4,35.5c-4.6,11.8-13.9,20.6-21.3,30.6c-3.6,4.8-6.4,10.3-10,15.1c-4.1,5.6-9,7.6-15.5,9
			c-12.9,2.8-25.7,6-38.7,8.7c-13,2.6-25.8,5.4-38.8,7.8c-12.4,2.3-24.4,6.2-36.9,8c-13.5,1.9-27.3,2.3-40.9,3
			c-13.8,0.7-27.6,1.4-41.4,1.5c-27.1,0.3-54.1-1.1-81.2-0.9c-13.9,0.1-27.9,0.2-41.8-0.1c-13.3-0.3-26.6-1.1-39.9-0.1
			c-12.5,1-24.8,4.2-37.4,5c-13.3,0.8-26.8,0-40.1,0.2c-7,0.1-14,0.4-21,0c-6.2-0.4-12.1-1.2-18.3-0.9c-6.8,0.3-13.5,0.9-20.3,0.9
			C82,402.5,77,401.3,73.7,403.7L73.7,403.7z"/>
	</g>
</g>
</svg>
