<?xml version="1.0" encoding="utf-8"?>
<!-- Generator: Adobe Illustrator 19.0.0, SVG Export Plug-In . SVG Version: 6.00 Build 0)  -->
<svg version="1.1" id="Calque_1" xmlns="http://www.w3.org/2000/svg" xmlns:xlink="http://www.w3.org/1999/xlink" x="0px" y="0px"
	 width="699px" height="240.1px" viewBox="-50 213.9 699 240.1" style="enable-background:new -50 213.9 699 240.1;"
	 xml:space="preserve">
<g id="XMLID_1_">
	<g id="XMLID_124_">
		<path id="XMLID_128_" d="M355,363.4c-16.5,0-32.5,5-49,5c-1.9,0-1.9,3,0,3c16.5,0,32.5-5,49-5C356.9,366.4,356.9,363.4,355,363.4
			L355,363.4z"/>
	</g>
</g>
<g id="XMLID_8_">
	<g id="XMLID_118_">
		<path id="XMLID_122_" d="M266.4,366.5c-3.9-1.3-8-0.9-12.1-1.2c-5-0.5-10-1.5-15-2.1c-10.1-1.3-20.2-2.5-30.3-2.7
			c-1.9,0-1.9,3,0,3c9.6,0.2,19.1,1.4,28.6,2.5c4.4,0.5,8.8,1.3,13.2,1.9c4.8,0.6,10.2,0,14.8,1.5
			C267.4,369.9,268.2,367.1,266.4,366.5L266.4,366.5z"/>
	</g>
</g>
<g id="XMLID_13_">
	<g id="XMLID_112_">
		<path id="XMLID_116_" d="M166,361.4c-21.2-0.1-42-3.9-63-6c-1.9-0.2-1.9,2.8,0,3c21,2.1,41.8,5.9,63,6
			C167.9,364.4,167.9,361.4,166,361.4L166,361.4z"/>
	</g>
</g>
<g id="XMLID_14_">
	<g id="XMLID_106_">
		<path id="XMLID_110_" d="M32.1,350.8c-4.7-5-11.9-7.8-17.4-11.7C8,334.4,1.8,328.9-5.2,324.6c-1.6-1-3.1,1.6-1.5,2.6
			c6.5,4.1,12.3,9,18.5,13.5c5.7,4.1,13.4,7.2,18.2,12.2C31.3,354.4,33.4,352.2,32.1,350.8L32.1,350.8z"/>
	</g>
</g>
<g id="XMLID_16_">
	<g id="XMLID_94_">
		<path id="XMLID_98_" d="M-13.6,288.4c2.7-7.3,7.6-13.3,13.3-18.4c5.2-4.6,10.1-10.2,16.1-13.7c1.7-1,0.2-3.6-1.5-2.6
			C7.7,257.6,2,263.8-3.6,268.9c-5.6,5.3-10.2,11.4-12.9,18.7C-17.1,289.4-14.2,290.2-13.6,288.4L-13.6,288.4z"/>
	</g>
</g>
<g id="XMLID_17_">
	<g id="XMLID_88_">
		<path id="XMLID_92_" d="M74,245.5c12.5,0,25.1-0.2,37.6,0c10,0.2,20.2,1.3,29.8-2.1c1.8-0.6,1-3.5-0.8-2.9c-9.9,3.5-20.4,2-30.6,2
			c-12-0.1-24,0-36,0C72.1,242.5,72.1,245.5,74,245.5L74,245.5z"/>
	</g>
</g>
<g id="XMLID_22_">
	<g id="XMLID_82_">
		<path id="XMLID_86_" d="M187.4,242.4c22.7-3.8,46.6-1.9,69.6-1.9c1.9,0,1.9-3,0-3c-23.3,0-47.4-1.8-70.4,2.1
			C184.7,239.9,185.5,242.8,187.4,242.4L187.4,242.4z"/>
	</g>
</g>
<g id="XMLID_24_">
	<g id="XMLID_76_">
		<path id="XMLID_80_" d="M305,240.5c14-0.2,27.9,1.5,41.9,1.9c14.4,0.5,28.7,1,43.1,1.1c1.9,0,1.9-3,0-3
			c-14.4-0.1-28.7-0.6-43.1-1.1c-14-0.4-27.9-2.1-41.9-1.9C303.1,237.5,303.1,240.5,305,240.5L305,240.5z"/>
	</g>
</g>
<g id="XMLID_31_">
	<g id="XMLID_70_">
		<path id="XMLID_74_" d="M427,240.5c23.3,0,46.7,0,70,0c1.9,0,1.9-3,0-3c-23.3,0-46.7,0-70,0C425.1,237.5,425.1,240.5,427,240.5
			L427,240.5z"/>
	</g>
</g>
<g id="XMLID_38_">
	<g id="XMLID_63_">
		<path id="XMLID_68_" d="M546.8,254.5c10.5,0.5,20.2,4.3,30.1,7.3c4.9,1.5,10,2.6,14.8,4.6c3,1.3,5.7,3.2,9.1,3.2c1.9,0,1.9-3,0-3
			c-3.7,0-7.8-3-11.3-4.2c-5-1.7-10.1-2.9-15.2-4.5c-9-2.8-18-5.9-27.5-6.3C544.9,251.4,544.9,254.4,546.8,254.5L546.8,254.5z"/>
	</g>
</g>
<g id="XMLID_52_">
	<g id="XMLID_49_">
		<path id="XMLID_54_" d="M617,298.4c-2.8,0.3-4.5,1.6-6.4,3.7c-3,3.3-5.9,6.7-8.8,10.1c-3.1,3.6-5.8,7.4-9,10.9
			c-3,3.3-6.8,5.6-9.8,8.8c-1.3,1.4,0.8,3.5,2.1,2.1c2.4-2.6,5.5-4.4,8-6.9c2.7-2.7,5-5.7,7.4-8.6c2.3-2.8,4.6-5.5,7.1-8.2
			c2.3-2.5,5.8-8.4,9.5-8.8C618.9,301.2,618.9,298.2,617,298.4L617,298.4z"/>
	</g>
</g>
<g id="XMLID_59_">
	<g id="XMLID_42_">
		<path id="XMLID_47_" d="M566,346.4c-7,0-12.8,3.2-19.2,5.7c-7.6,3-15.1,6.1-22.6,9.5c-1.8,0.8-0.2,3.4,1.5,2.6
			c7.2-3.2,14.5-6.3,21.8-9.2c6.1-2.4,11.7-5.6,18.4-5.6C567.9,349.4,567.9,346.4,566,346.4L566,346.4z"/>
	</g>
</g>
<g id="XMLID_66_">
	<g id="XMLID_35_">
		<path id="XMLID_40_" d="M472,365.4c-11.6,0.3-23.3,0.5-34.8,2c-5,0.6-9.6,2.1-14.7,2c-5.5-0.1-11.1-0.1-16.6-0.1c-1.9,0-1.9,3,0,3
			c5.2,0,10.5-0.1,15.7,0c5.3,0.1,9.7-1.1,14.9-1.9c11.6-1.7,23.6-1.8,35.4-2.1C473.9,368.3,473.9,365.3,472,365.4L472,365.4z"/>
	</g>
</g>
<g id="XMLID_132_">
	<g id="XMLID_144_">
		<path id="XMLID_4_" d="M243,364c-4.2,7.7-9.3,14.9-13.5,22.6c-3.9,7.2-8.5,14.2-13.2,21c-1.6,2.3-3.1,5.3-4.3,1.3
			c-0.3-1.1,0-2.7,0.1-3.8c0.1-4-1.2-7.6-1.5-11.6c-0.1-1.9-3-1.9-3,0c0.1,5.2,0.2,9.4,1.3,14.3c0.6,2.8-0.9,6.6,2.2,8.4
			c2.2,1.3,4.7-0.1,6.7-1c5.3-2.6,10.8-4.8,16.1-7.4c1.7-0.8,0.2-3.4-1.5-2.6c-3.3,1.6-6.7,3-10.1,4.5c-2.2,1-8.6,5.7-10.3,1.6
			c-0.3-0.6,0.2-2.2,0.1-2.9c-0.2-1.4-0.9-2.6-1.2-4c-0.9-3.5-0.3-7.4-0.3-10.9c-1,0-2,0-3,0c0.3,4.7,1.4,9.2,1.4,13.9
			c0,2.3,0.2,5.3,2.3,6.7c2.7,1.8,4.1-0.4,5.7-2.4c3.5-4.4,6.4-9.4,9.5-14c3.2-4.7,5.7-9.8,8.5-14.8c3.1-5.4,6.6-10.5,9.7-15.9"/>
	</g>
</g>
</svg>
