<?xml version="1.0" encoding="utf-8"?>
<!-- Generator: Adobe Illustrator 19.0.0, SVG Export Plug-In . SVG Version: 6.00 Build 0)  -->
<svg version="1.1" id="Calque_3" xmlns="http://www.w3.org/2000/svg" xmlns:xlink="http://www.w3.org/1999/xlink" x="0px" y="0px"
	 width="800px" height="600px" viewBox="0 0 800 600" style="enable-background:new 0 0 800 600;" xml:space="preserve">
<style type="text/css">
	.st0{fill:#221F2D;}
	.st1{fill:url(#XMLID_2_);}
	.st2{fill:url(#XMLID_3_);}
	.st3{fill:#FFFFFF;}
	.st4{opacity:0.47;fill:url(#XMLID_4_);}
	.st5{fill:url(#XMLID_5_);}
	.st6{fill:url(#XMLID_6_);}
	.st7{opacity:0.47;fill:url(#XMLID_7_);}
</style>
<rect id="XMLID_779_" x="0.1" class="st0" width="800" height="600"/>
<linearGradient id="XMLID_2_" gradientUnits="userSpaceOnUse" x1="362.6037" y1="388.3377" x2="564.822" y2="236.9226">
	<stop  offset="0" style="stop-color:#FFFFAB"/>
	<stop  offset="1" style="stop-color:#FFFFAB;stop-opacity:0"/>
</linearGradient>
<path id="XMLID_637_" class="st1" d="M604.9,277.2c-5.5-7.3-11-14.6-16.5-21.9c-14.2,11.2-30.7,19.5-48.1,24.4
	c-3.2,0.9-6.6,1.7-9.9,1.3c-2.4-0.3-4.9-1.3-6.5-3c-2.4-6.9-2.4-14.6-2.2-21.9c0.2-7.8,0.4-15.7-0.3-23.5c-0.4-4-1.2-8.4-4.3-11
	c-2.9-2.5-7.2-2.7-10.9-1.6c-3.7,1.1-6.8,3.4-9.9,5.7c-3.7,2.8-7.4,5.6-10.9,8.6c-7.8,6.7-14.7,14.4-20.6,22.9
	c-0.7,0.1-1.5-0.3-1.8-1c-7.8,5.3-16.6,9-25.8,10.9c-11.1,2.3-23.3,2.1-32.6,8.6l0.1,0.1c-5.8,0.7-11.7,1.7-16.8,4.4
	c-6.1,3.1-10.8,8.3-15.4,13.4c-4.5,5-8.9,10.1-13.3,15.1c-0.3,0.4-0.7,0.8-0.7,1.4c0,0.7,0.6,1.2,1.2,1.6c4.7,3.1,10.1,4.9,15,7.6
	c4.9,2.7,9.5,6.9,10.5,12.4l0.5-0.9c19.3-2,38.8-1.7,58.1,0.7c3,0.4,6.5,0.7,9.4-0.1c15,1.7,30,3.4,45.1,4.9
	c2.1,0.2,4.2,0.4,6.2,0.1c5.9,1.2,11.9,1.5,17.8,0.8c4.4-13.4,9.9-26.5,16.4-39.1c0.6-1.3,1.3-2.5,2.5-3.3c1.3-0.9,2.9-1,4.5-1.1
	c21.7-1.4,43.5-1.9,65.3-1.5C611.8,286.7,608.2,281.6,604.9,277.2z"/>
<g id="XMLID_733_">
	<g id="XMLID_805_">
		<path id="XMLID_773_" d="M444.6,56.6c-5,0.9-9,8.3-11.5,12.1c-4.9,7.5-10.9,13.1-17.2,19.4c-6,6-12.5,11.1-19.2,16.3
			c-6.7,5.2-12.5,10.9-18.4,17c-5.3,5.4-9.6,10.8-14.1,17c-4.7,6.6-10.9,11.6-15.6,18.1c-5.2,7.2-11.5,12.9-17.5,19.3
			c-6,6.4-11.3,13.4-17,20.2c-5.5,6.7-11.7,12.6-17.6,18.9c-6.1,6.6-11.7,13.7-17.8,20.3c-5.8,6.3-11,13.1-16.6,19.6
			c-5.5,6.5-11.8,12.2-17.4,18.7c-5.4,6.3-11.4,12-17.4,17.9c-6.7,6.6-12.6,13.9-19.1,20.7c-11.4,12-22.1,25.4-32,38.7
			c-11.8,15.8-22.2,32.6-35.5,47.1c-6.8,7.4-14.1,14.3-21.6,21.1c-1.9,1.7-3.3,3.7-5.7,4.9c-1.5,0.8-3.1,1.2-4.5,2
			c-2.9,1.7-4.7,4.6-6.4,7.5c-1,1.7,1.6,3.2,2.6,1.5c2.6-4.5,4.7-5.9,9.3-8.1c3.2-1.5,5-4,7.7-6.3c6.3-5.3,12-11.3,17.7-17.2
			c11.4-11.8,20.8-25.3,30.2-38.7c20.1-28.4,43.1-54.7,67.8-79.2c23.9-23.7,43.8-51.3,67.5-75.2c12.1-12.1,21.6-26.4,33.9-38.4
			c6-5.8,10.2-12.7,15.8-18.8c2.4-2.6,5.2-4.8,7.5-7.5c2.4-2.8,4.5-6,6.7-9c5.5-7.3,11.6-14,18.1-20.5c6.7-6.5,14.6-11.7,21.7-17.7
			c6.7-5.5,13.3-11.9,19.1-18.3c2.8-3.1,5.1-6.4,7.3-9.9c1.9-2.9,5.8-10,9.7-10.8C447.3,59.1,446.5,56.2,444.6,56.6L444.6,56.6z"/>
	</g>
</g>
<g id="XMLID_697_">
	<g id="XMLID_753_">
		<path d="M352.5,76c0.1,2.2-4.3,4.5-5.7,5.9c-2.6,2.5-4.7,5.5-7.1,8.2c-4.9,5.5-10.3,10.7-15.8,15.6c-5.1,4.5-9.9,9-14,14.5
			c-4.2,5.7-7.8,11.9-11.5,17.9c-4,6.4-7.6,12.6-13.3,17.6c-5,4.4-8.7,8.7-12.3,14.3c-4.5,7-10.4,12.7-15.9,19
			c-5.1,5.8-10.1,11.5-15.4,17c-5,5.3-10,10.5-14.9,15.9c-4.8,5.3-10,9.4-15.3,14.1c-5.3,4.6-8.7,10.2-12.7,15.9
			c-4.2,5.9-9.4,11.3-13.9,17c-8.9,11.1-20.3,19.7-29.6,30.5c-10.1,11.8-21,23.3-32.4,34c-5.9,5.6-12.7,10.2-18.8,15.6
			c-6.1,5.3-12.1,10.8-17.4,16.9c-5.3,6.2-10.3,12.7-16.6,17.9c-2.8,2.3-4.8,4.9-7.3,7.5c-2.1,2.1-4.2,3.4-5.8,6
			c-1,1.7,1.6,3.2,2.6,1.5c1.5-2.6,3.9-3.9,6-6c2.4-2.5,4.5-4.9,7.2-7.2c5.6-4.8,10.3-10.7,15-16.3c9.6-11.3,21.1-20.5,32.7-29.8
			c6.1-4.9,11.5-10.7,16.9-16.4c5.5-5.8,11.4-11.4,16.7-17.5c9.5-11.1,20.6-20.5,30.4-31.4c4.6-5.1,8.5-10.7,13.1-15.8
			c4.7-5.2,7.8-11.5,12.6-16.6c4.9-5.3,11.1-9.2,16.1-14.5c4.9-5.2,9.6-10.5,14.5-15.6c5.5-5.7,10.9-11.5,16-17.5
			c4.8-5.6,10.2-10.8,14.8-16.7c4.8-6.1,8.2-12.7,14.1-17.9c5-4.4,8.8-8.9,12.3-14.6c4.3-7,8.4-14.2,13.2-21
			c5-7.1,11.3-12.5,17.6-18.3c6.2-5.8,12-11.9,17.5-18.4c2.2-2.6,4.7-4.3,7.2-6.5c1.5-1.3,2.3-2.6,2.2-4.6
			C355.4,74.1,352.4,74.1,352.5,76L352.5,76z"/>
	</g>
</g>
<g id="XMLID_731_">
	<g id="XMLID_799_">
		<path id="XMLID_767_" d="M624.7,76.2c-8.6,17.1-19.3,33-27.6,50.2c-4.1,8.5-8.7,16.7-13.5,24.8c-4.8,8.1-9.2,16.6-14.4,24.5
			c-10.4,16-22,31.7-30.4,49c-8.7,17.7-20.8,33.7-32.3,49.7c-11.8,16.4-22.4,33.4-35.2,49.2c-12.2,15.1-23.5,31.1-34.6,47
			c-5.4,7.8-11.6,14.8-16.4,23c-5,8.5-11.2,16.4-16.9,24.5c-11.3,16.1-23.2,31.8-34.7,47.9c-13.1,18.4-26.5,36.5-38.8,55.4
			c-6.3,9.6-11.9,20-19.8,28.4c-7.2,7.7-13,16.6-20.2,24.2c-1.3,1.4,0.8,3.5,2.1,2.1c6.4-6.8,11.3-14.7,17.7-21.5
			c6.5-6.9,11.5-14.1,16.6-22c11-17.2,22.3-34.2,34.4-50.6c11.8-16.1,23.1-32.5,35.2-48.4c6.2-8.1,11.8-16.5,17.7-24.8
			c5.4-7.6,9.9-15.9,15.4-23.3c11.9-16.1,23.6-32.2,35.5-48.3c5.9-7.9,12.3-15.4,18.3-23.3c6.1-8.1,11.4-16.7,17.1-25.1
			c11-16.2,22.8-31.6,33.2-48.2c5.2-8.3,9.4-17.1,14.4-25.6c5-8.5,10.5-16.6,15.7-24.9c11.4-18.3,23.4-36.4,33.2-55.6
			c4.7-9.3,9.1-18.5,14.7-27.4c5.9-9.4,11.2-19.4,16.2-29.3C628.2,76,625.6,74.5,624.7,76.2L624.7,76.2z"/>
	</g>
</g>
<g id="XMLID_726_">
	<g id="XMLID_793_">
		<path id="XMLID_761_" d="M504.7,64.2c-4.8,9-11.9,16.3-19,23.5c-6.9,7.1-11.3,15.6-17.8,23c-6.5,7.4-12.6,15-19.7,21.9
			c-3.1,3.1-7.2,5.7-9.8,9.2c-2.5,3.4-4.1,7.5-6.7,11c-11.9,16.3-25,31.7-37.2,47.9c-13.2,17.5-28.3,33.3-43.1,49.5
			c-13.1,14.3-25.6,28.9-37.3,44.3c-6.6,8.7-12.5,18.2-19.9,26.2c-6.5,7.1-12.3,14.2-17.8,22.2c-5.8,8.5-13.2,15.3-19.8,23.2
			c-6.4,7.7-12.3,15.8-18.6,23.5c-13.2,16.1-28.6,29.9-42.5,45.4c-7.7,8.5-13.9,18.1-21.6,26.7c-8,8.8-15.4,18.2-22.8,27.5
			c-14.7,18.3-31.3,34.8-46.2,52.9c-1.2,1.5,0.9,3.6,2.1,2.1c13.3-16.1,28.2-30.9,41.5-47c6.8-8.2,13.3-16.7,20.1-24.9
			c6.4-7.7,13.7-14.6,19.4-22.8c12.1-17.4,28.6-30.9,42.6-46.6c13.7-15.3,25.5-32.1,39.6-47.1c6.4-6.8,10.8-15.2,16.7-22.5
			c6.1-7.5,13.1-14.1,18.6-22.1c6.4-9.3,13.4-18.2,20.3-27.1c6.1-7.9,13.1-14.8,19.5-22.5c13.6-16.3,29-30.9,42.4-47.3
			c6.6-8.1,12.8-16.5,19.4-24.6c6.5-7.9,12.1-16.5,18.6-24.4c3.1-3.8,6.2-7.6,9.1-11.5c3.3-4.6,5.1-9.7,9.4-13.5
			c8.5-7.4,15.5-15.8,22.9-24.2c7.2-8.1,12.4-17.7,20-25.5c7.5-7.6,15-15.3,20.1-24.8C508.2,64.1,505.6,62.5,504.7,64.2L504.7,64.2z
			"/>
	</g>
</g>
<g id="XMLID_725_">
	<g id="XMLID_787_">
		<path id="XMLID_755_" d="M556.5,68c-0.2,3.6-5.2,8.7-7.1,11.7c-2.5,4-5.2,7.7-7.9,11.5c-5.4,8-10,16.7-14.9,25
			c-4.8,8.3-9.1,16.4-15.7,23.4c-5.8,6.3-11.2,12.8-16.2,19.8c-11.3,16.1-21.3,32.9-33,48.7c-12,16.3-23.5,32.9-35.1,49.5
			c-11.4,16.3-22.6,32.9-34.6,48.8c-5.8,7.8-11.1,16-17,23.7c-6.1,8-12.8,15.6-19.5,23.1c-13.2,14.6-26.1,29.4-38.4,44.7
			c-5.8,7.1-10.4,14.9-15.5,22.5c-5.3,8-11.5,15.5-16.7,23.5c-2.9,4.4-5.4,8.9-8.9,12.9c-3.1,3.6-6.3,7.1-9.2,11
			c-6.9,9.3-12.9,19.3-20.3,28.3c-5.9,7.2-12.7,13.2-17.3,21.5c-2.4,4.4-5.5,7.9-8.5,11.8c-2.9,3.8-3.9,8.8-6.9,12.4
			c-1.2,1.5,0.9,3.6,2.1,2.1c2.2-2.7,2.9-5.8,4.5-8.9c2.1-4,5.6-7,8.2-10.7c2.4-3.4,4-7.3,6.5-10.7c2.7-3.8,6.1-7.2,9.3-10.6
			c6.4-7,11.7-14.9,17.1-22.7c5.9-8.4,12.4-16,18.7-24c5.4-6.8,9.6-14.6,14.9-21.6c5.8-7.8,10.9-16,16.2-24.1
			c5.8-8.9,12.9-17,19.7-25.1c6.4-7.7,12.9-15.3,19.7-22.6c13.1-14.3,25.6-28.8,36.5-44.8c11.2-16.5,23.3-32.4,34.8-48.8
			c11.8-16.8,23.4-33.6,35.4-50.3c6.1-8.5,12.6-16.8,18.2-25.5c5.3-8.2,10.5-16.5,16-24.6c6.3-9.1,12.6-17.9,20.1-26
			c7-7.5,11.7-15.7,16.8-24.5c5.4-9.4,10.6-19.2,16.9-28c3-4.2,5.7-8.5,8.5-12.8c2.2-3.2,5.1-5.7,5.3-9.7
			C559.6,66.1,556.6,66.1,556.5,68L556.5,68z"/>
	</g>
</g>
<g id="XMLID_723_">
	<g id="XMLID_781_">
		<path id="XMLID_744_" d="M681,145.6c-2.8,7.3-8.6,12.7-13.4,18.7c-4.7,5.8-8,12.7-12,19c-9.1,14.3-18.9,28.4-26.7,43.4
			c-7.7,14.8-14,30.3-22.9,44.3c-9.2,14.5-20.3,28-28.6,43.2c-8,14.7-17.5,28.5-25.3,43.3c-7.9,15.1-18.3,29-26.9,43.7
			c-9.1,15.4-17.6,31-26.3,46.6c-8.5,15.1-16.1,30.6-25.7,45c-2.7,4-5.7,7.8-8.2,11.9c-2.5,4-4.3,8.3-6.6,12.3
			c-4.7,8-10.3,15.4-15.1,23.3c-5,8.3-10.3,16.4-15.5,24.7c-2.2,3.5-4.8,6.6-6.5,10.4c-1.7,3.7-2.5,8.7-5,11.9
			c-1.2,1.5,1.4,3,2.6,1.5c1.8-2.4,2.3-5.4,3.4-8.1c1.6-4.2,3.7-7.7,6.3-11.4c4.9-7.1,9.5-14.5,13.9-21.9
			c4.4-7.3,8.9-14.4,13.6-21.5c4.6-6.8,7.8-14.4,12.4-21.1c4.9-7.3,10-14.4,14.5-22c4.4-7.4,8.2-15.2,12.4-22.8
			c8.6-15.5,17-31.1,26-46.4c9-15.3,18.3-30.4,27.9-45.3c4.5-6.8,7.6-14.4,12-21.3c4.5-7.1,9.1-14.1,13.3-21.5
			c4.4-7.7,8.4-15.4,13.4-22.7c4.8-7,9.4-14.1,14.2-21.1c9.6-13.9,16.9-28.7,24.3-43.9c8.5-17.4,18.9-33.7,29.5-49.9
			c5-7.7,9-16.1,15-23.2c4.9-5.8,10-11.1,12.7-18.3C684.6,144.6,681.7,143.8,681,145.6L681,145.6z"/>
	</g>
</g>
<g id="XMLID_721_">
	<g id="XMLID_775_">
		<path id="XMLID_738_" d="M731.6,178.6c-1.1,3.2-3.2,5.9-4.9,8.8c-2,3.7-3.6,7.6-5.5,11.4c-3.3,6.8-7.3,13.3-11.2,19.7
			c-8.6,14.1-16.1,28.9-23.9,43.6c-7.7,14.5-15.9,28.8-23.6,43.3c-3.7,6.9-7.2,13.9-10.6,20.9c-3.4,6.9-7.9,13.2-11.8,20
			c-8,13.8-15.6,27.7-23.8,41.4c-8.5,14-15.9,28.5-24.5,42.4c-4.1,6.7-8.9,12.9-13.3,19.4c-4.6,6.7-8.7,13.8-13.1,20.8
			c-8.3,13.2-15.2,27.3-22,41.3c-3.9,7.9-7.3,15.4-12.3,22.7c-4.9,7.2-9,14.8-14.4,21.7c-5.2,6.5-10.7,12.8-16.1,19.2
			c-2.9,3.5-6,6.9-8.8,10.5c-2.4,3.1-3.4,7.4-5.8,10.3c-1.2,1.5,0.9,3.6,2.1,2.1c1.7-2,2.2-4.2,3.4-6.6c2.1-4.1,5.6-7.7,8.6-11.2
			c5.1-6.1,10.3-12.1,15.3-18.2c4.6-5.5,9-11.2,12.7-17.4c3.7-6.2,8.3-12.1,11.7-18.5c7.4-14,13.6-28.7,21.1-42.6
			c7.7-14.3,16.8-28,26.2-41.2c9.5-13.2,16.7-27.7,24.9-41.7c8.3-14.2,17.3-27.9,25-42.4c3.7-7,7.6-13.7,11.8-20.4
			c4.2-6.7,7.5-13.9,11.1-21c7.5-14.8,15.8-29.2,23.7-43.9c8.9-16.7,17.3-33.7,27.1-49.9c4.5-7.5,9.3-14.9,13.1-22.8
			c1.8-3.8,3.5-7.7,5.5-11.4c1.7-3.2,3.9-6.1,5.2-9.6C735.1,177.6,732.2,176.8,731.6,178.6L731.6,178.6z"/>
	</g>
</g>
<g id="XMLID_715_">
	<g id="XMLID_769_">
		<path id="XMLID_737_" d="M790.6,217.6c-2.3,6.4-5.8,12-8.7,18.1c-2.6,5.5-4.8,11.2-7.5,16.6c-5.9,12-11.4,24.1-17.8,35.8
			c-12.6,23.4-23.6,47.5-36.8,70.7c-6.2,10.9-10.5,22.5-16.2,33.7c-3,5.8-6.1,11.6-8.7,17.6c-2.5,5.8-4.3,11.9-7.1,17.6
			c-5.7,11.6-12.3,22.9-18.5,34.3c-6.2,11.6-12.3,23.3-18.7,34.9c-7.2,13-14.2,26.1-21.3,39.2c-3.4,6.4-7.2,12.6-10.9,18.8
			c-3.2,5.3-5.3,11.5-9.6,16.1c-1.3,1.4,0.8,3.5,2.1,2.1c3.5-3.7,5.4-8.3,7.7-12.7c3-5.6,6.5-10.9,9.7-16.4
			c6.5-11.4,12.4-23.2,18.7-34.7c13-23.4,24.9-47.4,38.1-70.6c6.4-11.2,10.1-23.3,15.9-34.8c3-5.9,6.1-11.8,9-17.8
			c2.8-5.9,4.8-12.2,7.9-18c6.1-11.7,13-22.9,18.9-34.6c6.1-12.1,11.9-24.4,18.2-36.4c7.1-13.5,13.8-27.1,20.5-40.7
			c3.1-6.3,5.8-12.8,8.8-19.2c3-6.3,6.6-12.2,9-18.8C794.1,216.6,791.2,215.8,790.6,217.6L790.6,217.6z"/>
	</g>
</g>
<g id="XMLID_446_">
	<path id="XMLID_745_" class="st0" d="M526.1,276.6c2.1,2.7,6.4,1.5,9.3,1.5c4.8,0,9.3,0.2,14-1c9.7-2.7,18.5-10.2,26.1-16.5
		c8.4-7,16.4-13.5,22.7-22.5c7-9.9,19.3-14.6,22-27.4c1.6-7.8-0.8-16.8-5.9-22.9c-3-3.6-6.8-6.5-10-9.9c-1.5-1.6-1.9-1.9-2.9-3.7
		c-1.9-3.4-1.4-2.8-4.4-5.6c-2.8-2.5-4.6-5.4-8-7.3c-2.3-1.3-4.9-2.3-7.3-3.3c-7.5-3-14.8,0.1-22.6,0c-7.1-0.1-13.6,1.5-20.7,1.5
		c-5.5,0-10.3-0.8-15.6-1.5c-6.3-0.8-12.3-2.4-18.2-4.9c-2.4-1-4.7-2.5-7.1-3.7c-3.6-1.9-7.4-3.1-11-4.9c-6.3-3.2-13.4-5.2-19.4-9
		c-3.5-2.2-6.3-4.2-10.5-4.6c-3.5-0.4-7.4,0.1-10.9,0.1c-6.4,0-9.9,0.7-15.4,4.5c-5.6,3.9-9,10.2-13.8,15c-5,5-10.5,9.8-16.5,13.4
		c-7.7,4.7-10.8,14.8-15.8,21.8c-2.8,3.9-6.4,10.7-5.3,15.8c1,4.6,13.4,11.9,18.1,12"/>
	<g id="XMLID_740_">
		<path id="XMLID_696_" d="M525,277.6c2,1.9,4,2.2,6.7,2.2c4.1-0.1,8.4,0,12.5-0.4c8.2-0.7,15.4-4.7,21.9-9.4
			c6.8-5,13.3-10.5,19.6-16.1c6.5-5.8,11.2-12.6,17-18.9c4.6-4.9,10.2-8.7,14.3-14c4.3-5.7,5.9-12.5,4.9-19.6
			c-1.1-7.8-5.2-13.8-10.8-19.1c-2.9-2.8-6.2-5.4-8.4-8.8c-1.6-2.6-3-4.3-5.2-6.4c-5.7-5.5-11.5-10.3-19.7-11.5
			c-3.4-0.5-6.8-0.1-10.2,0.3c-5.6,0.7-11.3,0.7-16.9,1.3c-10.2,1.1-19.8,0.9-29.9-0.8c-4.2-0.7-8.4-1.8-12.4-3.2
			c-4.8-1.8-9.1-4.6-13.8-6.7c-8-3.4-16.7-6.6-24.3-10.8c-2.9-1.6-5.6-3.7-8.8-5c-4.2-1.6-8.5-1.3-12.9-1.1
			c-7.4,0.3-13.4,0.7-19.5,5.3c-6.5,4.8-10.7,12.3-16.6,17.8c-6.7,6.2-15.4,10.2-20.6,17.8c-2.4,3.4-4.2,7.2-6.3,10.7
			c-2.1,3.6-4.7,6.8-6.3,10.7c-2.5,5.9-2.7,11,2.2,15.4c4.2,3.7,10.1,7.4,15.8,7.9c1.9,0.2,1.9-2.8,0-3c-5-0.4-11-4.3-14.5-7.8
			c-5.6-5.6,0.2-13.6,3.7-18.9c3.4-5.2,5.8-11.2,9.8-16c4.6-5.4,11.7-8.8,17-13.5c5.5-5,9.5-11.1,14.7-16.2
			c6.1-6.1,12.5-6.9,20.7-7.2c4.4-0.2,8.9-0.5,13,1.4c3.2,1.5,6.1,3.8,9.3,5.4c6,3,12.4,5.5,18.6,8.2c6.9,3,13.3,7,20.5,9.3
			c6.9,2.2,14.3,3.2,21.5,3.9c8.4,0.8,16.4-0.7,24.8-1.1c8-0.3,17.3-2.9,25-0.1c6.6,2.4,12.7,6.9,17.1,12.5c1.4,1.7,2.2,3.8,3.6,5.6
			c2.5,3,5.6,5.4,8.3,8.1c6,5.9,9.6,13.6,8.9,22.1c-0.6,7.4-5.1,12.7-10.3,17.5c-5.1,4.7-9.6,9.2-13.8,14.6
			c-5.3,6.8-12,12.4-18.6,17.9c-6.6,5.5-13.2,11.5-21.1,15.3c-4.7,2.3-9.5,3.4-14.7,3.5c-3.3,0.1-10.9,1.4-13.6-1.1
			C525.7,274.2,523.6,276.3,525,277.6L525,277.6z"/>
	</g>
</g>
<g id="XMLID_445_">
	<g id="XMLID_727_">
		<path id="XMLID_686_" d="M549.6,275.5c-6.4-6.3-11.6-13.9-16.2-21.6c-5.3-8.9-5.1-16.9-2.3-26.7c1.1-3.9,2.4-7.7,3.2-11.6
			c0.6-2.9,0.7-5.7,2.8-8c6.3-6.7,14.6-11.8,22-17.1c2.8-2,5.2-4.2,7.7-6.5c3.9-3.6,8-5.7,13.1-7.1c4.4-1.3,8.7-2.1,13.1-0.4
			c3.1,1.2,6,2.6,9.1,3.8c2.5,1,5.1,1.9,6.5,4.4c1.1,1.8,1.3,4.1,1.7,6.1c0.8,3.4,2.4,6.5,3.2,9.9c1.7,6.9-0.9,18.9-6.2,23.8
			c-1.4,1.3,0.7,3.4,2.1,2.1c4.8-4.4,6-11.3,7.2-17.4c1.3-7.1-1.8-12.5-3.4-19.2c-1.5-6.2-3-9.5-9-12c-5.8-2.4-12.1-6.3-18.6-5.4
			c-7.1,0.9-14.5,3.5-19.9,8.3c-6.3,5.6-13.2,10.3-19.8,15.5c-4.4,3.5-11.9,7.5-13.6,13.3c-1,3.3-1.3,6.7-2.3,10
			c-1.3,4.4-2.8,8.8-3.6,13.3c-1.5,8.2,0,15.2,4.3,22.3c4.8,7.9,10.1,15.7,16.7,22.2C548.9,279,551,276.9,549.6,275.5L549.6,275.5z"
			/>
	</g>
</g>
<g id="XMLID_444_">
	<path id="XMLID_724_" class="st0" d="M339,365.5c-11.8,0.2-23.6-2.6-35-5.5c-3.8-1-8.4-1.9-10-5.9c-0.9-2.1-1.2-4.5-1.6-6.8
		c-0.6-3.2-1.3-6.5-2-9.7c-0.9-4.5-1.6-8.7,0.2-13c0.9-2.2-12.6,0.2-12.5-2.1c0.2-3.3-1.8-2,0-5c1.2-2.1,14.1-7.2,15.1-9.5
		c0.4-0.9,7.8-6.3,8.5-7c1.3-1.2,2.2-1.8,4.3-3.2c2.7-1.9,3.1-2.7,5.1-4.4c1-0.8,1.2-1.3,2.2-1.9c1.9-1.1,3.2-1.3,4-2.2
		c0.7-0.8,1.1-0.7,3.4-2.1c1-0.6,0.5-1.6,1-2.8c-0.5-0.7-5.7-2.2-6.5-2.5l-5.4-3.4c-1.4-1.9-4.6-3.7-5.5-5.8c-0.4-0.9,0.3-4-0.1-4.9
		c-0.3-0.6,1.4-1.4,1.2-2.1c-0.7-2.2,1.6-4.3,2.8-5.9c1.9-2.4,4.1-4.4,5.3-7.3c0.5-1.2,0.9-2,1.6-3c0.5-0.8,0.7-1.8,1.3-2.6
		c1-1.3,2.4-2.4,3.6-3.5c0.9-0.9,1.5-1.8,2.3-2.7c1-1.1,1.9-1,3.1-1.8c0.9-0.6,1.5-1.3,2.5-1.8c4.8-2.7,9.8-2.7,15-3.9
		c3.6-0.9,7.4-1.2,10.9-2.1c1.9-0.5,3.6-1.6,5.3-2.6c6.5-3.7,13.1-7.3,19.9-10.5c9.2-4.3,13.5-4.8,25.1-9.1
		c2.3-0.8,8.9-3.3,11.2-3.9c2.6-0.7,15.7-4,18.2-4.8c4-1.3,2.2,5.8,2.2,17.1L448,221c2.3,1,16.1,2.6,18.5,2.4
		c10.3-0.7,12.3-0.9,19.3-1.2c3.3-0.1,26-23.7,27-20.5c1.4,4.3,9.4,17,10.2,21.4c0.7,3.6-1.3,12.5-0.6,16.1c0.9,5.4-1.4,15.9,0,21.2
		c1,3.8,2,12.6,2.9,16.4c0.7,3.2,2.1,6.1,3.4,9.1c1.5,3.3,5.2,8.4,5.2,12c0,2.7-0.5,5.3-0.5,8c0,3.7,0,7.1-2.1,10.4
		c-1.2,2-3,3.7-4.7,5.4c-1.5,1.6-3.6,2.5-5.2,4c-1.3,1.2-2.8,2.4-4,3.8c-1,1.1-2,1.6-3.2,2.4c-2.1,1.4-4,2.9-6.2,4
		c-1.9,1-10.5,2.3-12.7,2.5c-4.7,0.4-9.3,2.2-13.9,0.7c-3.1-1-5.5-2.2-8-4.4c-1.9-1.6-1.1,2-2.8,0.2c-1.2-1.2-3.3,1.2-4.7,0.1
		c-1.1-0.8-2.6-1.2-3.9-1.7c-0.7-0.2-2-1.1-2.7-1c-0.8,0.1-1.1,0.8-1.5,1.4c-0.8,1.3-1.6,2.6-2.6,3.7c-4.4,4.9-13.5-1.9-19.7-0.7
		c-3.3,0.6-6.6,0.6-9.8,1c-2.4,0.3-4.4,1.5-6.8,2c-5,0.9-10,1.5-14.9,2.6c-2.3,0.5-5.5,2.2-8,1.9"/>
</g>
<g id="XMLID_443_">
	<path id="XMLID_722_" class="st0" d="M395.3,267.3c0-4.3-0.5-7,1.6-10.9c1.3-2.6,0.5-6,1.9-8.5c1.5-2.8,1.8-8,4.5-9.8
		c2.4-1.7,13.2-1.8,16.1-2.5c2.2-0.5,5-0.6,7.2-0.3c1.3,0.1,2.4,0.6,3.7,0.7c1.5,0.1,2.8,0.3,4.2,0.7c2.9,0.9,5.8,2.1,8.4,3.6
		c1.3,0.8,2.6,1.6,4,2.4c1.5,0.9,3.1,1.1,4.7,1.8c2.3,1.1,4.3,2.8,6.6,3.9c3.5,1.7,5.5,4.1,7.4,7.5c1.6,2.8-1.4,5.4-3,7.7
		c-2,2.7-3.7,5.7-5.8,8.4c-1.4,1.8-2.7,3.3-4,5.2c-1.1,1.5-2.9,3.2-4.5,4.1c-2.6,1.6-4.5,3.9-6.7,6c-1.1,1.1-2,1.3-3.3,2
		c-1.5,0.7-2.1,1.7-3.3,2.7c-3.5,3.1-8.1,0.2-10.4-2c-1.5-1.4-3.1-2.8-4.6-4.3c-1.1-1.2-1.9-2.5-3-3.7c-0.9-1-1.9-2.2-3-3
		c-1.4-1-3.2-1.3-4.7-2.3c-2.3-1.6-3.4-5.9-6.1-6.6c-2.2-0.6-4.7-1.8-6.9-2.1"/>
</g>
<linearGradient id="XMLID_3_" gradientUnits="userSpaceOnUse" x1="569.4993" y1="448.4872" x2="437.7676" y2="265.9025">
	<stop  offset="0" style="stop-color:#FFFFAB"/>
	<stop  offset="1" style="stop-color:#FFFFAB;stop-opacity:0"/>
</linearGradient>
<path id="XMLID_597_" class="st2" d="M522.3,337.3c-5.9,0.7-12,0.5-17.8-0.8c-2,0.3-4.2,0.1-6.2-0.1c-15-1.6-30-3.2-45.1-4.9
	c-2.9,0.7-6.3,0.5-9.4,0.1c-19.2-2.4-38.8-2.7-58.1-0.7l-0.5,0.9c-1-5.5-5.6-9.7-10.5-12.4c-4.9-2.7-10.4-4.5-15-7.6
	c-0.6-0.4-1.2-0.9-1.2-1.6c0-0.5,0.4-1,0.7-1.4c4.4-5.1,8.9-10.1,13.3-15.1c4.6-5.1,9.3-10.3,15.4-13.4c5.2-2.7,11-3.7,16.8-4.4
	l-0.1-0.1c9.3-6.5,21.5-6.3,32.6-8.6c9.2-1.9,18-5.6,25.8-10.9c0.3,0.7,1,1.1,1.8,1c5.9-8.4,12.8-16.1,20.6-22.9
	c3.5-3,7.2-5.9,10.9-8.6c3.1-2.3,6.2-4.6,9.9-5.7c3.7-1.1,8-0.9,10.9,1.6c3.1,2.6,3.9,7,4.3,11c0.7,7.8,0.5,15.7,0.3,23.5
	c-0.2,7.4-0.2,15,2.2,21.9c1.7,1.7,4.3,8.7,6.7,9l3.9,18.4L522.3,337.3z"/>
<g id="XMLID_439_">
	<g id="XMLID_711_">
		<path id="XMLID_674_" d="M421.8,289.9c9.5,5.8,16.6,14.4,23.3,23c2.9,3.7,6.5,6.7,9.7,10.1c3.9,4.1,7.2,8.7,11.2,12.7
			c5.8,5.9,12.2,12.5,21.2,11.3c4.3-0.5,8-2.6,12-4.1c4.3-1.6,8.2-2.4,11.8-5.3c3.6-2.9,7.7-5,11.1-8.1c3.3-3,6-6.6,8.3-10.4
			c4.3-7,6.2-15.4,5-23.6c-0.7-4.3-2.6-7.2-5.1-10.7c-3.7-5.1-5-10.8-5.5-17.1c-0.8-11.2-0.5-22.8,0-34.1c0.2-5.3,0.6-10.9-1.4-15.9
			c-1.7-4.5-5-8.1-8.3-11.5c-5-5.1-10.7-14.7-18.9-13.8c-1.9,0.2-1.9,3.2,0,3c7-0.8,13,9,17.4,13.5c3.5,3.7,6.8,7.6,7.9,12.7
			c1.2,5.1,0.3,10.5,0.2,15.6c-0.2,9.5-0.4,19.3,0.1,28.8c0.4,8,2.1,14.9,6.9,21.4c5.9,7.9,5.2,18.9,0.8,27.5
			c-4.2,8.2-10.2,13-17.6,18.2c-1.8,1.3-3.3,3-5.2,4c-1.8,1-4,1.4-5.9,2c-4.1,1.3-8,3.6-12.3,4.5c-10.3,2.2-18.3-8-24.4-14.9
			c-6.6-7.4-13.5-14.5-19.7-22.2c-6-7.4-12.6-14.5-20.8-19.5C421.7,286.3,420.2,288.9,421.8,289.9L421.8,289.9z"/>
	</g>
</g>
<g id="XMLID_438_">
	<g id="XMLID_698_">
		<path id="XMLID_665_" d="M318.3,285.8c-8.8,4.2-15.4,11.2-23.1,17c-4,3-8.2,6-12.4,8.8c-3.2,2.1-6.8,3.2-9,6.4
			c-0.4,0.5-0.2,1.4,0.2,1.8c2.1,1.7,4,2.1,6.6,1.3c4.4-1.2,8.7-2.6,13.3-3.6c5.5-1.2,10.9-2.7,16.5-3.2c5.2-0.4,10.5-0.3,15.8-0.3
			c12.9,0,26.4-0.1,38.7,4.3c6.3,2.2,12.2,5.8,16,11.4c5.2,7.8,5,17.8,5.7,26.7c0.3,4.1,0.5,8.5,1.1,12.5c0.3,2.5,1.5,3.6,4,3.4
			c3.5-0.2,6.3-2.2,9.3-3.7c4.8-2.5,9.8-4.7,14.6-7.1c4.9-2.6,9.9-5.2,14.7-8.1c4.1-2.4,6.9-6,10.3-9.2c4.5-4.4,9.3-7,14.7-10
			c4.7-2.6,7-6.1,10.4-10.2c1.2-1.5-0.9-3.6-2.1-2.1c-3.1,3.7-5.4,7.3-9.8,9.8c-3.6,2-7.3,3.6-10.5,6.2c-3.8,3.1-6.9,6.8-10.5,10.1
			c-3.5,3.2-8.2,5.2-12.3,7.6c-4.2,2.4-8.5,4.6-12.8,6.7c-1.9,0.9-3.8,1.8-5.7,2.7c-2.3,1.1-5.2,3.5-7.7,3.9c-5,0.9-4.1-7-4.4-10.5
			c-0.5-5.1-0.7-10.3-1.4-15.4c-1.6-12.2-7.9-21.3-19.3-26.3c-10.9-4.7-23.2-5.5-34.9-5.7c-8.7-0.1-17.7-0.5-26.4,0.5
			c-5.3,0.6-10.4,2.1-15.6,3.2c-2.7,0.6-5.5,1.1-8.2,1.9c-2.3,0.7-5.5,2.9-7.8,0.9c0.1,0.6,0.2,1.2,0.2,1.8c2.3-3.3,8-5.3,11.3-7.7
			c3.4-2.5,6.9-4.7,10.2-7.3c7.2-5.6,13.6-12.2,22-16.2C321.6,287.5,320.1,284.9,318.3,285.8L318.3,285.8z"/>
	</g>
</g>
<g id="XMLID_436_">
	<path id="XMLID_709_" class="st0" d="M322,446c0,0,0,40.2,0,60.6c0,5.7-0.2,11.4-0.2,17.1c0,3.4-1.4,9.3,1.2,12.1
		c4.4,4.7,12,1.4,17.3,1.3c7.8,0,6.9-5.6,6.8-12.1c0-7.5,0.4-15-0.3-22.4c-0.6-6-2.1-11.9-2.6-17.9c-0.6-6.9-0.1-14.1-0.1-21.1
		c0-5.3,1.1-9.5,1.7-14.7"/>
	<g id="XMLID_704_">
		<path id="XMLID_659_" d="M320.1,445.6c0,17.1,0,34.1,0,51.2c0,8.3,0.1,16.7,0,25c0,4.6-1.7,10.8,1.5,14.7c2.8,3.4,7.4,3.5,11.4,3
			c3.8-0.5,10.3,0,13.3-2.9c2.9-2.7,2.3-7.5,2.3-11.1c-0.1-8,0.5-16-0.4-23.9c-1-8.9-2.8-17.5-2.8-26.6c0.1-8.9,0.6-17.6,1.7-26.5
			c0.2-1.9-2.8-1.9-3,0c-2.1,16.6-2,32.5,0.5,49c1.3,8.5,1,17,1,25.5c0,2.8,0.6,6.4-0.2,9.1c-1.2,3.9-4.7,3.2-7.9,3.6
			c-3.5,0.4-7.5,1.8-10.9,0.5c-4.9-1.8-3.7-7-3.5-11c0.4-8.2,0.1-16.5,0.1-24.7c0-18.4,0-36.7,0-55.1
			C323.1,443.6,320.1,443.6,320.1,445.6L320.1,445.6z"/>
	</g>
</g>
<g id="XMLID_435_">
	<g id="XMLID_692_">
		<path id="XMLID_653_" d="M720.6,453.5c0.1,16.6-1.5,33.2-1.5,49.9c0,7.8,0,15.5-0.2,23.3c-0.1,4.4,0.7,8.6,4.9,10.8
			c5.7,3.1,18.5,4.4,23.1-1.2c5.8-6.9,1.5-20.8,0.6-28.7c-2-19.1-1.5-38.3-1.5-57.5c0-1.9-3-1.9-3,0c0,17.9-0.7,35.9,1.1,53.7
			c0.6,6.5,1.7,13,2.2,19.6c0.5,6.4-0.2,12.4-7.5,13.2c-5.1,0.6-14.8,0.7-16.6-5.4c-1.1-3.5-0.2-7.9-0.1-11.5c0-4.5,0-9,0-13.5
			c0-8.9-0.1-17.8,0.3-26.6c0.5-8.7,1.2-17.4,1.2-26.1C723.6,451.5,720.6,451.5,720.6,453.5L720.6,453.5z"/>
	</g>
</g>
<g id="XMLID_433_">
	<path id="XMLID_687_" d="M509.6,209.1c-5.3,0.9-11.5-4.8-13.7-9.3c-3.1-6.5,2.1-11.3,7.3-14.8c2.2-1.4,4.5-2.6,6.4-4.4
		c1.9-1.7,2.9-3.6,5.2-4.4c6.2-2.2,10.8-0.3,13.9-7.2c6-13.7-8.8-12.4-17.6-14.2c-2.5-0.5-4.9-2-7.6-2.4c-2.4-0.4-4.7,0-7-0.5
		c-2.6-0.7-4.6-3-7.5-3c-3.6,0.1-6,3.6-9.7,3.1c-2-2.1,1.2-5.2,2.6-6.8c3.2-3.6,6-6.4,10.9-6.7c4.6-0.3,10.8-0.8,15.3,0
		c2.5,0.5,4.5,2.2,6.9,2.9c3,0.8,5.3,1.4,8.1,2.8c6,3.1,13.5,4.1,18.7,8.6c5.9,5,8.1,13.7,0.7,18.1c-3.4,2-6.3,3-7.8,7
		c-1.6,4.2-1.1,8.9-1,13.3c0.1,9.8-3.6,13.7-12.2,17.4c-4.4,1.9-6.7,3.8-11.9,3.7c-5.4-0.1-6.1-2.3-4.4-7.6"/>
</g>
<g id="XMLID_432_">
	<path id="XMLID_675_" d="M478.9,154.3c-1.3-1.9-4-3.5-5.8-3.5c-3,0-5.4,4.7-7.2,6.6c-1.1,1.2-1.4,2-2,3.5c-0.4,1.1-1.1,1.8-1.7,2.8
		c-0.7,1.2-3.4,4.6-1.9,5.6c1.5,1.1,4.1-0.6,5.5-1.1c2.6-0.9,3.9-2.9,6.1-4.5c2.3-1.6,5.9-2.5,7.8-4.6c1.9-2.2,1.8-5.6,1.8-8.4"/>
</g>
<g id="XMLID_431_">
	<g id="XMLID_682_">
		<path id="XMLID_647_" d="M481.4,153.1c-0.1-0.7-0.5-1.3-0.8-1.9c-0.5-0.7-1.3-1-2.1-0.5c-0.7,0.4-1,1.4-0.5,2.1
			c0.2,0.2,0.3,0.4,0.4,0.7c0.1,0.2,0-0.1,0,0.1c0,0.1,0.1,0.3,0.1,0.4c0.2,0.8,1.1,1.3,1.8,1C481.2,154.7,481.6,153.9,481.4,153.1
			L481.4,153.1z"/>
	</g>
</g>
<g id="XMLID_428_">
	<path id="XMLID_667_" class="st0" d="M129.5,455.6c11.4-3,22.3-7.3,33.7-10.6c5.9-1.7,12-2.3,17.9-4.4c5.6-2,10.4-5.8,15.4-8.9
		c10.5-6.3,22.6-9.3,32.5-16.7c4.9-3.7,9.8-7.5,15.4-10.1c10.4-4.9,21-8.2,31.1-14c6.2-3.5,13.8-4.4,19.8-8.1c3.3-2,5-4,8.5-5.6
		c3.8-1.7,6.5-4.2,9.4-7.2"/>
</g>
<g id="XMLID_427_">
	<g id="XMLID_655_">
		<path id="XMLID_627_" d="M113.8,463.8c7.6-3.2,15.3-5.4,23.2-7.8c7.4-2.3,14.7-4.9,22.1-7.2c7.3-2.3,15.1-3.2,22.4-5.8
			c6.3-2.3,11.5-6.6,17.2-9.9c6-3.4,12.5-5.9,18.8-8.8c6.7-3.1,12.3-7.3,18.3-11.5c12.2-8.6,27.2-12.7,40.4-19.6
			c6.8-3.5,14.7-4.6,21.1-9c5.8-3.9,11.9-7.1,16.9-12.1c1.4-1.4-0.8-3.5-2.1-2.1c-4.7,4.7-10.4,7.4-15.7,11.2
			c-5.7,4-12.4,5.1-18.7,7.9c-7.2,3.2-14,7-21.3,10c-6.3,2.6-12.8,5-18.6,8.7c-5.9,3.7-11.1,8.4-17.2,11.7
			c-6.4,3.4-13.2,5.8-19.6,9.1c-6.1,3.1-11.4,7.5-17.6,10.4c-7.2,3.4-15.6,4-23.2,6.3c-8.3,2.5-16.4,5.6-24.7,8.1
			c-7.8,2.4-15.5,4.6-23,7.8C110.5,461.9,112,464.5,113.8,463.8L113.8,463.8z"/>
	</g>
</g>
<g id="XMLID_426_">
	<path id="XMLID_666_" class="st0" d="M165.7,408.3c-1.2,0.5-2.2,1.1-3.3,1.7c-2,1.1-4.4,1.3-6.6,1.7c-3.5,0.7-7.1,0.8-10.5,2
		c-1.9,0.7-3.7,1.3-5.6,2c-3.4,1.3-6.8,2.5-10.2,4c-2.6,1.2-5.5,2.4-8.3,2.7c-1.3,0.1-3.6,0.3-4.8,0c-2.7-0.6-4.4-4.6-5.4-6.9
		c-1.5-3.4-3.5-6.8-5.5-10c-1.6-2.6-3.2-5.2-4.9-7.8c-2.2-3.5-3.6-7.4-6-10.7c-4.2-5.7-9.6-9.3-15.8-12.7c-2.6-1.4-5.3-2.9-8.2-3.6
		c-1.5-0.4-3.2-1.2-4.7-0.7c-3.7,1.1-5.5,4.9-7,8c-2,4.1-4,9.7-3.3,14.3c0.4,2.4,1.9,3.9,3.2,5.8c1.5,2.3,3,4.4,4.8,6.5
		c4,4.6,8.8,8.5,12.7,13.2c2.6,3.1,5.1,6.4,7.7,9.5c2.3,2.8,2.5,7.3,2.4,10.8c-0.2,3.5-0.7,6.7-0.7,10.2c0,3.4,0,6.9,0,10.3
		c0,2.6-0.8,7.9,2.2,9.2c2.1,1,4.9-0.1,7.1-0.2c2.7-0.2,4.8-1.1,7.3-2c3.1-1.1,5.9-2.6,9-3.7c1.9-0.7,4.6-1.2,5.7-3"/>
	<g id="XMLID_661_">
		<path id="XMLID_621_" d="M164.9,407c-5.5,2.6-10.7,3.1-16.6,4.3c-5.4,1.1-10.7,3.5-15.8,5.5c-4.3,1.7-10.1,5.4-15,4.2
			c-4.6-1.1-7.1-10.4-9.1-13.8c-2.7-4.5-5.6-8.7-8.1-13.3c-2.4-4.4-4.6-8.6-8.2-12.1c-5.9-5.8-15-11.7-23.3-13.2
			c-7.5-1.3-11.1,7.8-13.1,13.5c-1.2,3.5-2.3,7.6-1.3,11.3c1,3.5,4,6.9,6.2,9.8c6.1,8,14,14.5,20.3,22.5c3.8,4.9,4.4,9.1,3.9,15
			c-0.5,5.4-0.5,10.8-0.5,16.2c0,6.6-0.7,13.6,8,12.7c4.8-0.5,9.2-1.9,13.7-3.7c3.9-1.6,9.2-2.6,12.2-5.8c1.3-1.4-0.8-3.5-2.1-2.1
			c-2.4,2.6-8,3.9-11.2,5.2c-3.8,1.6-8.6,3.7-12.8,3.5c-6.2-0.3-4.8-5.3-4.8-9.6c0-4.6-0.1-9.1,0.3-13.7c0.7-8,0.5-13.3-4.5-19.7
			c-5.5-6.9-11.8-12.8-17.7-19.4c-2.6-2.9-5.7-6.6-7.4-10.1c-2.4-5.1,0.7-12,3-16.5c1.4-2.8,2.2-4.2,5.3-5.1
			c3.6-1.1,6.2,0.2,9.6,1.9c4,2,7.9,4.3,11.4,7.1c7.5,6,11.2,15.2,16.1,23.3c2.4,3.9,4.7,7.8,6.6,12c1,2.3,2.1,4.9,4.3,6.3
			c6.3,4.1,16.7-2.4,22.5-4.6c5.3-2,10.3-3.9,15.9-4.7c5.2-0.8,9.1-1.8,13.8-4C168.2,408.8,166.6,406.2,164.9,407L164.9,407z"/>
	</g>
</g>
<g id="XMLID_425_">
	<g id="XMLID_649_">
		<path id="XMLID_615_" d="M178.3,550.9c3.8-1.7,7.4-3.9,11.1-5.6c1.3-0.6,2.2-1.3,3.3-2.2c2.9-2.3,4.8-2.8,8.1-3.9
			c3.7-1.3,6.9-2.4,9.8-5c4.2-3.8,8.8-6.4,13.6-9.2c8.7-5.1,16.5-12,24.6-17.9c9-6.6,18.1-12.9,27.3-19.2
			c16.3-11.2,32.8-22.4,46.7-36.6c7-7.1,13.6-14,21.4-20.2c8-6.3,15.5-13.2,22.9-20.1c7.6-7,15-14.3,20.7-22.9
			c5.9-8.8,12-17.9,13.5-28.5c0.3-1.9-2.6-2.7-2.9-0.8c-1.4,9.9-6.9,18.1-12.2,26.3c-5.2,8.1-11.7,14.9-18.7,21.5
			c-14.1,13.3-29.9,24.8-43.3,38.8c-14.2,14.9-30.7,26.8-47.6,38.4c-16.9,11.6-33,24.2-49.8,35.8c-4.4,3.1-9.3,5.3-13.8,8.4
			c-1.8,1.2-3.2,2.7-4.8,4.1c-2.6,2.2-5.3,3.2-8.5,4.3c-2,0.7-4.3,1-6.2,2c-1.9,0.9-2.7,2.7-4.5,3.8c-3.8,2.4-8.5,4.5-12.6,6.3
			C175,549.1,176.5,551.7,178.3,550.9L178.3,550.9z"/>
	</g>
</g>
<g id="XMLID_424_">
	<g id="XMLID_643_">
		<path id="XMLID_609_" d="M182.6,499.6c-2.7,0.6-6,3.4-8.8,2.3c-2.5-1-2.8-3.8-3.7-6c-2.3-5.3-4.8-10.7-7.3-15.9
			c-4.3-8.7-10.5-15.2-19.7-18.6c-7.3-2.7-14.4-0.9-17,6.8c-1.2,3.5-1.8,7.3-1.2,11c0.8,5.1,4.6,8.5,6.8,13c2.4,4.8,5.6,9.1,8,13.9
			c2.6,5.3,8.1,10.5,8.7,16.5c0.5,5.4-1.9,11.2-2.5,16.6c-0.4,3.8-1.6,9.9,0.1,13.5c2.4,4.9,10,4.4,14.4,3.8
			c9.2-1.3,17-7.7,25.3-11.4c3.9-1.7,9.7-2.7,12.2-6.6c1.1-1.6,1.1-3.5,1.2-5.3c0.2-3.7,0.1-7.7-0.3-11.4
			c-0.7-5.2-2.1-10.5-4.7-15.1c-1.3-2.3-3-4.7-4.8-6.7c-2-2.1-4.6-2.9-6.7-4.8c-1.4-1.3-3.6,0.8-2.1,2.1c1.2,1.1,2.3,1.5,3.6,2.3
			c2.4,1.4,4.1,3.6,5.7,5.8c2.8,4,4.5,8.5,5.4,13.3c0.9,4.6,2.6,14.6-0.4,18.7c-2,2.7-8.4,3.9-11.5,5.3c-7.3,3.3-14.4,9.1-22.4,10.5
			c-2.9,0.5-6.3,0.9-9.2,0c-5.1-1.5-3.5-8.1-3.2-12.3c0.7-7.6,4.6-16.2,1.3-23.6c-1.6-3.6-4.3-6.5-6.2-9.8
			c-2.4-4.3-4.7-8.5-7.3-12.7c-2.1-3.3-3.4-6.9-5.7-10.1c-3.3-4.5-3.7-9.3-2.2-14.7c1.7-5.8,5.9-8.1,11.8-6.6
			c4.6,1.2,9.8,4.2,13,7.7c3.8,4.1,6.4,9.1,8.5,14.2c1.8,4.5,4.3,8.8,6,13.3c0.9,2.4,1.8,4.7,4.4,5.7c4.2,1.6,7.1-1.2,11-2
			C185.3,502,184.5,499.1,182.6,499.6L182.6,499.6z"/>
	</g>
</g>
<g id="XMLID_423_">
	<g id="XMLID_630_">
		<path id="XMLID_603_" class="st3" d="M395,349.5c1.9,0,1.9-3,0-3C393.1,346.5,393.1,349.5,395,349.5L395,349.5z"/>
	</g>
</g>
<g id="XMLID_422_">
	<path id="XMLID_819_" class="st0" d="M328.8,440.9c0.9-14.9,15.2-31.4,21.2-44.4c3.6-7.9,7.4-14.5,12-22c4.4-7.1,4.8-12.2,6.5-20
		c3.3-15.1,10.7-22.1,26.4-21.7c12.5,0.3,25,0,37.5,0c31.7,0,62.8,6.3,94.5,6c42.9-0.3,85.8-0.4,128.6,0c10.1,0.1,24.8-6.6,32,1.5
		c4.2,4.8,6.6,11.8,10.2,17.2c5.5,8.1,11.4,16.4,18.3,23.5c14.5,14.8,21,38.5,30.7,57c2.9,5.5,5.1,6.1,0.3,10.5
		c-6.2,5.6-17.3,4.5-24.9,4.4c-19.6-0.3-39.2-0.1-58.9-0.1c-52.9,0-105.7,0.1-158.6,0c-19.3,0-37.8,3-57,3
		c-17.8,0-33.6-1.1-51.1-4.6c-13.5-2.7-27.2,0.2-40.7-1.6c-6.2-0.8-11.5-2.6-17.8-2.8c-6.1-0.1-12.7,1.1-18.7-0.2
		c-4.8-10.1,19.2-22.1,18.7-32.8"/>
	<g id="XMLID_814_">
		<path d="M330.3,440.9c1.3-15.2,12.6-27.6,19.5-40.6c3.8-7.3,7.3-14.7,11.6-21.8c3.7-6.1,6.1-11.8,7.6-18.8
			c1.3-6.5,2.6-13.4,7-18.5c3.9-4.6,9.6-6.4,15.5-6.7c9-0.5,18.1,0.1,27.1,0.1c9.1-0.1,18.3-0.2,27.4,0.3
			c18.7,0.9,37.2,3.4,55.8,4.7c18.6,1.4,37.2,0.8,55.8,0.8c18.8-0.1,37.6-0.1,56.4-0.1c9.2,0,18.5,0.1,27.7,0.1
			c7.6,0,15,0.4,22.5-0.8c6.3-1,14.9-3.5,20.6,0.5c6,4.3,8.5,13.7,12.6,19.8c4.3,6.4,8.9,12.7,14,18.5c5.3,6,10.4,11.7,14.4,18.8
			c7.4,13,12.1,27.2,18.9,40.5c1.9,3.7,4.8,6.4,1.2,10c-2.9,2.9-7.7,3.7-11.6,4c-7.6,0.6-15.4,0-23.1-0.1
			c-37.5-0.2-75,0.1-112.5,0.1c-18.8,0-37.7,0-56.5,0c-18.6,0-37.3-0.6-55.8,0.6c-18,1.2-35.7,2.8-53.7,2
			c-9.2-0.4-18.4-1.2-27.6-2.7c-8.8-1.4-17.2-2.9-26.2-2.8c-9.5,0.1-18.9,0.5-28.3-1.3c-8-1.6-15-1.7-23.1-1.5
			c-1.6,0-4.7,0.5-6.2-0.1c-1.5-0.6-1,0.2-1.3-1.4c-0.1-0.5,0-1.2,0.1-1.7c0.5-2.6,2.4-4.9,4.1-6.9c3.4-4.1,7.5-7.7,10.8-11.9
			c2.3-2.9,4.3-6.1,4.3-9.9c0-1.9-3-1.9-3,0c0,5.6-5.4,10.2-8.9,13.9c-3.4,3.6-7.5,7.3-9.5,12c-1,2.3-1.8,6.8,0.8,8.3
			c2.9,1.6,8.4,0.7,11.5,0.5c5.2-0.3,10.2-0.3,15.4,0.7c9.3,1.7,18.1,2.6,27.6,2.4c4.9-0.1,9.7-0.3,14.6,0
			c5.6,0.3,11.1,1.6,16.6,2.5c18,2.9,36.5,3.8,54.7,2.8c19.9-1,39.5-2.7,59.4-2.7c20.2,0,40.3,0,60.5,0c40.5,0,81-0.2,121.5-0.1
			c9.2,0,18.3,0.1,27.5,0.3c6.3,0.1,13.4-0.1,18.7-3.9c3.7-2.7,5.6-5.6,3.4-9.8c-3.7-6.9-7-13.9-10.1-21.1
			c-6.1-14.1-12.2-28.4-22.8-39.8c-6.5-7-12.2-14.5-17.6-22.4c-4.1-6.1-6.3-14.1-11.8-19.1c-4.1-3.7-9.9-3.9-15.1-3.3
			c-7.5,0.8-14.5,2.3-22.1,2.2c-20.4-0.1-40.9-0.2-61.3-0.2c-20.1,0-40.2,0.1-60.4,0.3c-20,0.1-39.9-2.1-59.8-3.9
			c-19.8-1.9-39.5-2-59.4-2c-12.1,0-27.4-2.7-36.1,7.9c-3.7,4.4-5.4,10.1-6.6,15.6c-0.8,3.6-1.4,7.2-2.5,10.8
			c-1.5,4.6-4.1,8.6-6.5,12.7c-4.4,7.4-7.8,15.3-12,22.8c-4,7-8.6,13.7-12.3,20.9c-3.1,5.9-5.6,12.1-6.2,18.8
			C327.1,442.8,330.1,442.8,330.3,440.9L330.3,440.9z"/>
	</g>
</g>
<g id="XMLID_421_">
	<g id="XMLID_617_">
		<path id="XMLID_591_" d="M596.7,417.1c-15.1,4.9-31,2.9-46.6,3c-16.4,0.1-34.8,2.2-50.3-4.4c-7-3-13.3-7.2-19.9-10.8
			c-6.9-3.8-14.1-7.1-20.8-11.2c-6.6-4-13.2-8.1-19.7-12.2c-2.2-1.4-4.4-2.8-6.7-4.1c-2.1-1.2-6.1-2.7-6.8-5.2
			c-0.2,0.6-0.5,1.1-0.7,1.7c6.2-2.9,12.1-5.9,18.9-7.2c6-1.2,12-2,18.1-3c12.4-2.1,25-2.8,37.5-4.5c12.6-1.7,25.7-3.5,38.3-3.4
			c6,0,12.4-0.5,18.3,0.8c6.1,1.3,11.3,5,16.8,7.6c10.9,5.2,22.2,9.5,32.9,15.3c10.5,5.7,19.5,13.2,28.9,20.4c1.8,1.4,4.3,2.6,6,4.2
			c3.5,3.1-1.7,4.2-4.4,4.8c-4.6,1-9.5,0.7-14.3,1c-12.9,0.6-25.6,1.4-38.5,1.4c-14.6,0-29.2,0-43.8,0c-7.2,0-14.5-0.1-21.7,0
			c-3.7,0.1-7.2,0.1-10.9-0.6c-2.6-0.5-5.1-1.1-7.8-0.9c-1.9,0.1-1.9,3.1,0,3c3.5-0.3,6.6,1,9.9,1.4c2.6,0.3,5.2,0.2,7.7,0.2
			c7.6-0.1,15.1-0.1,22.7-0.1c14.6,0,29.2,0,43.8,0c14.3,0,28.5-1.2,42.8-1.5c4.1-0.1,19.4,0,19.4-6.8c0-3.1-4.3-5-6.4-6.4
			c-6-4.1-11.5-9.2-17.4-13.5c-11-8-23.1-13.6-35.5-19.1c-6-2.6-11.9-5.3-17.7-8.3c-4.9-2.6-9.5-4.9-15-5.5
			c-13.4-1.6-26.9,0.4-40.3,1.4c-7.7,0.6-15.3,2-23,2.7c-7.8,0.8-15.7,1.5-23.5,2.6c-7.4,1.1-14.7,2.3-22,3.6
			c-7.7,1.3-14.3,4.5-21.3,7.8c-0.6,0.3-0.8,1.1-0.7,1.7c1,4.1,6.6,6,9.9,8c6.4,3.8,12.9,7.7,19.2,11.8c7.8,5.1,15.9,9.2,24.1,13.6
			c7.1,3.9,13.9,8.4,21.4,11.7c15.3,6.8,33.2,5.3,49.5,5.1c16.7-0.2,34,2.2,50.2-3.1C599.3,419.4,598.5,416.5,596.7,417.1
			L596.7,417.1z"/>
	</g>
</g>
<g id="XMLID_420_">
	<path id="XMLID_628_" class="st0" d="M496.6,411.1c3.9-3.2,5.5-6.5,6.9-11.3c3-11,7-21.6,10.8-32.4c5-14.4,10.4-28.6,15.3-43
		c3-8.8,7-17.3,10.5-25.9c3-7.4,14.2-2.9,20.6-2.9c32,0,46.5-3.2,71.2-2.3c7.1,0.3,14.7,0.3,21.8,0.3c6.6,0,13.3-0.2,20-0.1
		c7.8,0.2,5.5,7.8,4.1,13c-3.1,11.6-13.3,33.5-17.8,44.6c-6,14.9-10.7,31.8-10.4,47.9c0.1,5.2-0.4,11-3.2,15.5
		c-2.9,4.6-6.6,4.2-11.8,4.1c-9.4-0.2-18.7-0.1-28.1-0.1c-14.3,0-29.4-1.5-43.6,0.3c-13.1,1.7-26.2,1.3-39.3,2.7"/>
	<g id="XMLID_623_">
		<path id="XMLID_585_" d="M497.6,412.1c5.4-4.8,6.8-10.7,8.8-17.4c2.8-9.1,6.1-18,9.2-26.9c6.2-17.5,11.9-35.4,19-52.6
			c1.6-4,3.4-8,5.1-12.1c2.1-5,3.6-7.6,9.3-7.4c6.4,0.2,12.6,1.3,19.1,1.2c14.4-0.2,28.7-1.5,43.1-2.1c15.9-0.7,31.9,0.4,47.8,0.2
			c4.2,0,8.5-0.3,12.7-0.1c2.6,0.1,4.9,0,5.7,2.9c0.4,1.5-0.1,3.3-0.4,4.8c-1.2,5.7-3.3,11.2-5.4,16.6c-5,12.8-11.1,25.2-15.8,38.1
			c-3.1,8.7-5.6,17.6-6.9,26.7c-1.2,8.3,0.3,17.6-2.2,25.6c-1.8,5.7-5.3,7.5-10.9,7.4c-5.1-0.1-10.3-0.1-15.4-0.1
			c-10.4,0-20.7-0.1-31.1-0.4c-11-0.3-21.5,0.4-32.4,1.4c-11.1,1-22.3,0.9-33.4,2c-1.9,0.2-1.9,3.2,0,3c10.8-1.1,21.6-1.1,32.4-2
			c10.6-0.9,20.9-1.8,31.5-1.5c10.1,0.3,20.1,0.4,30.2,0.4c5,0,10,0,15,0.1c3.3,0.1,6.9,0.5,10-0.6c6.1-2.2,7.8-10,8.2-15.7
			c0.8-10.1,0.8-19.7,3.2-29.7c3.9-16.3,11.2-31.3,17.6-46.7c2.7-6.4,5.3-12.8,7.3-19.5c1.1-3.9,3.2-9.8,0.4-13.5
			c-1.1-1.4-2.7-2-4.4-2.3c-5.1-0.8-10.7-0.1-15.8-0.1c-9.6,0.1-19.2-0.1-28.7-0.3c-14.8-0.4-29.6,0.9-44.4,1.6
			c-8.7,0.5-17.6,1.1-26.2,0.6c-5.4-0.3-11.7-2.7-16.9-0.4c-2.4,1.1-3.5,2.9-4.6,5.3c-2.2,5.1-4.4,10.3-6.5,15.5
			c-4.4,10.8-7.9,22-11.9,32.9c-3.9,10.7-7.7,21.5-11.5,32.2c-2,5.7-3.9,11.3-5.6,17.1c-1.5,5.3-3,9.6-7.2,13.4
			C494.1,411.3,496.2,413.4,497.6,412.1L497.6,412.1z"/>
	</g>
</g>
<g id="XMLID_406_">
	<g id="XMLID_551_">
		<path id="XMLID_515_" d="M495.8,458.8c6.2,1.4,11.5,7.5,15.4,12.1c4.9,5.9,8.8,11.9,7.2,20c-1.8,9-10.7,18.8-18.6,23.1
			c-8.3,4.4-19.6,5.9-28.8,6.9c-8.8,0.9-18.3-2.2-24-9.3c-2.9-3.6,1.6-4.4,4.9-5.3c9.3-2.5,19-2.5,28.5-3.2c6.6-0.5,15.1-3,18.1,5
			c4.2,11.1-8.9,16.5-17,19.6c-18.9,7.3-39.4,7.7-59.4,9.8c-8,0.8-16.2,2.5-24.3,1.1c-9.7-1.6-14.3-7.6-17.4-16.6
			c-1.4-4-2.5-8.2-4.5-12c-1.2-2.3-2.6-4.1-2.9-6.8c-0.3-2.5,0.1-5.1,0.2-7.7c0.3-10.3,0.4-20.8-0.2-31.1
			c-0.3-4.5-1.7-11.1,0.2-15.3c1.6-3.6,6.5-5.1,9.9-6.2c8.7-2.8,17-6.1,25.4-9.8c11.2-4.9,21.5-11.3,32.2-17
			c10.3-5.5,21.8-7.9,31.9-13.7c3.3-1.9,0.3-7.1-3-5.2c-11.1,6.4-23.9,9.2-35.2,15.5c-12,6.7-23.9,13.1-36.6,18.5
			c-4.3,1.8-8.5,3.6-12.9,4.9c-4.2,1.3-8.8,2.5-12.4,5.1c-8.1,5.7-5.9,16.4-5.4,24.9c0.7,12.3-1,24.9-0.1,37.2
			c0.4,5.7,4.1,10.1,5.9,15.4c1.9,5.3,3.3,11.1,6.6,15.8c11.8,16.8,37.6,9.5,54.5,8c11.5-1,23.1-2,34.5-4.6
			c10.3-2.3,23.9-6,31.7-13.6c6.4-6.3,6.8-17.3,0.4-23.9c-5.5-5.6-13.5-3.7-20.4-3.2c-11.2,0.7-24.1,0.2-34.5,5
			c-17,7.9,7.5,23.1,16.5,24.6c6,1,12.2-0.2,18.1-1.3c6.2-1.2,12.5-2,18.4-4.3c5.8-2.2,10.5-5.8,14.6-10.4
			c4.1-4.6,8.2-9.2,10.2-15.2c3.3-9.8,0.4-18-5.5-25.8c-5-6.5-12-14.8-20.4-16.7C493.6,452.2,492,457.9,495.8,458.8L495.8,458.8z"/>
	</g>
</g>
<g id="XMLID_405_">
	<path id="XMLID_548_" class="st0" d="M503.5,208c-0.3,0.5-0.7,1-1,1.5c-0.3,0.6-0.7,1.2-1.1,1.8c-0.8,1-1.5,2.1-2.4,3
		c-0.5,0.4-0.9,0.6-1.5,1c-0.5,0.3-0.8,0.7-1.3,1c-1.1,0.6-2,1.5-3,2.1c-1.1,0.7-2.2,1.4-3.4,2c-0.5,0.2-1,0.3-1.5,0.6
		c-0.3,0.2-0.6,0.5-0.9,0.7c-0.5,0.3-1.1,0.4-1.7,0.5c-1.8,0.3-3.7,0-5.5,0.2c-2.8,0.4-5.7,0.1-8.5,0.4c-3,0.4-6,1-9.1,1
		c-3.7,0-7.4,0.2-11.1,0.2c-1.7,0-3.3,0-5,0c-0.8,0-1.7-0.2-2.5-0.3c-0.7-0.1-1.2-0.5-1.8-0.9c-0.9-0.7-1.8-1.5-2.7-2.2
		c-1.3-1.1-3.7-5.4-4-6.9l-0.2-1.4c-0.3-1.7,1.4-4.8,2.4-6.3c0.7-0.9,1.4-1.8,2-2.8c0.6-1.1,1.1-2.2,1.5-3.3c0.4-0.9,0.8-1.9,1-2.8
		c0.1-0.4,0.2-1.1,0.5-1.5c0.5-0.7,1.3-0.7,1.2-1.7c0-0.6-0.3-1.1-0.8-1.5c-0.2-0.1-0.5-0.1-0.7-0.3c-0.4-0.2-0.6-0.5-1-0.7
		c-0.7-0.4-1.6-0.7-2.2-1.4c-0.4-0.6-0.4-1.8-0.5-2.5c-0.2-1.3-0.5-2.3-1-3.5c-0.1-0.4-0.4-0.8-0.5-1.2c-0.1-0.7,0.3-1.6,0.7-2
		c1.2-1.2,3.5-1.8,5.1-2.1c3.1-0.5,6.2-0.2,9.3-0.3c1.9-0.1,4-0.8,5.5-2c0.6-0.5,0.9-1,1.4-1.6c0.6-0.6,1.3-1.1,2-1.6
		c2.2-1.6,4.4-2.8,6.8-4c2.1-1,4.1-2.7,5.9-4.1c3-2.2,5.4-5.1,8.6-7c1.5-1,3.2-1.5,5-1.8c2.8-0.6,5.6-1.3,8.5-1.4c1.7,0,3.3,0,5,0
		c1.9,0,3.6,0.3,5.4,0.6c3.3,0.7,6.3,2.1,9.4,3.3c1.6,0.6,2.9,1.7,4.3,2.6c0.5,0.4,1,0.6,1.2,1.2c0.4,1,0.3,2.2,0.4,3.2
		c0.4,2.7,0.9,5.4,0.6,8.2c-0.2,1.7-0.9,3.4-1.6,5c-1.1,2.4-1.7,5-3.2,7.2c-2.5,3.5-5.5,6.6-8.5,9.8c-0.7,0.7-1.3,1.5-1.6,2.5
		c-0.2,0.8-0.4,1.7-0.4,2.5"/>
</g>
<g id="XMLID_404_">
	<g id="XMLID_543_">
		<path id="XMLID_509_" d="M442.1,192.6c-0.7,5.3-3.5,9.4-6.5,13.8c-1.8,2.7-3.4,5.5-2.3,8.8c1.5,4.8,6.9,7,11.3,8.3
			c5.4,1.6,11.3,2.1,17,1.9c5.5-0.3,10.9-0.8,16.4-1c4.3-0.2,8.3,0,12.2-2.1c7.2-4.1,13.3-10.7,17.9-17.5
			c5.2-7.7,10.6-16.2,14.1-24.9c2.4-5.9,4.6-13.6,0.8-19.4c-4.1-6.3-13.1-6.8-19.8-6.9c-4.9-0.1-10-0.4-14.8-0.2
			c-4,0.2-6.5,2-9.2,4.7c-7.1,7.2-17.8,9.2-24.5,17c-1.3,1.5,0.9,3.6,2.1,2.1c4.8-5.6,11.7-7.9,17.9-11.6c2.5-1.5,4.5-3.3,6.6-5.4
			c3.6-3.7,7.2-3.8,12-3.7c7.3,0.3,15.2-1,22.2,1.8c8.5,3.5,6.9,12.4,4.2,19.5c-2.8,7.3-7.4,13.8-11.3,20.5c-4,6.9-8.8,12.8-15,17.7
			c-3.7,2.9-6.6,4.8-11.5,5c-4.8,0.3-9.6,0.4-14.4,0.7c-5.5,0.4-10.7,0.7-16.1-0.1c-4.7-0.7-13-2.1-14.9-7.2c-1.5-4,3.7-9,5.5-12.2
			c1.8-3.1,2.8-6.2,3.3-9.8C445.3,190.7,442.3,190.7,442.1,192.6L442.1,192.6z"/>
	</g>
</g>
<g id="XMLID_403_">
	<g id="XMLID_537_">
		<path id="XMLID_503_" d="M481.1,174.6c-9.3,0-19-0.9-28.3,0.1c-6,0.7-15.8,0-18.5,7c-2.2,5.6,3.4,9.8,8.1,11.5
			c3.3,1.2,7,1.2,10.5,1.2c4.6-0.1,7.7-2.3,12.1-3.3c1.9-0.4,1.1-3.3-0.8-2.9c-2.5,0.6-4.6,2-7.1,2.7c-2.8,0.8-6.1,0.6-9,0.4
			c-3-0.2-5.9-1-8.4-2.8c-2.9-2-3.3-6.7,0-8.7c1.7-1,3.9-1,5.8-1.2c11.9-1.1,23.6-1,35.6-1C483,177.6,483,174.6,481.1,174.6
			L481.1,174.6z"/>
	</g>
</g>
<g id="XMLID_402_">
	<g id="XMLID_531_">
		<path id="XMLID_497_" d="M347.2,335.1c-6.6,0.9-11.7,4.8-16.7,8.9c-6,4.9-11.9,10-17.4,15.5c-10.9,11-18.9,24.7-31.3,34.2
			c-13,10-26.3,19.5-38.5,30.3c-6.2,5.5-12.2,11.1-17.8,17.2c-5.2,5.5-9.6,11.5-15.4,16.5c-6.4,5.6-11.6,12.3-15.9,19.7
			c-2.3,3.9-4.2,8.1-6.1,12.2c-1.1,2.4-2.7,8.8-4.8,10.3c-1.6,1.1-0.1,3.7,1.5,2.6c1.5-1,2.1-2.2,2.8-3.9c1.5-3.7,3.1-7.4,4.8-11
			c3.5-7.6,7.7-14.7,13.1-21.1c4.7-5.6,10.7-9.7,15.3-15.4c5.1-6.2,10.6-12,16.4-17.5c12.3-11.7,25.6-22.2,39.3-32.3
			c5.7-4.2,11.2-8.3,16.1-13.5c5.1-5.4,9.5-11.4,14.3-17.1c5.4-6.5,11.4-12.4,17.8-18c6.7-5.9,14.1-13.5,23.3-14.7
			C349.9,337.8,349.1,334.9,347.2,335.1L347.2,335.1z"/>
	</g>
</g>
<g id="XMLID_400_">
	<path id="XMLID_528_" class="st0" d="M143.2,504.8c-1.9,0-1.9-2.4-3-3.5c-1.3-1.3-3.2-5.9-4.2-7.6c-1.4-2.4-2.6-5-4.1-7.4
		c-1.9-3-2.3-6.4-2.3-9.9c0-1.9,0.1-3.8,1.3-5.4c1-1.4,3.1-2.1,4.7-2.9c2.9-1.5,6.2-3.6,9.7-2.1c1.4,0.6,1.9,1.8,2.4,3.2
		c0.9,2.8,8.3,5.3,12,12.2c3.7,6.9,3.2,9,6,16.7c0.9,2.5-4.8,14.1-10.7,13"/>
</g>
<g id="XMLID_399_">
	<g id="XMLID_523_">
		<path id="XMLID_488_" d="M275.7,317.5c-6.1,0.7-11.6,4.3-17.1,6.9c-6.6,3.1-12.2,7.8-18,12.1c-11.9,8.7-23.9,17.5-35.2,27
			c-11,9.2-25.9,13.2-35.6,23.8c-4.1,4.5-9.2,8.6-13.8,12.4c-5.7,4.7-8.4,10.9-13.2,16.2c-1.5,1.6-3.4,2.1-3.9,4.3
			c-0.5,2.1,0.6,4.8,1.1,6.9c1.9,7.9,3.8,16.2,7.8,23.4c0.9,1.7,3.5,0.2,2.6-1.5c-2.5-4.5-3.9-9.3-5.2-14.2c-1-3.6-2.6-7.5-2.9-11.2
			c-0.3-3.8,1.9-4.4,4-7.2c2.5-3.3,4.5-7,7.2-10.1c5-5.8,11.8-10.2,17.2-15.5c2.9-2.8,5-5.5,8.5-7.7c3.4-2.1,7-3.8,10.5-5.7
			c6.9-3.7,13.3-7.8,19.3-13c7-6,14.8-10.8,21.8-16.8c6.4-5.5,13.6-10.4,20.5-15.3c3.4-2.4,6.9-4.3,10.6-6.1
			c4.5-2.1,8.9-5.2,13.9-5.7C277.6,320.3,277.6,317.3,275.7,317.5L275.7,317.5z"/>
	</g>
</g>
<path id="XMLID_398_" class="st0" d="M269.6,383.7c-1.2,4.1-6.3,5.3-10.3,6.6c-10.1,3.2-18.1,10.9-26.6,17.2
	c-17.9,13.4-39.4,21.8-61.7,24.2c4.5-18.7,15.8-35.7,31.2-47.1c14.4-10.7,32.2-16.7,45.3-29c11.5-10.8,19.5-26.5,34.3-31.9
	c7.2-2.7,16.6-1.8,21,4.5c2,2.9,2.7,6.5,2.9,10.1c0.7,13.2-5.3,25.8-12.8,36.7c-2.7,3.8-5.8,7.7-10.2,9.2
	c-6.4,2.3-14.5-0.7-19.7,3.7"/>
<path id="XMLID_397_" class="st0" d="M225.8,520.6c23.3-17.7,46-36.2,68.1-55.3c3.2-2.8,6.5-5.7,8.8-9.3c2.8-4.4,3.9-9.6,6.4-14.2
	c3.7-6.8,9.9-11.7,15-17.5c5.4-6.2,9.5-13.5,13.4-20.8c3.1-5.7,6.2-11.3,9.3-17c6.2-11.4,12.7-23.4,12.3-36.4
	c-5.8-2.6-12.3-5.3-18.4-3.6c-9.2,2.5-13.1,12.9-17.7,21.3c-6,11-15.1,19.9-24,28.6c-7.1,6.9-14.2,13.9-21.3,20.8
	c-11.9,11.7-24,23.5-38.6,31.6c-8.1,4.5-17,8.1-23.3,14.8c-3.9,4.2-6.6,9.3-9.1,14.5c-3.2,6.6-6.4,14.3-3.3,20.9
	c2.2,4.8,7,7.7,11.1,10.9c4.2,3.2,8.2,7.7,7.8,12.9"/>
<linearGradient id="XMLID_4_" gradientUnits="userSpaceOnUse" x1="347.2065" y1="349.6999" x2="471.6815" y2="367.4609">
	<stop  offset="0" style="stop-color:#FFFFAB;stop-opacity:0"/>
	<stop  offset="1" style="stop-color:#FFFFAB"/>
</linearGradient>
<path id="XMLID_636_" class="st4" d="M354,383.7c-3-3-8.7-13.1-9.2-17.1c-1.8-14.2-7.4-27.2,5.2-36.6c1.4-1.1,10.8-10.7,12.7-11
	c2.8-0.5,15.8,6.8,17.8,8.6c1.9,1.8,3.1,4.2,4.2,6.5c-6.3,2.2-11.3,6.7-14.4,11.9s-4.6,11-5.1,16.8c-0.2,2.4-0.3,5-1.8,7
	c-0.8,1.1-1.8,2-2.8,3c-1.8,1.9-3.1,4-3.7,6.4"/>
<g id="XMLID_396_">
	<g id="XMLID_517_">
		<path id="XMLID_482_" d="M23.6,507.7c-2.3-2.7-3.6-7.1-5.5-10.2c-1-1.6-2.4-3.3-2.9-5.1c-0.9-3.8,1.9-5.2,4.9-6.2
			c5.6-2,11.8-2.8,17.6-4c2.1-0.4,4.5-1.3,6.3,0.8c1.4,1.6,1.5,4.9,0.6,6.7c-1.5,3-5.1,4.6-7.7,6.4c-1.2,0.8-2.2,1.8-3.4,2.5
			c-3,1.6-5.4,0.9-8.4-0.1c-4-1.4-8.1-2.6-12-4.1c-1.8-0.7-2.6,2.2-0.8,2.9c3.5,1.4,7.1,2.4,10.6,3.7c2.4,0.9,5,2.3,7.7,2.1
			c4.2-0.4,9.2-4.8,12.5-7.3c3.1-2.4,5.5-5.5,5-9.6c-0.4-3.1-2.1-6.7-5.5-7.3c-3.7-0.6-7.8,1.2-11.4,1.9c-5.5,1.1-11.6,1.6-16.4,4.7
			c-3.4,2.1-3.8,4.8-2.4,8.5c1.2,3.1,3.5,5.8,5.1,8.7c1.4,2.6,2,5.2,3.9,7.4C22.8,511.3,24.9,509.1,23.6,507.7L23.6,507.7z"/>
	</g>
</g>
<g id="XMLID_389_">
	<g id="XMLID_511_">
		<path id="XMLID_476_" d="M43.7,481.3c5.9,2.2,11.9,4.2,17.8,6.4c5.6,2.1,11,5.3,16.8,6.8c10.9,2.8,22.7-0.6,33.7,0.9
			c3.1,0.4,5,2.4,7.3,4.4c1.6,1.4,3.8,2.3,5.3,3.7c1.8,0.6,2.3,2,1.5,4.2c0.9,1.6,0.8,2.9-0.2,4c-0.5,0.9-1.4,1.9-2.2,2.6
			c-2,1.8-4.8,2.8-7.3,3.8c-5.7,2.4-11.5,2.6-17.7,3c-2.6,0.2-5.1,0.5-7.7,0.7c-2.4,0.2-7.8,1.2-9.9-0.4c-1.6-1.1-3.1,1.5-1.5,2.6
			c4.2,3.1,12.7,0.5,17.5,0.2c6.5-0.5,13-0.4,19.1-2.8c5.5-2.2,9.4-4.4,13-9.2c2.7-3.6,2.3-7.2-1.4-10c-1.3-1-2.9-1.6-4.3-2.6
			c-1.8-1.2-3.3-2.9-5-4.3c-1.7-1.3-3.3-2.4-5.4-2.8c-3.1-0.6-6.7-0.1-9.8-0.1c-4.1,0-8.1,0-12.2,0c-4,0-8.2,0.2-12.2-0.8
			c-4-1-7.6-3.1-11.4-4.7c-7.6-3.2-15.5-5.6-23.2-8.5C42.6,477.7,41.9,480.6,43.7,481.3L43.7,481.3z"/>
	</g>
</g>
<g id="XMLID_382_">
	<g id="XMLID_505_">
		<path id="XMLID_470_" d="M13.6,506.3c-0.1,4-1.6,10,1.1,13.5c2.2,2.9,6.4,2.1,9.5,2c1.9,0,1.9-3,0-3c-2.5,0.1-6.5,1.1-7.6-1.9
			c-1.1-3.2-0.1-7.3,0-10.6C16.7,504.3,13.7,504.3,13.6,506.3L13.6,506.3z"/>
	</g>
</g>
<g id="XMLID_381_">
	<g id="XMLID_499_">
		<path id="XMLID_463_" d="M30.4,553.6c-5-3.9-13.6-7-9.2-14.7c3-5.4,3.4-9.8,3.5-16c0-2.3-0.9-11,3.2-9.8c0.8,0.2,2.3,2.6,3.1,3.2
			c0.8,0.6,1.6,1,2.4,1.5c5.7,3.2,12.1,6,18.6,6.8c5,0.6,12.8-2,6.7-7.3c-4.7-4.2-15.6-9.2-21.8-8.4c-1.4,0.2-1.3,2.1-0.4,2.7
			c3.1,2,6.6,2.3,10.1,3.2c4.3,1.1,8.3,2.5,12.3,4.5c2.9,1.5,5.8,3.2,8.9,4.3c2.8,1,3.5,2.1,5.2,4.4c0.4,0.5,0.6,1.1,1,1.6
			c2.3,2.9,5.4,5.5,7.9,8.3c2.1,2.3,4.5,4.5,7.1,6.4c2.8,2,5.7,3.2,8.8,4.5c4.2,1.7,9.4,2.5,13.3,4.7c1.9,1.1,3.4,2.7,5,4.2
			c1.5,1.4,4,3,5.1,4.7c1.7,2.7,3.8,7.3,1.6,9.8c-3.1,3.4-9.1,6.5-13.9,5.8c-4.2-0.6-8.9-4-12.7-5.9c-7.6-3.8-15.6-6.8-23.4-10.2
			c-3.9-1.7-7.8-3.4-11.7-5.3c-4.4-2.1-7.5-4.7-11.2-7.9c-1-0.9-2.4-0.2-2.6,1.1c-0.2,2,1.5,6-1,6.8c-0.9,0.3-3.1-0.8-4.2-1.1
			c-4.8-1.1-13.8,0.1-16.7-4.5c-1-1.6-3.6-0.1-2.6,1.5c2.1,3.2,4.8,3.9,8.4,4.4c4.3,0.6,8.6,1.1,12.8,2.1c1.9,0.5,4.6,1.2,6.2-0.3
			c2.7-2.3-0.3-6.3,0.1-9.1c-0.9,0.4-1.7,0.7-2.6,1.1c2.1,1.9,3.9,3.9,6.3,5.5c3.5,2.3,7.6,3.9,11.4,5.6c7.4,3.3,14.9,6.5,22.3,9.6
			c6.6,2.8,13.2,7.9,20.3,9.4c5.1,1.1,11.4-1.8,15.2-5.1c1.5-1.3,3.6-3.2,4-5.3c0.5-2.4-1.4-4.4-2.3-6.5c-2.3-5.2-6.9-9.5-11.8-12.6
			c-2.6-1.7-5.7-2.2-8.6-3.2c-4.1-1.3-8.5-2.9-12.2-5.2c-5.7-3.5-11.1-9.5-15.4-14.6c-1.9-2.2-1.9-4.8-4.5-6.3
			c-3.3-1.8-7.2-2.8-10.6-4.5c-3.6-1.8-7.2-3.6-11.1-4.7c-4.2-1.2-9.1-1.4-12.8-3.8c-0.1,0.9-0.2,1.8-0.4,2.7
			c4.2-0.6,9.5,2.4,13.2,4.2c2.1,1,10.6,5.3,4.2,5.8c-6.8,0.5-15.3-3.6-20.9-7c-2.5-1.6-5-7.2-8.6-5.1c-3.8,2.2-4,6.7-3.9,10.5
			c0.1,3.3,0,6.7-0.3,10c-0.4,3.8-2.1,5.8-4.1,8.7c-5.4,7.7,6.8,13.6,11.6,17.3C30.4,557.3,31.9,554.7,30.4,553.6L30.4,553.6z"/>
	</g>
</g>
<g id="XMLID_374_">
	<g id="XMLID_493_">
		<path id="XMLID_452_" d="M62.4,488.4c4.1-0.7,7.6-1.4,11.7-1c4.3,0.4,7.8,2.2,11.8,3.6c3.8,1.3,9.6,1.1,11.9-3.1
			c4.3-8-23.7-10.2-27-12.3c-1.6-1-3.1,1.6-1.5,2.6c3.4,2.2,8.3,2,12.2,3.2c2.3,0.8,4.7,1.3,7.1,1.8c2.3,0.6,8.2,2.5,4.1,4.9
			c-4.5,2.6-11.6-3-16.4-3.6c-5.3-0.6-9.4,0-14.7,0.9C59.7,485.9,60.5,488.8,62.4,488.4L62.4,488.4z"/>
	</g>
</g>
<g id="XMLID_367_">
	<path id="XMLID_489_" class="st0" d="M93.3,521.5c0.6,0,1.2,0,1.8,0c0.6,0,1.3-0.2,1.9-0.2c1.3,0,2.7,0,4,0c0.7,0,1.3-0.3,2-0.5
		c0.7-0.2,1.1-0.6,1.7-1c0.8-0.5,1.6-0.8,2.3-1.4c2.5-2.1,5.5-3.6,7.9-5.8c0.9-0.8,1.8-1.8,2.3-2.9c0.6-1.3,1.3-2.8,1.6-4.2
		c0.1-0.7,0.4-1.4,0.4-2.1c0-0.4,0-0.7,0-1.1c0-1.2-0.2-2.4-1.2-3.1c-0.6-0.4-1.1-1-1.7-1.3c-0.3-0.2-0.7-0.2-1.1-0.4
		c-1.4-0.4-3.1-0.4-4.6-0.2c-1.2,0.1-2.5,0.4-3.7,0.6c-1.5,0.2-3,0.4-4.4,0.8c-1.6,0.5-3.1,1.3-4.6,2c-1.9,1-3.7,2-5.3,3.5
		c-0.9,0.9-1.6,2-2.2,3.1c-0.3,0.6-0.6,1.4-0.5,2.1"/>
</g>
<g id="XMLID_358_">
	<g id="XMLID_484_">
		<path id="XMLID_451_" d="M59.2,537.7c0.9,5.6,2.1,11.1,2.1,16.8c0,2.7,0,5.6-0.9,8.1c-1.1,3.3-4.1,5-7,6.5c-5.8,3-10.4-0.4-16.3,0
			c-4.2,0.3-8.6,3.1-11.9,5.5c-1.5,1.1,0,3.7,1.5,2.6c2.6-1.9,6.1-4.3,9.2-4.9c3.4-0.7,7.1,0.9,10.5,1.3c4.8,0.6,9.6-1.7,13.3-4.8
			c8.5-7.1,3.7-22.9,2.3-31.9C61.8,535,58.9,535.8,59.2,537.7L59.2,537.7z"/>
	</g>
</g>
<g id="XMLID_351_">
	<g id="XMLID_478_">
		<path id="XMLID_450_" d="M71.6,533.8c3.1,0.6,6.6,2.6,9.4,4c3.4,1.7,5.9,3.6,7.7,7c0.9,1.7,3.5,0.2,2.6-1.5
			c-1.8-3.4-4.2-5.7-7.6-7.5c-3.4-1.8-7.5-4.1-11.3-4.9C70.5,530.5,69.7,533.4,71.6,533.8L71.6,533.8z"/>
	</g>
</g>
<g id="XMLID_344_">
	<g id="XMLID_472_">
		<path id="XMLID_449_" d="M71.6,490.2c-1.9,0.5-2.8,2.8-3.8,4.4c-1.5,2.2-2.4,5-4.5,6.7c-1.5,1.2,0.6,3.3,2.1,2.1
			c1.7-1.4,2.6-3.4,3.7-5.3c0.6-1,1.2-1.9,1.8-2.9c0.2-0.3,1.1-2,1.4-2.1C74.3,492.6,73.5,489.7,71.6,490.2L71.6,490.2z"/>
	</g>
</g>
<g id="XMLID_336_">
	<g id="XMLID_465_">
		<path id="XMLID_448_" d="M75.2,493c0,1.7-0.2,3.3-0.6,5c-0.3,1.3-0.6,2.9-1.7,3.7c-1.5,1.2,0,3.8,1.5,2.6
			c3.2-2.4,3.7-7.6,3.7-11.3C78.2,491.1,75.2,491.1,75.2,493L75.2,493z"/>
	</g>
</g>
<linearGradient id="XMLID_5_" gradientUnits="userSpaceOnUse" x1="368.4718" y1="353.0936" x2="521.7203" y2="353.0936">
	<stop  offset="0" style="stop-color:#FFFFAB;stop-opacity:0"/>
	<stop  offset="1" style="stop-color:#FFFFAB"/>
</linearGradient>
<path id="XMLID_785_" class="st5" d="M426,372c-19.5-2.2-38.8-6.4-57.5-12.4c0.1-8.4,2.9-17.5,10-22c5.5-3.5,12.5-3.6,19.1-3.4
	c41.8,0.8,82.4,3.5,124.1,6.3c-0.6,4-2.7,8.4-3.4,12.5c-15.1,1.8-27.6,3.2-42.7,5c-18.4,2.2-37.3,4.5-53.3,13.8"/>
<linearGradient id="XMLID_6_" gradientUnits="userSpaceOnUse" x1="517.1906" y1="444.7619" x2="468.4321" y2="352.6355">
	<stop  offset="0.4233" style="stop-color:#FFFFAB"/>
	<stop  offset="0.9367" style="stop-color:#FFFFAB;stop-opacity:0"/>
</linearGradient>
<path id="XMLID_786_" class="st6" d="M497.5,408.2c-19.9-15.8-48.5-19.5-65.3-38.6c26.3-10.2,55.8-7.1,83.5-12.9
	c-4.3,17.5-9.8,34.8-16.3,51.5"/>
<g id="XMLID_419_">
	<g id="XMLID_611_">
		<path id="XMLID_579_" d="M499.7,405.9c-3-0.6-5.7-3.1-8.4-4.5c-2.4-1.2-4.7-2.5-7-3.7c-4.6-2.4-8.7-5.8-13.3-8.4
			c-4.8-2.7-9.5-6.2-14.2-9.2c-4.6-3-9-6.8-14-9.1c-1.7-0.8-3.3,1.8-1.5,2.6c5,2.3,9.4,6.1,14,9.1c5.1,3.3,10.1,6.9,15.4,9.8
			c4.8,2.6,8.9,6.1,13.7,8.7c2.4,1.3,4.8,2.5,7.2,3.8c2.4,1.3,4.6,3.2,7.3,3.8C500.8,409.2,501.6,406.3,499.7,405.9L499.7,405.9z"/>
	</g>
</g>
<g id="XMLID_418_">
	<g id="XMLID_605_">
		<path id="XMLID_573_" d="M452.3,370.7c8,6.4,17.5,10.6,26.1,16.2c3.8,2.5,7.7,5,11.5,7.6c4.1,2.8,7.7,7.1,12.8,7.9
			c1.9,0.3,2.7-2.6,0.8-2.9c-4.4-0.7-8.9-5.4-12.6-8c-3.6-2.5-7.3-4.8-11-7.2c-8.3-5.5-17.7-9.5-25.5-15.7
			C452.9,367.4,450.8,369.5,452.3,370.7L452.3,370.7z"/>
	</g>
</g>
<g id="XMLID_417_">
	<g id="XMLID_599_">
		<path id="XMLID_567_" d="M462.9,369.1c7.6,1.8,15.9,7.2,22.5,11.2c6.2,3.8,11.7,8.8,17.8,12.7c1.6,1,3.1-1.6,1.5-2.6
			c-6.5-4.1-12.3-9.6-19.1-13.4c-6.8-3.8-14.3-8.9-21.9-10.8C461.9,365.8,461.1,368.7,462.9,369.1L462.9,369.1z"/>
	</g>
</g>
<g id="XMLID_416_">
	<g id="XMLID_593_">
		<path id="XMLID_561_" d="M477.3,367.4c5.5,1,11.6,6.5,16,9.6c4.2,3,9.2,5.1,13.6,7.9c1.6,1,3.2-1.6,1.5-2.6
			c-5-3.1-10.3-5.5-15.1-8.9c-4.3-3.1-10-7.9-15.3-8.9C476.2,364.2,475.4,367.1,477.3,367.4L477.3,367.4z"/>
	</g>
</g>
<g id="XMLID_414_">
	<g id="XMLID_587_">
		<path id="XMLID_555_" d="M489.9,365.8c1.7,0.4,3.4,2.2,4.8,3.3c1.7,1.3,3.5,2.6,5.3,3.9c1.4,1,2.8,2.1,4.4,2.9
			c1.6,0.9,3.5,1.3,4.8,2.6c1.4,1.3,3.5-0.8,2.1-2.1c-1.2-1.1-2.5-1.7-4-2.4c-2.1-1-3.9-2.2-5.8-3.6c-2-1.4-4-2.8-5.9-4.3
			c-1.6-1.2-3-2.7-4.9-3.1C488.9,362.5,488,365.4,489.9,365.8L489.9,365.8z"/>
	</g>
</g>
<g id="XMLID_413_">
	<g id="XMLID_581_">
		<path id="XMLID_547_" d="M501.3,363.7c1.4,1.5,3.2,2.6,4.9,3.8c1.7,1.2,3.2,2.5,5.1,3.4c1.7,0.8,3.3-1.8,1.5-2.6
			c-1.7-0.8-3-2-4.5-3.1c-1.6-1.2-3.4-2.3-4.8-3.7C502,360.2,499.9,362.3,501.3,363.7L501.3,363.7z"/>
	</g>
</g>
<g id="XMLID_411_">
	<g id="XMLID_569_">
		<path id="XMLID_535_" d="M451.8,378.3c5.4-2.6,12.8-2.3,18.7-2.4c5-0.1,10.4-1,15.3-2.1c5.2-1.2,10.3-2.7,15.5-3.8
			c4.9-1,10.1-1.7,14.8-3.5c1.8-0.7,1-3.6-0.8-2.9c-4.7,1.8-9.9,2.5-14.8,3.5c-5.8,1.2-11.4,3.1-17.2,4.2c-5.9,1.1-12,1.4-18,1.8
			c-5.1,0.4-10.4,0.4-15.1,2.6C448.5,376.6,450,379.1,451.8,378.3L451.8,378.3z"/>
	</g>
</g>
<g id="XMLID_410_">
	<g id="XMLID_563_">
		<path id="XMLID_527_" d="M464.1,387.8c9-1.4,17.5-4.3,26.6-5.4c6-0.7,14.4,0.6,19.8-2.8c1.6-1,0.1-3.6-1.5-2.6
			c-3.1,2-8.1,1.7-11.7,1.9c-3.9,0.2-7.8,0.6-11.7,1.1c-7.6,1-14.8,3.6-22.3,4.8C461.4,385.2,462.2,388.1,464.1,387.8L464.1,387.8z"
			/>
	</g>
</g>
<g id="XMLID_408_">
	<g id="XMLID_557_">
		<path id="XMLID_521_" d="M478.7,397.5c4.9,0,8.9-1,13.6-2.1c4.9-1.1,9.4-3,14.2-4.3c1.9-0.5,1.1-3.4-0.8-2.9
			c-4.3,1.2-8.3,3.1-12.7,4c-4.9,1-9.3,2.2-14.3,2.3C476.7,394.5,476.7,397.5,478.7,397.5L478.7,397.5z"/>
	</g>
</g>
<g id="XMLID_412_">
	<g id="XMLID_575_">
		<path id="XMLID_541_" d="M509.6,361.4c0.7,0.9,1.6,1.7,2.5,2.5c0.4,0.3,0.8,0.6,1.2,0.8c0.4,0.2,0.9,0.3,1.2,0.7
			c1.3,1.4,3.5-0.7,2.1-2.1c-0.7-0.7-1.7-0.9-2.5-1.5c-1-0.7-1.8-1.6-2.5-2.5c-0.5-0.6-1.6-0.5-2.1,0
			C509,359.9,509.1,360.8,509.6,361.4L509.6,361.4z"/>
	</g>
</g>
<g id="XMLID_430_">
	<g id="XMLID_676_">
		<path id="XMLID_640_" d="M509.6,204.6c0,2.7,0.1,5.5-0.8,8c-0.8,2.2-2.5,3.9-3.3,6.2c-1.7,4.9-0.4,10.6,0.9,15.4
			c3.3,12.2,6.9,24.2,6.5,36.9c-0.2,6.1-0.2,12.2-0.2,18.3c0,5.3-0.3,10.7,0.9,15.9c1.2,5.3,5.2,10.6,5.2,16c0,2.5,0,4.4,0.7,6.8
			c1.1,3.5-0.1,5.8-0.7,9.2c-0.7,3.8,5,5.4,5.8,1.6c0.5-2.5,1.5-5,1.6-7.5c0.1-2.4-0.9-4.2-1.3-6.5c-0.5-2.8,0.2-5.5-0.6-8.2
			c-0.8-2.5-2.2-4.8-3.1-7.3c-2.2-5.7-2.4-11.1-2.4-17.1c0-6.4-0.1-12.8,0.1-19.3c0.4-12.3-2.1-23.6-5.3-35.5
			c-1.6-6.1-4.5-12.8-1.1-18.8c2.6-4.6,3.3-8.8,3.3-14.1C515.5,200.7,509.5,200.7,509.6,204.6L509.6,204.6z"/>
	</g>
</g>
<g id="XMLID_708_">
	<g id="XMLID_763_">
		<path id="XMLID_736_" d="M309.5,50c0.3,4-6.5,8.8-8.9,11.7c-4.1,4.9-8.1,10-12.3,14.9c-7.8,9.2-15.8,18.2-23.7,27.3
			c-16,18.3-31.4,37.3-46.5,56.4c-7.2,9.1-14,18.4-21.8,27c-7.8,8.6-16.3,16.1-25.1,23.6c-9.5,8.2-18.5,17-28.5,24.6
			c-9.4,7.2-19.2,14.1-28.3,21.7c-9.9,8.2-19.1,17.1-29,25.3c-5.3,4.4-10.3,8.9-16,12.9c-3.8,2.7-8.4,5.9-10.9,9.9
			c-1,1.6,1.6,3.2,2.6,1.5c2.9-4.7,9.1-8.1,13.4-11.3c4.3-3.2,8.2-6.9,12.3-10.3c9.1-7.6,17.7-15.8,26.8-23.5
			c9.8-8.3,20.3-15.8,30.6-23.6c9.5-7.2,18-15.4,27-23.2c9-7.9,18-15.4,26-24.2c8-8.8,15-18.3,22.4-27.6
			c15.2-19.4,30.9-38.6,47-57.2c9.2-10.5,18.4-20.9,27.4-31.6c4.1-4.9,7.9-10.3,12.5-14.8c2.7-2.7,6.2-5.2,5.9-9.4
			C312.4,48.1,309.4,48.1,309.5,50L309.5,50z"/>
	</g>
</g>
<g id="XMLID_702_">
	<g id="XMLID_757_">
		<path id="XMLID_735_" d="M216.9,90.9c-11.9,10-24,20-36.1,29.7c-5.7,4.6-11.1,9.3-16.2,14.6c-4.8,4.9-10.1,9.6-14.6,14.9
			c-4.6,5.5-8.8,10.9-14,15.8c-5.9,5.6-12.1,10.9-18.5,16c-11.2,8.9-22.4,17.9-32.5,28c-1.4,1.4,0.8,3.5,2.1,2.1
			c10.1-10.1,21.4-19.1,32.5-28c6.1-4.9,12.1-10,17.8-15.4c5.4-5.1,9.9-10.8,14.7-16.5c19.2-22.7,44.3-40.1,66.9-59.1
			C220.5,91.8,218.4,89.7,216.9,90.9L216.9,90.9z"/>
	</g>
</g>
<linearGradient id="XMLID_7_" gradientUnits="userSpaceOnUse" x1="424.6425" y1="250.191" x2="459.3727" y2="296.6215">
	<stop  offset="0" style="stop-color:#FFFFAB;stop-opacity:0"/>
	<stop  offset="1" style="stop-color:#FFFFAB"/>
</linearGradient>
<path id="XMLID_635_" class="st7" d="M434.2,296.2c-9-7-17.3-14.9-24.7-23.5c-1.8-2.1-3.7-4.5-4-7.2c-0.3-2.4,0.7-4.8,1.7-7
	c2.8-6.6,6-13.7,12.3-17.2c3.7-2,8-2.5,12.2-2.5c7.9,0.1,16.2,2.3,21.6,8.1c2.1,2.2,3.6,4.8,5.7,7c0.9,0.9,1.8,1.8,2.6,2.8
	c1.4,2,1.8,4.4,1.9,6.8c0.3,8.3-2.8,16.7-8.5,22.7c-5.7,6-13.9,9.6-22.2,9.6"/>
<g id="XMLID_442_">
	<g id="XMLID_717_">
		<path id="XMLID_680_" d="M435.7,198.6c-11.2,4.2-22.6,6.2-33.4,11.5c-5.2,2.5-11,3.3-16.3,5.6c-5.6,2.4-11,5.2-16.7,7.4
			c-11.5,4.2-24.4,4.7-35.4,10.1c-2.6,1.3-5,2.9-7.7,4.1c-2,0.9-4,1.6-5.7,2.9c-3.8,2.8-6.9,7.2-9.6,11c-4.1,5.9-10.3,15.3-7.3,22.9
			c2.3,5.7,8.5,9.1,13.9,11.3c6.3,2.6,13.1,4.3,19.8,4.8c11.6,0.9,21-1.6,30.7-7.8c5.7-3.6,11.1-6.7,17.5-8.9c2.8-1,5.7-1.9,8.6-2.8
			c3.6-1.1,5.3-0.3,8.2,1.9c4.6,3.6,9.8,6.7,13.3,11.5c2.3,3.2,4.3,6.4,8.1,8c6,2.6,11.1-1.3,10.7-7.7c-0.5-9.2-10.6-14.5-16.3-20.4
			c-1.3-1.4-3.4-3.2-3.8-5.1c-0.6-3.4,3.2-4.8,5.6-4.8c4.1,0.1,5.4,3.5,7.4,6.5c1.6,2.3,3.5,4.4,4.9,6.8c1.3,2.1,2.1,4.4,3.7,6.3
			c3.4,4.3,12.6,8.4,15,1.1c1.1-3.2,0.6-8.6-0.2-11.8c-1-4-3.5-7.3-6.7-9.8c-1.7-1.3-3.5-2.4-5.4-3.2c-0.4-0.2-2-0.5-2.3-0.8
			c-0.2-1.2-0.4-2.5-0.6-3.7c0.6,0,1.2,0.1,1.8,0.3c3,0,7.9,3.4,10.4,5c3.2,2.1,5.9,4.9,8.6,7.7c1.2,1.2,2.5,3.4,4.2,4
			c3.2,1.2,5.1-1.3,5.6-4.2c0.5-3.4-0.6-5.7-3.1-7.8c-4.3-3.7-8.2-8.4-13-11.4c-4-2.5-8.9-5.2-13.6-6c-6-1-12.8-0.4-18.9,0
			c-6.3,0.4-11.8,2.7-17.8,4.5c-6.6,2-14.3,3.2-21.1,4.4c-1.9,0.3-1.1,3.2,0.8,2.9c5.5-1,10.8-2.3,16.3-3.2
			c5.4-0.9,10.3-3.5,15.7-4.7c5.1-1.2,10.4-0.9,15.6-1.1c6.2-0.3,11.1,0.5,16.8,3.3c4.6,2.3,7.9,5.2,11.6,8.8c1.6,1.5,3.2,2.9,5,4.3
			c1.3,1,2.2,1.4,2.7,3.1c0.4,1.3,0.5,4.6-1.9,4c-1.2-0.3-3-3.3-4-4.2c-2-2-4-4-6.3-5.7c-2.5-1.9-5.4-3.4-8.2-4.7
			c-3.1-1.4-10.9-4.5-12.1,1c-0.4,2,0.9,4.3,2.4,5.4c1.5,1.1,3.7,1.3,5.3,2.1c2.4,1.2,4.6,2.8,6.3,4.8c3.2,3.7,3.7,9,3.5,13.8
			c-0.3,5.8-6.5,3.6-9.2,1c-1.8-1.7-2.7-4.3-3.9-6.4c-2.4-4-5.4-8.2-8.2-11.8c-1.9-2.5-4.4-4-7.6-3.7c-5.7,0.5-10.2,5.4-7,10.8
			c4.6,7.9,16.1,11.7,18.6,20.9c0.6,2.2,0.7,5.7-1.7,7c-2.8,1.5-6.4-1.1-8.1-3c-3.2-3.4-5.1-7.2-8.8-10.2c-5.3-4.2-11.1-11-18.4-8.9
			c-10.6,3-19.7,7.4-29,13.2c-9.5,6-19.5,7.7-30.6,6.2c-6.6-0.9-13.4-2.8-19.3-5.9c-7.4-3.9-11-9-7.8-17.2
			c2.5-6.3,6.5-12.1,10.9-17.1c1.9-2.2,3.9-4.2,6.5-5.5c2.2-1.1,4.7-1.8,6.9-3c11.5-6.5,24.5-7.4,36.9-11.6
			c5.6-1.9,10.9-4.3,16.2-6.9c5.4-2.6,11.2-3.6,16.7-5.8c5.7-2.3,10.8-5.2,16.8-6.9c6.2-1.8,12.4-3.1,18.5-5.4
			C438.3,200.8,437.5,197.9,435.7,198.6L435.7,198.6z"/>
	</g>
</g>
<g id="XMLID_429_">
	<g id="XMLID_670_">
		<path id="XMLID_634_" d="M461.5,261c-0.3,5.2,1.8,9.1-0.7,14.3c-1.7,3.5-3.2,7.3-5.3,10.5c-4.9,7.8-14.6,10-23.2,10.4
			c-1.9,0.1-1.9,3.1,0,3c8.9-0.4,18.6-2.6,24.4-9.9c3.1-3.9,5.3-9.4,7.3-14c2.4-5.4,0.1-8.8,0.4-14.4
			C464.6,259.1,461.6,259.1,461.5,261L461.5,261z"/>
	</g>
</g>
<g id="XMLID_326_">
	<g id="XMLID_458_">
		<path id="XMLID_447_" d="M408.5,235c-8.2,2.6-16.4,7.6-21.3,14.9c-5.3,7.8,0.8,15,6.7,20.1c1.5,1.2,3.6-0.9,2.1-2.1
			c-2.6-2.2-5.4-4.5-6.9-7.7c-2.2-4.8,0-8.5,3.4-12c4.6-4.8,10.4-8.2,16.8-10.3C411.1,237.3,410.3,234.4,408.5,235L408.5,235z"/>
	</g>
</g>
</svg>
